<svg xmlns="http://www.w3.org/2000/svg" width="128.879" height="64" viewBox="0 0 128.879 64"><path d="M210.775,1684.267a1.386,1.386,0,1,1-1.386-1.386A1.386,1.386,0,0,1,210.775,1684.267Zm-1.386,3.272a1.386,1.386,0,1,0,1.386,1.386A1.386,1.386,0,0,0,209.389,1687.539Zm43.28-4.658a1.386,1.386,0,1,0,1.386,1.386A1.386,1.386,0,0,0,252.67,1682.881Zm0,4.658a1.386,1.386,0,1,0,1.386,1.386A1.386,1.386,0,0,0,252.67,1687.539Zm-43.634,5.6a.55.55,0,0,0-.549.548c-.006,1.627-.074,6.812-.632,8.927a9.917,9.917,0,0,1-1.946,4.12.556.556,0,0,0-.053.679l.4.6a.551.551,0,0,0,.852.088,11.136,11.136,0,0,0,2.5-5.026c.618-2.342.688-7.7.693-9.386a.553.553,0,0,0-.557-.555Zm16.918-10.01v6.328a1.644,1.644,0,0,1-1.644,1.644h-6.865a1.644,1.644,0,0,1-1.644-1.644v-6.328a1.644,1.644,0,0,1,1.644-1.644h6.865A1.644,1.644,0,0,1,225.954,1683.126Zm-2.359.161h-5.436a.554.554,0,0,0-.553.553v.982a.554.554,0,0,0,.553.553H223.6a.554.554,0,0,0,.553-.553v-.982A.554.554,0,0,0,223.6,1683.287Zm-5.436,6.006H223.6a.554.554,0,0,0,.553-.554v-1.005a.553.553,0,0,0-.553-.553h-5.436a.553.553,0,0,0-.553.553v1.005A.554.554,0,0,0,218.159,1689.293Zm8.785,7.893-8.846,0a.552.552,0,0,1-.5-.781c.132-.286.242-.559.333-.809a.949.949,0,0,1,.9-.622H228a.553.553,0,0,0,.553-.553v-.7a.553.553,0,0,0-.553-.554H213.7a.553.553,0,0,0-.553.554v.7a.553.553,0,0,0,.553.553h1.7a.554.554,0,0,1,.5.79,6.657,6.657,0,0,1-.95,1.478,11.918,11.918,0,0,1-2.6,2.187.551.551,0,0,0-.194.726l.327.621a.551.551,0,0,0,.779.213,14.392,14.392,0,0,0,2.15-1.637,1.363,1.363,0,0,1,.926-.36h.767a.553.553,0,0,1,.545.654,15.255,15.255,0,0,1-.692,2.542,10.008,10.008,0,0,1-2.7,4.2.549.549,0,0,0-.118.693l.352.615a.551.551,0,0,0,.827.158,11.572,11.572,0,0,0,3.328-5.035,17.287,17.287,0,0,0,.864-3.357.549.549,0,0,1,.546-.467h1.182a.553.553,0,0,1,.548.632,18.832,18.832,0,0,1-.553,2.625,12.332,12.332,0,0,1-1.912,4.168.547.547,0,0,0,0,.68l.444.563a.554.554,0,0,0,.862.009,13.489,13.489,0,0,0,2.336-4.914,21.021,21.021,0,0,0,.661-3.279.55.55,0,0,1,.549-.484h2.044a.551.551,0,0,1,.553.566,32.959,32.959,0,0,1-.256,3.361,14.117,14.117,0,0,1-.734,3.035.554.554,0,0,1-.642.349l-.936-.212a.554.554,0,0,0-.662.417l-.155.681a.553.553,0,0,0,.418.663l1.532.345a1.629,1.629,0,0,0,1.761-.748l.021-.038c.026-.052.052-.1.076-.157a14.606,14.606,0,0,0,1.108-4.087,35.108,35.108,0,0,0,.279-3.737c0-.165.007-.362.009-.569A1.658,1.658,0,0,0,226.943,1697.186ZM178.885,1686.3c.189-.271.363-.545.522-.813a.545.545,0,0,1,.925-.013c.033.05.067.1.1.15a9.334,9.334,0,0,0,2.325,2.267.548.548,0,0,0,.786-.185l.349-.618a.546.546,0,0,0-.161-.718,7.5,7.5,0,0,1-1.816-1.773,9,9,0,0,1-1.047-2.183.551.551,0,0,0-.512-.38l-.939-.019a.548.548,0,0,0-.525.356,13.275,13.275,0,0,1-1.49,2.9,10.976,10.976,0,0,1-3.164,2.8.546.546,0,0,0-.2.72l.173.334.153.294a.55.55,0,0,0,.773.217A12.76,12.76,0,0,0,178.885,1686.3Zm-1.5,15.421a1.385,1.385,0,1,0-1.292,1.472A1.385,1.385,0,0,0,177.38,1701.726Zm6-2.285a1.385,1.385,0,1,0,1.385,1.385A1.385,1.385,0,0,0,183.384,1699.44Zm11.992-16.066a1.385,1.385,0,1,0-1.385-1.385A1.385,1.385,0,0,0,195.376,1683.374Zm.337,22.051a20.091,20.091,0,0,1-1.209-1.728.55.55,0,0,1,.09-.685,28.657,28.657,0,0,0,2.4-2.632.542.542,0,0,0-.1-.777l-.578-.425a.54.54,0,0,0-.744.094c-.325.4-.886,1.071-1.621,1.83a.548.548,0,0,1-.895-.162,20.249,20.249,0,0,1-.748-2q-.228-.726-.427-1.48a.42.42,0,0,1,.545-.5,5.742,5.742,0,0,0,5.139-.745.545.545,0,0,0,.076-.823l-.506-.526a.544.544,0,0,0-.7-.074,3.941,3.941,0,0,1-2.315.665,4.125,4.125,0,0,1-2.045-.618,2.448,2.448,0,0,1-1.1-1.6c-.046-.269-.074-.44-.116-.708a.417.417,0,0,1,.6-.436c.271.135.547.268.69.322a5.888,5.888,0,0,0,2.107.4,5.793,5.793,0,0,0,3.305-1.045.545.545,0,0,0,.075-.824l-.512-.529a.54.54,0,0,0-.689-.069,4.44,4.44,0,0,1-4.307.215,3.7,3.7,0,0,1-1.206-.876,2.648,2.648,0,0,1-.577-1.248c-.034-.227-.044-.453-.063-.674a.413.413,0,0,1,.579-.418q.166.079.337.176a6.15,6.15,0,0,0,3.06.847,5.8,5.8,0,0,0,3.305-1.045.545.545,0,0,0,.075-.824l-.512-.529a.54.54,0,0,0-.69-.069,4.128,4.128,0,0,1-4.266.215,5.835,5.835,0,0,1-1.35-.861,2.219,2.219,0,0,1-.807-1.634c-.025-.616-.034-1.006-.041-1.347a.543.543,0,0,0-.544-.532h-.717a.543.543,0,0,0-.544.551c.009.507.03,1.334.083,2.387a.536.536,0,0,1-.416.553,5.8,5.8,0,0,0-2.111.916.545.545,0,0,0-.078.824l.507.527a.544.544,0,0,0,.7.074,4.1,4.1,0,0,1,.877-.438.545.545,0,0,1,.725.465c.039.459.084.936.135,1.427a.545.545,0,0,1-.454.6,5.815,5.815,0,0,0-2.412.974.543.543,0,0,0-.072.82l.505.526a.549.549,0,0,0,.7.071,4.035,4.035,0,0,1,1.458-.6.538.538,0,0,1,.624.461c.071.492.149.991.233,1.493a.545.545,0,0,1-.506.635,5.808,5.808,0,0,0-2.934,1.029.546.546,0,0,0-.078.826l.509.525a.543.543,0,0,0,.691.075,3.958,3.958,0,0,1,2.367-.658.548.548,0,0,1,.508.428c.247,1.1.532,2.2.863,3.249a22.2,22.2,0,0,0,1.217,3.053.546.546,0,0,1-.152.668c-.108.087-.218.172-.33.258a17.342,17.342,0,0,1-3.259,2.022.54.54,0,0,0-.292.653l.211.689a.545.545,0,0,0,.743.337,18.759,18.759,0,0,0,3.687-2.264c.163-.123.322-.249.479-.375a20.633,20.633,0,0,0,2.51,3.311,1.382,1.382,0,0,0,1.3.4h0a1.387,1.387,0,0,0,.973-.8l.976-2.231a.545.545,0,0,0-.281-.717l-.656-.287a.544.544,0,0,0-.717.281l-.36.823A.543.543,0,0,1,195.713,1705.425Zm72.261-21.139a1.385,1.385,0,1,0-1.385-1.385A1.385,1.385,0,0,0,267.974,1684.286Zm-25.227,8.472a28.2,28.2,0,0,1,2.214-2.415,13.418,13.418,0,0,0,2.785-3.53,10.678,10.678,0,0,0,1.04-4.02.548.548,0,0,0-.55-.579h-1.07a.548.548,0,0,0-.548.509,8.625,8.625,0,0,1-.808,3.119,11.391,11.391,0,0,1-2.383,2.973,30.523,30.523,0,0,0-2.371,2.591,13.753,13.753,0,0,0-2.176,3.734l-.011.029a3.292,3.292,0,0,0,.721,3.376l8.081,8.608a.55.55,0,0,0,.778.024l.776-.729a.55.55,0,0,0,.025-.777l-7.886-8.4a1.616,1.616,0,0,1-.308-1.743A12.015,12.015,0,0,1,242.746,1692.758Zm29.019,2.114a12.529,12.529,0,0,0-5.9.987.543.543,0,0,1-.737-.57,51.71,51.71,0,0,1,1.718-7.977.545.545,0,0,0-.357-.674l-1.026-.327a.542.542,0,0,0-.687.361,46.893,46.893,0,0,0-1.955,10.358,1.634,1.634,0,0,0,.86,1.49h0a1.63,1.63,0,0,0,1.522.02,12.079,12.079,0,0,1,6.307-1.516,4.165,4.165,0,0,1,3.364,2.445,3.2,3.2,0,0,1-.538,3.319c-1.814,2.272-5.225,2.3-6.5,2.223a.542.542,0,0,0-.568.465l-.156,1.069a.545.545,0,0,0,.5.623c.246.017.56.032.925.032,1.962,0,5.378-.421,7.487-3.061a5.351,5.351,0,0,0,.85-5.492A6.278,6.278,0,0,0,271.766,1694.871Zm29.837,4.049a.545.545,0,0,0-.731.234c-1.409,2.663-3.236,5.324-6.04,5.86a3.962,3.962,0,0,1-3.176-.7,4.853,4.853,0,0,1-1.4-3.923c0-4.731.421-14.451.527-16.847a.544.544,0,0,0-.519-.567l-1.075-.05a.544.544,0,0,0-.569.519c-.107,2.406-.527,12.171-.53,16.944,0,2.51.734,4.392,2.185,5.592a5.858,5.858,0,0,0,3.731,1.276,6.559,6.559,0,0,0,1.232-.117c3.708-.709,5.983-4.019,7.558-6.994a.543.543,0,0,0-.236-.736ZM180.695,1704.9v-7.73a.549.549,0,0,1,.549-.549h1.574a.549.549,0,0,0,.549-.55v-.705a.549.549,0,0,0-.549-.549h-1.574a.55.55,0,0,1-.549-.55v-.924a.549.549,0,0,1,.549-.549h1.574a.549.549,0,0,0,.549-.549v-.705a.549.549,0,0,0-.549-.549h-6.364a.549.549,0,0,0-.55.549v.705a.549.549,0,0,0,.55.549h1.887a.549.549,0,0,1,.549.549v.924a.55.55,0,0,1-.549.55h-1.887a.549.549,0,0,0-.55.549v.705a.549.549,0,0,0,.55.55h1.887a.549.549,0,0,1,.549.549v8.525a.553.553,0,0,1-.457.542,18.734,18.734,0,0,1-2.02.252.55.55,0,0,0-.514.556l.01.739a.547.547,0,0,0,.582.541,19.5,19.5,0,0,0,3.893-.651,22.645,22.645,0,0,0,3.113-1.1.547.547,0,0,0,.254-.76l-.351-.651a.549.549,0,0,0-.708-.24c-.291.129-.717.3-1.27.5A.549.549,0,0,1,180.695,1704.9Zm22.1,17.134c1.052.258,1.788-.1,1.991-.935.151-.617-.1-1.088-.875-1.488l-.729-.37c-.446-.222-.547-.448-.48-.719.092-.378.438-.486.941-.363.565.138.808.45.765.963l.7.173a1.482,1.482,0,0,0-1.3-1.731c-.983-.24-1.6.123-1.785.863-.146.6.094,1.061.825,1.423l.76.378c.4.193.558.433.476.771-.1.4-.464.593-1.114.434a.9.9,0,0,1-.809-1.087l-.68-.167A1.511,1.511,0,0,0,202.793,1722.035Zm7.634-.832A1.9,1.9,0,0,0,209,1718.7c-1.2-.235-2.078.544-2.334,1.859a2.017,2.017,0,0,0,1.473,2.636,1.821,1.821,0,0,0,2.07-1.046l-.64-.211a1.12,1.12,0,0,1-1.285.639c-.727-.142-1.1-.708-.938-1.677l3.025.59Zm-1.54-1.881c.657.128.985.65.92,1.483l-2.345-.458A1.2,1.2,0,0,1,208.887,1719.323Zm5.876.362a1.537,1.537,0,0,0-1.472.511l.094-.611-.677-.1-.664,4.324.724.111.369-2.4c.158-1.031.807-1.265,1.365-1.179s.762.443.671,1.038l-.437,2.849.724.112.461-3A1.306,1.306,0,0,0,214.764,1719.684Zm4.354,1.278.929.148.074-.6-.937-.08.168-1.362-.728-.089-.167,1.354-.606-.1-.073.6.613.041-.346,2.809c-.083.673.157,1,.79,1.079l.743.091.079-.647-.529-.065c-.3-.037-.383-.149-.344-.469Zm3.961,4.361a2.089,2.089,0,0,0,2.191-2.136,2.009,2.009,0,0,0-1.742-2.436,2.321,2.321,0,0,0-.449,4.572Zm.06-.65c-.769-.072-1.177-.765-1.085-1.753s.612-1.594,1.39-1.521c.793.074,1.188.732,1.1,1.72S223.932,1724.747,223.139,1724.673Zm3.905-.9,2.226.141.044-.7-2.226-.141Zm7.233-2.267-.022.678a1.455,1.455,0,0,0-1.3-.815c-1.043-.035-1.8.831-1.847,2.152-.044,1.356.6,2.369,1.715,2.406a1.488,1.488,0,0,0,1.314-.686l-.018.568c-.03.915-.392,1.267-1.236,1.24-.581-.02-.926-.2-1.021-.7l-.716-.023c.082.893.738,1.3,1.694,1.336a1.735,1.735,0,0,0,1.991-1.91l.138-4.227Zm-1.365,3.754c-.709-.023-1.109-.7-1.077-1.715.033-1,.489-1.527,1.2-1.5.685.023,1.161.564,1.128,1.6S233.6,1725.28,232.912,1725.258Zm5.866.781a2.089,2.089,0,0,0,1.974-2.338,2.01,2.01,0,0,0-1.97-2.256,2.321,2.321,0,0,0,0,4.595Zm0-.653c-.773,0-1.246-.647-1.25-1.639s.455-1.646,1.236-1.65c.8,0,1.254.615,1.258,1.606S239.572,1725.383,238.775,1725.386Zm5.665.548a2.091,2.091,0,0,0,1.9-2.4,2.008,2.008,0,0,0-2.039-2.192,2.321,2.321,0,0,0,.139,4.592Zm-.023-.652c-.772.027-1.265-.609-1.3-1.6s.4-1.66,1.184-1.687c.8-.028,1.272.574,1.307,1.565S245.213,1725.253,244.417,1725.281Zm6.3-5.844.152,2.18a1.474,1.474,0,0,0-1.282-.531c-1.041.072-1.71,1.01-1.618,2.329.094,1.352.838,2.294,1.951,2.217a1.485,1.485,0,0,0,1.264-.877l.048.693.635-.044-.419-6.018Zm-.773,5.523c-.707.05-1.174-.581-1.244-1.595-.069-1,.33-1.569,1.037-1.618.683-.047,1.212.443,1.284,1.474S250.629,1724.913,249.945,1724.961Zm5.827-4.439a1.43,1.43,0,0,0-1.233,1.128l-.087-.877-.682.068.433,4.352.729-.073-.237-2.378a1.26,1.26,0,0,1,1.04-1.45c.1-.009.174-.017.262-.018l-.075-.759A.789.789,0,0,0,255.773,1720.522Zm5.78,3.231c-.268.035-.367-.046-.4-.332l-.277-2.134c-.123-.95-.765-1.311-1.776-1.18-1.05.136-1.569.665-1.515,1.631l.719-.093c-.028-.586.24-.817.825-.893.632-.082.945.1,1,.553l.024.185a.3.3,0,0,1-.25.366l-1.024.278c-.97.262-1.308.819-1.215,1.533a1.228,1.228,0,0,0,1.53,1.084,1.71,1.71,0,0,0,1.381-.939.627.627,0,0,0,.786.548l.387-.05-.074-.572Zm-2.3.384a.692.692,0,0,1-.873-.6c-.05-.386.136-.684.693-.85l1.192-.351.079.605A1.176,1.176,0,0,1,259.249,1724.137Zm5.731-.229c1.069-.177,1.6-.8,1.464-1.642-.1-.627-.515-.963-1.389-1.025l-.816-.054c-.5-.029-.679-.2-.724-.473-.064-.385.212-.619.723-.7a.843.843,0,0,1,1.082.586l.715-.119a1.482,1.482,0,0,0-1.875-1.082c-1,.165-1.427.742-1.3,1.5.1.61.5.939,1.317.985l.848.049c.439.021.684.179.74.522.068.409-.194.728-.854.837a.9.9,0,0,1-1.171-.683l-.691.114A1.512,1.512,0,0,0,264.98,1723.908Zm4.925-5.6a1.544,1.544,0,0,0-1.167.918l-.451-2.166-.717.149,1.23,5.909.718-.149-.5-2.382c-.212-1.021.312-1.468.866-1.583s.869.148.991.737l.587,2.822.717-.149-.618-2.971A1.3,1.3,0,0,0,269.905,1718.311Zm3.487-1.526.71-.18-.206-.813-.71.18Zm1.276,5.035.711-.18L274.3,1717.4l-.711.181ZM192.7,1664.034a1.749,1.749,0,0,1-.292.457c-.591.664-1.315,1.446-1.853,2.08a.708.708,0,0,0-.232.479.592.592,0,0,0,.259.465,18.425,18.425,0,0,1,2.5,2.5c.046.066.073.059.126.015a3.166,3.166,0,0,0,.252-.28c.053-.074.04-.088-.006-.148a22.205,22.205,0,0,0-2.563-2.433c-.06-.044-.087-.082-.087-.133a.288.288,0,0,1,.093-.184c.5-.59,1.308-1.423,1.959-2.079a.8.8,0,0,1,.246-.192.109.109,0,0,0,.066-.1.161.161,0,0,0-.046-.1A3.1,3.1,0,0,0,192.7,1664.034Zm5.382,1.533a4.888,4.888,0,0,1-.053.612c-.086.722-.173,1.489-.193,2.315,0,.066.013.081.053.1a2.635,2.635,0,0,0,.272.133c.053.022.073.022.106-.037a1.829,1.829,0,0,1,.292-.435,2.892,2.892,0,0,1,1.972-1.15.88.88,0,0,1,1,.928,1.319,1.319,0,0,1-.8,1.217,4.906,4.906,0,0,1-1.806.457,1.137,1.137,0,0,1,.3.361c.033.081.066.081.173.066a4.552,4.552,0,0,0,1.614-.487,1.7,1.7,0,0,0,1-1.57,1.322,1.322,0,0,0-1.427-1.409,3.058,3.058,0,0,0-2.317,1.327,14.755,14.755,0,0,1,.193-1.689,1.016,1.016,0,0,1,.1-.346.118.118,0,0,0-.04-.185A2.031,2.031,0,0,0,198.086,1665.567Zm.525-1.239a4.344,4.344,0,0,1,1.229.9c.04.044.073.044.106,0a2.3,2.3,0,0,0,.219-.317c.026-.052.026-.066-.014-.1a3.9,3.9,0,0,0-1.215-.841.066.066,0,0,0-.093.022A2.1,2.1,0,0,0,198.611,1664.328Zm7.229-.177a4.5,4.5,0,0,1,.053,1.114c-.033,1.04-.093,2.241-.093,3.289,0,1.083.405,1.482,1.156,1.482a3.535,3.535,0,0,0,2.53-1.239c.06-.059.08-.1.08-.14a.407.407,0,0,0-.027-.1,1.917,1.917,0,0,1-.113-.428,3.32,3.32,0,0,1-2.39,1.408c-.577,0-.784-.25-.784-1.076,0-1.018.04-2.028.1-3.141a4.65,4.65,0,0,1,.08-.76.606.606,0,0,0,.053-.191c0-.052-.033-.089-.106-.111A2.4,2.4,0,0,0,205.84,1664.152Zm9.884,3.406c.485-.229.9-.4,1.408-.634a1.815,1.815,0,0,1,.365-.118c.066-.015.119-.059.066-.17a1.757,1.757,0,0,0-.325-.427,1.83,1.83,0,0,1-.5.376c-.332.177-.71.369-1.036.531-.053-.575-.345-.863-.837-.863a1.346,1.346,0,0,0-.83.317l-.007-.015a6.252,6.252,0,0,0,.677-1.1c.531-.059,1.1-.14,1.62-.243.073-.015.086-.037.086-.089-.006-.118-.026-.221-.04-.324-.013-.044-.027-.044-.08-.029a11.463,11.463,0,0,1-1.4.243c.086-.221.146-.376.226-.56a.7.7,0,0,1,.119-.207.1.1,0,0,0-.013-.162,1.982,1.982,0,0,0-.5-.162,1.22,1.22,0,0,1-.053.4,7.1,7.1,0,0,1-.239.738,12.052,12.052,0,0,1-1.541.007c.007.118.027.28.04.368.006.052.02.074.073.074a11.688,11.688,0,0,0,1.235-.015,7.971,7.971,0,0,1-1.54,2.05c-.04.044-.033.059-.013.1a2.264,2.264,0,0,0,.233.288c.033.037.059.037.1-.015.232-.273.392-.465.631-.715a1.815,1.815,0,0,1,1.089-.6c.392-.007.545.192.558.693-1.1.6-1.467,1.1-1.467,1.718,0,.789.6,1.054,1.534,1.054a11.786,11.786,0,0,0,1.64-.1c.027-.008.053-.037.053-.1a2.361,2.361,0,0,0-.04-.362c-.014-.052-.04-.059-.073-.052a10.531,10.531,0,0,1-1.58.147c-.77,0-1.135-.177-1.135-.612s.359-.819,1.089-1.224c-.007.376-.007.738-.007,1.062,0,.052.02.088.06.088a1.629,1.629,0,0,0,.286-.03c.06-.007.073-.029.073-.088Zm6.956-3.532a1.859,1.859,0,0,1,.02.494c-.013.192-.033.383-.06.641a9.324,9.324,0,0,1-1.288-.007c.007.133.013.251.027.339.007.073.026.088.086.1a1.549,1.549,0,0,0,.312.022c.179,0,.438-.007.817-.029-.02.369-.04.76-.053,1.18a2.706,2.706,0,0,0-1.574,2.2c0,.405.159.752.6.752a2.161,2.161,0,0,0,1.248-.627,3.035,3.035,0,0,0,.113.354c.02.052.046.052.087.037a1.1,1.1,0,0,0,.245-.148c.046-.037.053-.059.033-.111a4.173,4.173,0,0,1-.139-.413,8.086,8.086,0,0,0,1.288-2.021,1.251,1.251,0,0,1,1.142,1.283,1.392,1.392,0,0,1-.571,1.172,3.608,3.608,0,0,1-1.295.546.7.7,0,0,1,.232.272c.04.089.087.1.159.081,1-.258,1.926-.848,1.926-2.006a1.661,1.661,0,0,0-1.481-1.7c.033-.074.066-.126.1-.2.027-.052.073-.1.073-.147s-.027-.074-.08-.118a1.536,1.536,0,0,0-.372-.2,1.8,1.8,0,0,1-.12.62,4.526,4.526,0,0,0-1.208.207c.007-.354.034-.664.067-1.055a12.426,12.426,0,0,0,1.945-.325.08.08,0,0,0,.073-.088,1.281,1.281,0,0,0-.033-.281c-.013-.044-.033-.066-.079-.052a12.273,12.273,0,0,1-1.846.317c.02-.17.04-.31.066-.472a.739.739,0,0,1,.086-.295.167.167,0,0,0,.04-.1.108.108,0,0,0-.066-.088A1.608,1.608,0,0,0,222.68,1664.026Zm-.133,3.163a10.175,10.175,0,0,0,.146,1.475,1.858,1.858,0,0,1-1.022.575c-.213,0-.292-.155-.292-.347A2.2,2.2,0,0,1,222.547,1667.189Zm.491,1.165a8.53,8.53,0,0,1-.119-1.364,3.235,3.235,0,0,1,1.122-.229A7.43,7.43,0,0,1,223.039,1668.354Zm7.813-2.883c.073-.28.133-.583.212-.885a.716.716,0,0,1,.106-.287.207.207,0,0,0,.053-.118.086.086,0,0,0-.053-.081,2.448,2.448,0,0,0-.531-.169,3.262,3.262,0,0,1-.053.693c-.047.273-.1.538-.193.929a9.521,9.521,0,0,1-1.2.089,3.455,3.455,0,0,1-.418-.015c.02.147.04.3.053.406.013.066.027.073.106.073a13.131,13.131,0,0,0,1.341-.088,24.5,24.5,0,0,1-1.242,3.68.077.077,0,0,0,.027.1c.087.052.259.14.312.163s.073.022.1-.044a35.906,35.906,0,0,0,1.275-3.974,10.179,10.179,0,0,0,1.2-.3c.06-.015.073-.037.066-.111s-.02-.213-.033-.3c-.006-.052-.026-.066-.08-.052A7.345,7.345,0,0,1,230.852,1665.471Zm.411,3.112a1.331,1.331,0,0,0,.325,1,1.933,1.933,0,0,0,1.461.406,5.425,5.425,0,0,0,.87-.074c.053-.007.073-.022.073-.1a2.953,2.953,0,0,0-.027-.354c-.007-.059-.027-.059-.08-.052a6.443,6.443,0,0,1-.983.1c-.836,0-1.208-.221-1.255-.885-.006-.059-.02-.074-.073-.074A1.856,1.856,0,0,0,231.263,1668.583Zm.5-1.541a5.247,5.247,0,0,1,1.222-.162,4.81,4.81,0,0,1,.85.081c.06.015.079-.007.086-.1a2.494,2.494,0,0,0-.007-.324c-.006-.044-.02-.067-.1-.081a6.1,6.1,0,0,0-.823-.073,4.786,4.786,0,0,0-1.162.155c-.073.022-.087.044-.087.111C231.741,1666.74,231.748,1666.917,231.761,1667.042Zm6.79-1.571c.073-.28.133-.583.212-.885a.71.71,0,0,1,.106-.287.208.208,0,0,0,.053-.118.086.086,0,0,0-.053-.081,2.453,2.453,0,0,0-.531-.169,3.26,3.26,0,0,1-.053.693c-.047.273-.1.538-.192.929a9.516,9.516,0,0,1-1.2.089,3.458,3.458,0,0,1-.418-.015c.02.147.04.3.053.406.013.066.027.073.106.073a13.131,13.131,0,0,0,1.341-.088,24.474,24.474,0,0,1-1.242,3.68.077.077,0,0,0,.027.1c.087.052.259.14.312.163s.073.022.1-.044a35.855,35.855,0,0,0,1.275-3.974,10.16,10.16,0,0,0,1.2-.3c.06-.015.073-.037.066-.111s-.02-.213-.033-.3c-.007-.052-.026-.066-.079-.052A7.352,7.352,0,0,1,238.551,1665.471Zm.412,3.112a1.331,1.331,0,0,0,.325,1,1.933,1.933,0,0,0,1.461.406,5.425,5.425,0,0,0,.87-.074c.053-.007.073-.022.073-.1a2.956,2.956,0,0,0-.027-.354c-.007-.059-.027-.059-.079-.052a6.448,6.448,0,0,1-.983.1c-.836,0-1.208-.221-1.255-.885-.007-.059-.02-.074-.073-.074A1.853,1.853,0,0,0,238.963,1668.583Zm.5-1.541a5.247,5.247,0,0,1,1.222-.162,4.809,4.809,0,0,1,.85.081c.06.015.079-.007.086-.1a2.493,2.493,0,0,0-.007-.324c-.006-.044-.02-.067-.1-.081a6.094,6.094,0,0,0-.823-.073,4.786,4.786,0,0,0-1.162.155c-.073.022-.086.044-.086.111C239.441,1666.74,239.448,1666.917,239.461,1667.042Zm7.541-1.475a3.48,3.48,0,0,0-1.521.524c-.053-.236-.113-.546-.166-.863a1.729,1.729,0,0,1-.027-.347c.007-.081,0-.125-.079-.155a1.834,1.834,0,0,0-.478-.073,3.4,3.4,0,0,1,.192.686c.066.325.146.708.213,1a2.732,2.732,0,0,0-.95,1.984c0,.744.358,1.062.7,1.062.359,0,.73-.273,1.149-.819a4.476,4.476,0,0,0,.286.376.082.082,0,0,0,.126.015,1.046,1.046,0,0,0,.219-.243,3.9,3.9,0,0,1-.372-.509,13.288,13.288,0,0,0,1.029-2.249,1.5,1.5,0,0,1,1.521,1.622c0,1.062-.837,1.718-2.025,1.954a.878.878,0,0,1,.279.273.13.13,0,0,0,.172.074,2.337,2.337,0,0,0,2.025-2.286,1.893,1.893,0,0,0-1.859-2.013c.106-.317.173-.5.232-.678a.844.844,0,0,1,.133-.288.129.129,0,0,0-.027-.207,1.755,1.755,0,0,0-.511-.221,1.7,1.7,0,0,1-.033.545A6.663,6.663,0,0,1,247,1665.567Zm-1.76,1.195a7.883,7.883,0,0,0,.558,1.416c-.372.539-.651.715-.89.715-.179,0-.325-.229-.325-.612A2.331,2.331,0,0,1,245.242,1666.762Zm.325-.28a2.935,2.935,0,0,1,1.308-.516,11.95,11.95,0,0,1-.81,1.844A7.668,7.668,0,0,1,245.568,1666.482Zm7.873.6c.664-.752,1.109-1.268,1.7-1.961.153-.177.226-.229.312-.258a.152.152,0,0,0,.1-.14.212.212,0,0,0-.047-.125,1.72,1.72,0,0,0-.285-.31.191.191,0,0,0-.12-.059.2.2,0,0,0-.093.051.634.634,0,0,1-.206.066,16.6,16.6,0,0,1-1.653.266,2.2,2.2,0,0,1-.584-.007,2.523,2.523,0,0,0,.159.509c.027.059.06.088.106.088a.36.36,0,0,0,.126-.037,1.013,1.013,0,0,1,.232-.066c.591-.125,1.109-.236,1.66-.331-.511.67-.91,1.142-1.295,1.607a19.27,19.27,0,0,1-1.5,1.645c-.047.044-.053.073-.027.11a3.279,3.279,0,0,0,.246.295c.047.052.08.044.133-.014a6.72,6.72,0,0,1,.584-.6,2.907,2.907,0,0,1,1.826-.833,1.132,1.132,0,0,1,1.149,1.209,1.337,1.337,0,0,1-.969,1.342,1.165,1.165,0,0,0-1.129-1.055.758.758,0,0,0-.777.752c0,.472.359.87,1.156.87,1.408,0,2.191-.8,2.191-1.895a1.485,1.485,0,0,0-1.547-1.615,2.419,2.419,0,0,0-1.427.524Zm1.148,2.544a2.168,2.168,0,0,1-.431.037c-.445,0-.684-.207-.684-.45a.362.362,0,0,1,.405-.346C254.257,1668.864,254.5,1669.2,254.589,1669.623Zm8.47-5.7a.107.107,0,0,0,.047-.088c0-.037-.027-.059-.093-.081-.113-.03-.252-.059-.412-.088a1.643,1.643,0,0,1-.186.42,6.335,6.335,0,0,1-2.722,2.492.987.987,0,0,1,.206.266c.04.073.053.1.086.1a.268.268,0,0,0,.1-.044,7.388,7.388,0,0,0,2.7-2.581,6.653,6.653,0,0,0,2.809,2.537.225.225,0,0,0,.106.044c.033,0,.053-.037.086-.118a1.067,1.067,0,0,1,.186-.3,6.376,6.376,0,0,1-2.975-2.507Zm1.647,4.388c0-.5.013-.686.013-.723s-.007-.059-.06-.059c-.033,0-.259.015-.909.015h-1.859c-.651,0-.877-.015-.916-.015s-.053.007-.053.059.013.221.013.826v.6c0,1.069-.013,1.238-.013,1.283s.007.051.053.051h.318c.047,0,.053-.007.053-.051v-.339h2.948v.3c0,.052.007.059.053.059h.312c.053,0,.06-.007.06-.059s-.013-.206-.013-1.268Zm-.412,1.246h-2.948v-1.615h2.948Zm-.119-3.333c0-.052-.007-.059-.053-.059s-.219.015-.777.015h-1.062c-.558,0-.737-.015-.777-.015s-.053.008-.053.059v.317c0,.052.007.059.053.059s.219-.015.777-.015h1.062c.558,0,.744.015.777.015s.053-.008.053-.059Zm9.612-1.062c0-.052-.006-.059-.053-.059s-.246.015-.87.015h-3.911c-.624,0-.837-.015-.87-.015s-.053.007-.053.059v.324c0,.052.006.059.053.059s.246-.015.87-.015h3.911c.624,0,.836.015.87.015s.053-.007.053-.059Zm-.863-1.01c0-.059-.007-.067-.053-.067s-.259.015-.923.015h-2.085c-.664,0-.89-.015-.923-.015s-.053.008-.053.067v.3c0,.051.006.059.053.059s.259-.015.923-.015h2.085c.664,0,.89.015.923.015s.053-.008.053-.059Zm-.053,4.631c0-.332.013-.479.013-.517,0-.059-.006-.066-.053-.066s-.259.014-.923.014H269.9c-.664,0-.89-.014-.93-.014s-.053.008-.053.066c0,.037.013.184.013.6v.406c0,.87-.013,1-.013,1.047s.007.059.053.059h.3c.053,0,.06-.007.06-.059v-.31h3.14v.28c0,.052.007.059.053.059h.306c.046,0,.053-.007.053-.059s-.013-.184-.013-1.032Zm-.086-2.581c0-.052-.007-.059-.053-.059s-.252.014-.9.014h-1.846c-.651,0-.863-.014-.9-.014s-.053.007-.053.059v.31c0,.052.007.059.053.059s.252-.015.9-.015h1.846c.651,0,.87.015.9.015s.053-.008.053-.059Zm0,1.018c0-.051-.007-.059-.053-.059s-.252.015-.9.015h-1.846c-.651,0-.863-.015-.9-.015s-.053.008-.053.059v.31c0,.052.007.059.053.059s.252-.015.9-.015h1.846c.651,0,.87.015.9.015s.053-.007.053-.059Zm-.312,2.4h-3.14v-1.01h3.14Zm8.809-.937c.624,0,.837.015.87.015s.053-.007.053-.059v-.273c0-.051-.007-.059-.053-.059s-.246.015-.87.015h-1.833a1.042,1.042,0,0,1,.033-.288.524.524,0,0,0,.04-.147c0-.03-.033-.059-.08-.067-.126-.015-.265-.029-.425-.037a2.8,2.8,0,0,1,.046.538H277.33c-.624,0-.83-.015-.87-.015s-.053.008-.053.059v.273c0,.052.007.059.053.059s.246-.015.87-.015h1.4a5.236,5.236,0,0,1-2.423,1.209.915.915,0,0,1,.166.229c.066.14.066.14.193.1a5.2,5.2,0,0,0,2.41-1.423c-.007.922-.04,1.46-.04,1.586,0,.051.007.051.053.051h.325c.047,0,.053,0,.053-.051,0-.126-.027-.671-.033-1.586a5.26,5.26,0,0,0,2.5,1.423c.126.037.126.037.186-.1a.994.994,0,0,1,.179-.258,5.39,5.39,0,0,1-2.557-1.18Zm.87-4.291c0-.052-.007-.059-.053-.059s-.245.015-.87.015h-.9a1.007,1.007,0,0,1,.033-.354.316.316,0,0,0,.033-.1c0-.037-.027-.059-.073-.066a2.832,2.832,0,0,0-.392-.03,2.731,2.731,0,0,1,.04.553H278.5a1.047,1.047,0,0,1,.033-.361.3.3,0,0,0,.033-.1c0-.037-.026-.059-.073-.066a2.869,2.869,0,0,0-.392-.03,2.807,2.807,0,0,1,.04.56h-.83c-.624,0-.837-.015-.87-.015s-.053.008-.053.059v.272c0,.052.006.059.053.059s.246-.015.87-.015h.83c-.006.287-.013.406-.013.443s.007.059.06.059h.272c.046,0,.053-.007.053-.059s-.013-.155-.013-.443h1.467c0,.294-.013.413-.013.45s.007.059.06.059h.272c.046,0,.053-.008.053-.059s-.013-.155-.013-.45h.9c.624,0,.83.015.87.015s.053-.007.053-.059Zm-.08,1.393c0-.052-.007-.059-.053-.059s-.252.015-.883.015h-.193v-.059a1.332,1.332,0,0,1,.033-.376.259.259,0,0,0,.027-.1.069.069,0,0,0-.066-.066c-.126-.015-.253-.022-.405-.029a2.587,2.587,0,0,1,.04.568v.059h-1.229v-.074a1.21,1.21,0,0,1,.033-.361.228.228,0,0,0,.027-.1c0-.029-.027-.059-.073-.066-.133-.015-.252-.022-.4-.029a2.268,2.268,0,0,1,.047.546v.081h-1.056v-.081a1.56,1.56,0,0,1,.026-.376.5.5,0,0,0,.04-.118c0-.029-.033-.052-.073-.059a3.441,3.441,0,0,0-.405-.037,4.316,4.316,0,0,1,.027.642v.03h-.173c-.631,0-.843-.015-.876-.015s-.053.007-.053.059v.258c0,.052.007.059.053.059s.246-.015.876-.015h.173v1.18c0,.413-.014.575-.014.619s.007.059.053.059h.292c.046,0,.053-.007.053-.059v-.191h2.861c.657,0,.877.014.916.014s.053-.007.053-.059v-.265c0-.052-.006-.059-.053-.059s-.259.015-.916.015h-2.861v-1.253h1.056v.155c0,.413-.014.583-.014.627s.007.059.053.059.172-.015.624-.015h.631c.451,0,.591.015.631.015s.053-.008.053-.059-.013-.214-.013-.627v-.155h.193c.631,0,.843.015.883.015s.053-.007.053-.059Zm-1.5.8h-1.229v-.5h1.229Zm5,1.873a1.029,1.029,0,1,0,.936,1.025A.986.986,0,0,0,285.574,1668.458Zm0,.368a.66.66,0,1,1-.591.656A.623.623,0,0,1,285.574,1668.826Z" transform="translate(-173.979 -1663.665)" fill="#fff"/></svg>