<svg xmlns="http://www.w3.org/2000/svg" width="260.904" height="70" viewBox="0 0 260.904 70"><path d="M377.46,351.843c-.388,0-.8.314-1.3.992s-.542.684-1.936.684H369.2c-.512,0-.551-.13-.551-.875a1.256,1.256,0,0,1,.086-.627,3.138,3.138,0,0,1,.188-.258c.335-.434.492-.662.492-.881,0-.98-3.183-1.3-3.216-1.3a.637.637,0,0,0-.716.656,3.025,3.025,0,0,0,.124.585,11.758,11.758,0,0,1,.113,1.65c0,.989-.06,1.052-.492,1.052h-5.385c-1.345,0-2.063-.059-3.381-.119-.1,0-.368-.02-.636-.042-.293-.022-.583-.044-.689-.044a.384.384,0,0,0-.421.39c0,.177.062.252.2.417l.578.7a.7.7,0,0,0,.5.272c.049,0,.2-.015.348-.031.115-.013.228-.027.3-.029,1.015-.086,3.041-.086,3.708-.086h.268a4.81,4.81,0,0,0,.806,1.4c.155.224.288.415.346.525a12.083,12.083,0,0,1,.859,2.144,1.052,1.052,0,0,1-.13,0h-3.179a2.4,2.4,0,0,1-1.252-.266c-.054-.024-.166-.086-.306-.162a3.491,3.491,0,0,0-1.267-.542.489.489,0,0,0-.539.479,6.241,6.241,0,0,0,.093.713c.042.259.084.516.086.631.145,2.315.145,4.761.145,5.806,0,1.123,0,2.82-.118,7.767,0,.217-.038.88-.071,1.44-.024.425-.047.795-.047.884,0,.279,0,1.128,1.157,1.128a1.637,1.637,0,0,0,1.832-1.863c0-.231-.029-.893-.057-1.575-.029-.714-.06-1.449-.06-1.72,0-1.326.018-7.1.025-9.523l0-1.069c0-.552,0-.7.523-.7H362.6c.383,0,.461.057.461.345a7.459,7.459,0,0,1-.7,2.91A6.131,6.131,0,0,1,360.9,365.6c-.914.788-.979.858-.979,1.052a.559.559,0,0,0,.6.509c.414,0,1.976-.9,3.773-2.877.068-.075.2-.251.357-.468a8.036,8.036,0,0,1,1.09-1.314c.764-.171,1.083-.242,1.083-.7,0-.231-.189-.57-.751-1.347H367.4c.609,0,.609,0,.609,1.962,0,3.239.543,3.394,3.722,3.394a6.677,6.677,0,0,0,1.91-.317,1.667,1.667,0,0,0,1.254-1.371,1.2,1.2,0,0,0-.43-.879,1.484,1.484,0,0,1-.32-.838c-.137-1.059-.562-1.175-.74-1.175-.411,0-.482.286-.671,1.04-.288,1.05-.128,1.343-1.356,1.343-.749,0-.791-.294-.791-2.05,0-1.11.009-1.11.55-1.11h4c.4,0,.477.039.536.286.065.321.1,3.857.1,5.326,0,6.141-.163,7.047-.215,7.18-.142.372-.332.4-1.25.4-.079,0-.314-.021-.56-.04-.29-.024-.594-.048-.7-.048-.506,0-.685.29-.685.539,0,.4.286.491.92.69,1.3.445,1.487.541,1.526,1.07.057.611.091.983.8.983a3.036,3.036,0,0,0,2.266-1.016c.577-.782.655-1.978.655-6.318,0-.444-.036-1.742-.074-3.077-.038-1.412-.075-2.867-.075-3.4,0-1.5.124-1.649.549-1.925.474-.3.658-.55.658-.9,0-.753-2.388-2.244-2.745-2.244-.321,0-.445.162-.965.833-.16.2-.182.225-.743.225h-4.313c.031-.024.062-.053.1-.082l.32-.279c2.211-1.951,2.22-1.954,2.629-2.076.335-.091.9-.242.9-.819,0-.4-.323-.64-.643-.815h4.368c.889,0,1.658,0,1.658-.744A5.119,5.119,0,0,0,377.46,351.843Zm-8.184,6.433c-.5.685-.675.744-1.351.744h-3.3l.015-.029a2.8,2.8,0,0,0,.412-1.433c0-1.043-1.4-2.034-2.561-2.609h8.374c.084,0,.226,0,.255.079C371.125,355.035,371.1,355.827,369.277,358.276Zm2.561,15.022c0-.479-.04-2.594-.055-3.385l0-.293c0-.586.075-.638.146-.689.565-.474.737-.618.737-.988,0-.972-2.233-1.686-2.333-1.686-.2,0-.392.142-.828.536-.063.056-.111.1-.145.127-.206.164-.326.193-.793.193h-3.027a3.05,3.05,0,0,1-1.149-.184l-.4-.151a2.444,2.444,0,0,0-.977-.255.476.476,0,0,0-.539.539c0,.029.013.261.03.585.033.7.088,1.821.088,2.123,0,.33-.013,1.245-.029,2.135-.013.858-.029,1.694-.029,1.983,0,.717.321,1.039,1.039,1.039a1.5,1.5,0,0,0,1.65-1.577c.04-.262.042-.277.439-.277h2.935c.432,0,.432.057.435.186.026.632.055,1.285,1.183,1.285C371.021,374.543,371.838,374.158,371.838,373.3Zm-3.188-1.684h-3.024c-.521,0-.521,0-.521-2.052,0-.97.036-.992.521-.992h3.056c.491,0,.52,0,.52,1.315C369.2,371.615,369.162,371.615,368.65,371.615Zm35.481-18.206c0-.1-.082-.99-.174-1.786-.009-.073-.069-.274-.131-.487a3.93,3.93,0,0,1-.195-.815.634.634,0,0,1,.687-.6c.031,0,3.185.013,3.185,1.068,0,.18-.126.343-.363.642-.062.078-.122.149-.146.189a2.293,2.293,0,0,0-.109,1.024c0,1.2.009,1.2.551,1.2h4.409c1.359,0,1.363-.007,1.613-.359.758-1.043.893-1.232,1.33-1.232.574,0,2.919,1.729,2.919,2.3,0,.744-.438.744-1.892.744H397.694c-.541,0-.58.029-.58,1.315,0,.436.022,1.633.044,2.8.022,1.105.044,2.185.044,2.556a20.627,20.627,0,0,1-3.1,11.611c-1.392,2.084-1.865,2.169-2.142,2.169-.042,0-.421-.015-.421-.51a14.535,14.535,0,0,1,.844-2.232c.268-.681.519-1.309.59-1.5,1.273-3.356,1.273-7.648,1.273-10.21a53.783,53.783,0,0,0-.408-6.743c-.009-.062-.051-.21-.1-.376a3.933,3.933,0,0,1-.173-.767.564.564,0,0,1,.568-.6,7.923,7.923,0,0,1,1.617.552c.31.117.578.219.7.259a3.611,3.611,0,0,0,1.4.22h5.706C403.994,353.844,404.131,353.784,404.131,353.409Zm9.278,21.274c0-.1-.026-.718-.062-1.517-.062-1.43-.144-3.385-.144-3.926,0-.6,0-.6.08-.678.022-.022.066-.062.124-.113.55-.479.8-.737.8-1,0-.69-2.142-1.863-2.6-1.863-.224,0-.458.181-1.012.689-.074.069-.133.124-.149.136a1.206,1.206,0,0,1-.693.145h-2.4c-.532,0-.552-.137-.552-.726,0-2.06.009-3.462.065-3.646.06-.153.151-.228.488-.228h5.421c.973,0,1.892,0,1.892-.861,0-.72-2.308-2.333-2.922-2.333-.5,0-.618.179-1.413,1.34-.312.423-.312.423-1.528.423h-1.481c-.5,0-.521-.174-.521-.607a3.633,3.633,0,0,1,.164-1.606c.024-.04.086-.11.155-.195.31-.379.447-.565.447-.757,0-.918-3.1-1.274-3.128-1.274a.636.636,0,0,0-.655.656,7.378,7.378,0,0,0,.151.847,26.079,26.079,0,0,1,.231,3.977c0,.272-.013,1.068-.027,1.883-.015.859-.031,1.743-.031,2.06,0,.972-.04,1.05-.551,1.05h-1.13a2.325,2.325,0,0,1-1.2-.312c-1.575-.833-1.887-.981-2.3-.981a.516.516,0,0,0-.567.479c0,.15.053.6.177,1.457l.007.168c.033.62.079,1.558.079,2.787,0,.4-.033,1.551-.07,2.718-.036,1.217-.075,2.452-.075,2.9,0,.317,0,1.157,1.156,1.157a1.9,1.9,0,0,0,1.967-1.694c.056-.217.136-.306.5-.306h7.833c.4,0,.48.137.5.463.055.666.1,1.243,1.149,1.243A1.671,1.671,0,0,0,413.409,374.683Zm-3.558-1.185h-7.734c-.534,0-.61-.065-.61-1.052,0-2.371.009-4.006.022-4.143.033-.163.092-.29.527-.29h7.765c.485,0,.521.022.521.962l0,4.222C410.321,373.4,410.153,373.5,409.852,373.5Zm107.783-59.6-5.134-1.429v-.642l4.442-1.189-4.442-1.183v-.642l5.134-1.37v.686l-3.065.763-1.154.253,1.154.281,3.065.837v.757l-3.065.83-1.161.273,1.161.275,3.065.814Zm-4.644,4.61h-.49v-.354c0-.4.18-.613.548-.642a1.577,1.577,0,0,1-.641-1.348c0-.758.4-1.248,1.082-1.248.612,0,1.045.367,1.161,1.269l.122.952c.022.181.109.268.282.268h.158c.39,0,.577-.259.577-.836,0-.534-.165-.8-.664-.845v-.655c.823.065,1.212.591,1.212,1.55,0,.923-.375,1.457-1.19,1.457h-1.832c-.245,0-.325.079-.325.324Zm.815-1.1h.52l-.166-1.111c-.08-.519-.311-.721-.642-.721-.383,0-.6.281-.6.714A1.045,1.045,0,0,0,513.806,317.4Zm2.51,4.223h-.649c.007-.08.007-.152.007-.238a1.1,1.1,0,0,0-1.139-1.068H512.5v-.664h3.721v.62h-.75a1.288,1.288,0,0,1,.851,1.211A.847.847,0,0,1,516.316,321.624Zm-1.262,6.206H512.5v-.664h2.547a.61.61,0,0,0,.692-.642c0-.433-.26-.909-1.219-.909H512.5v-.664h2.547a.61.61,0,0,0,.692-.641c0-.433-.3-.91-1.255-.91H512.5v-.663h3.721v.634l-.548-.029a1.239,1.239,0,0,1,.642,1.132,1.017,1.017,0,0,1-.649,1.032,1.26,1.26,0,0,1,.649,1.183C516.316,327.42,515.919,327.831,515.054,327.831Zm1.167,7.09H512.5v-.62h.527a1.417,1.417,0,0,1-.62-1.247,1.145,1.145,0,0,1,1.233-1.263h2.582v.664H513.77c-.512,0-.787.238-.787.743a1.022,1.022,0,0,0,1.169,1.06h2.069Zm-1.773,4.98c-1.154,0-2.027-.62-2.027-1.63a1.358,1.358,0,0,1,.533-1.1h-1.925V336.5h5.192v.576h-.6a1.34,1.34,0,0,1,.678,1.218A1.646,1.646,0,0,1,514.448,339.9Zm0-.663c.85,0,1.283-.391,1.283-1.032,0-.62-.446-1.075-1.327-1.075s-1.413.454-1.413,1.075C512.991,338.848,513.582,339.238,514.448,339.238Zm-.246,7.645v-2.79c-.836.021-1.247.453-1.247,1.125a1,1,0,0,0,.743,1.031l-.073.605a1.634,1.634,0,0,1-1.211-1.658,1.756,1.756,0,0,1,1.961-1.766,1.725,1.725,0,0,1,1.932,1.752,1.651,1.651,0,0,1-1.86,1.7Zm.477-2.783v2.163c.706-.086,1.089-.469,1.089-1.074A1.055,1.055,0,0,0,514.679,344.1Zm1.543,7.2-3.721-1.364v-.655l3.721-1.428v.714l-2.149.743-1,.31,1,.3,2.149.706Zm-2.019,4.425v-2.791c-.836.022-1.247.454-1.247,1.125a1.006,1.006,0,0,0,.743,1.032l-.073.605a1.635,1.635,0,0,1-1.211-1.659,1.756,1.756,0,0,1,1.961-1.766,1.725,1.725,0,0,1,1.932,1.753,1.652,1.652,0,0,1-1.86,1.7Zm.477-2.784v2.163c.706-.086,1.089-.469,1.089-1.074A1.055,1.055,0,0,0,514.679,352.942Zm1.637,6.118h-.649c.007-.079.007-.152.007-.238a1.1,1.1,0,0,0-1.139-1.068H512.5v-.663h3.721v.62h-.75a1.287,1.287,0,0,1,.851,1.211A.835.835,0,0,1,516.316,359.061Zm-.094,4.246-4.449-1.731a.952.952,0,0,1-.743-1.024v-.411h.556v.346c0,.339.107.47.5.62l.454.173,3.684-1.5v.721l-2.567.965-.446.08,3.013,1.074Zm1.413,4.366H512.5V367.1h.592a1.358,1.358,0,0,1-.671-1.2c0-1.01.844-1.623,2-1.623a1.676,1.676,0,0,1,1.882,1.607,1.364,1.364,0,0,1-.526,1.125h1.86Zm-3.231-.627c.881,0,1.327-.447,1.327-1.068,0-.642-.462-1.038-1.312-1.038-.866,0-1.429.382-1.429,1.024C512.991,366.585,513.525,367.046,514.4,367.046Zm-1.413,5.6h-.49v-.355c0-.4.18-.612.548-.641a1.579,1.579,0,0,1-.641-1.349c0-.757.4-1.247,1.082-1.247.612,0,1.045.367,1.161,1.269l.122.952c.022.18.109.267.282.267h.158c.39,0,.577-.259.577-.836,0-.533-.165-.8-.664-.844v-.656c.823.066,1.212.592,1.212,1.551,0,.923-.375,1.457-1.19,1.457h-1.832c-.245,0-.325.078-.325.324Zm.815-1.1h.52l-.166-1.11c-.08-.519-.311-.721-.642-.721-.383,0-.6.281-.6.714A1.045,1.045,0,0,0,513.806,371.543Zm2.415,5.384-4.449-1.731a.952.952,0,0,1-.743-1.024v-.411h.556v.346c0,.339.107.469.5.62l.454.173,3.684-1.5v.721l-2.567.965-.446.08,3.013,1.074ZM505.8,308.7h-.418l.029.85H504.9l.029-.85h-3.239v-.664h3.239l-.029-.6h.512l-.022.6h.317c.779,0,1.118.339,1.118,1.117v.4h-.556v-.382C506.269,308.817,506.154,308.7,505.8,308.7Zm-.3,4.007h-.649c.007-.08.007-.152.007-.238a1.1,1.1,0,0,0-1.139-1.068h-2.034v-.664h3.722v.62h-.751a1.288,1.288,0,0,1,.851,1.211A.838.838,0,0,1,505.5,312.71Zm-1.954.9a1.779,1.779,0,0,1,1.954,1.81,1.75,1.75,0,0,1-1.925,1.773A1.82,1.82,0,0,1,501.6,315.4,1.778,1.778,0,0,1,503.551,313.609Zm.029,2.92c.843,0,1.37-.41,1.37-1.131s-.556-1.125-1.4-1.125-1.4.426-1.4,1.125C502.151,316.118,502.735,316.529,503.579,316.529Zm.664,7.121h-2.554v-.664h2.547a.61.61,0,0,0,.692-.641c0-.433-.26-.91-1.219-.91h-2.019v-.664h2.547a.61.61,0,0,0,.692-.641c0-.433-.3-.909-1.255-.909h-1.984v-.664h3.722v.635l-.549-.029a1.238,1.238,0,0,1,.642,1.132,1.015,1.015,0,0,1-.649,1.031,1.261,1.261,0,0,1,.649,1.183C505.5,323.24,505.108,323.65,504.243,323.65Zm1.861,2.47q.779,0,.779.714v.073h-.361v-.073a.3.3,0,0,0-.339-.339h-.367l.035.419h-.721v-.794Zm0,1.277q.779,0,.779.714v.072h-.361v-.072a.3.3,0,0,0-.339-.339h-.367l.035.418h-.721V327.4Zm-2.531,1.887a1.78,1.78,0,0,1,1.954,1.81,1.75,1.75,0,0,1-1.925,1.773,1.82,1.82,0,0,1-1.984-1.795A1.778,1.778,0,0,1,503.572,329.284Zm.029,2.92c.843,0,1.369-.41,1.369-1.131s-.555-1.125-1.4-1.125-1.4.426-1.4,1.125C502.172,331.793,502.757,332.2,503.6,332.2Zm2.221,3H505.4l.029.851h-.511l.029-.851h-3.239v-.664h3.239l-.029-.6h.511l-.021.6h.317c.779,0,1.117.339,1.117,1.118v.4h-.555v-.383C506.29,335.323,506.175,335.208,505.822,335.208Zm0,3.012H505.4l.029.851h-.511l.029-.851h-3.239v-.664h3.239l-.029-.6h.511l-.021.6h.317c.779,0,1.117.339,1.117,1.118v.4h-.555v-.383C506.29,338.335,506.175,338.22,505.822,338.22Zm-.39,5.169h-3.721v-.62h.527a1.418,1.418,0,0,1-.621-1.248,1.145,1.145,0,0,1,1.233-1.262h2.582v.664H502.98c-.512,0-.787.238-.787.743a1.022,1.022,0,0,0,1.169,1.06h2.069Zm1.413,1.582v.664h-5.134v-.664Zm0,2.248v.664h-5.134v-.664Zm-3.273,2.032a1.78,1.78,0,0,1,1.954,1.81,1.751,1.751,0,0,1-1.925,1.774,1.82,1.82,0,0,1-1.984-1.8A1.778,1.778,0,0,1,503.572,349.252Zm.029,2.921c.843,0,1.369-.411,1.369-1.132s-.555-1.125-1.4-1.125-1.4.426-1.4,1.125C502.172,351.762,502.757,352.173,503.6,352.173Zm1.852,1.764v.072a.3.3,0,0,0,.339.339h.368l-.037-.418h.721v.794h-.972q-.778,0-.779-.715v-.072Zm0,1.277v.072a.3.3,0,0,0,.339.339h.368l-.037-.418h.721V356h-.972q-.778,0-.779-.714v-.072Zm-40.171-33.851a14.471,14.471,0,0,1,1.845-.967,1.219,1.219,0,0,0,.78-1.6,36.168,36.168,0,0,1-1.165-10.354,1.321,1.321,0,0,1,1.4-1.306c.857,0,1.49.42,1.52,1.265.1,2.815.243,6.849,1.132,9.553a1.228,1.228,0,0,0,1.544.955,29.412,29.412,0,0,1,3.265-.417,1.449,1.449,0,0,1,1.7,1.334,1.37,1.37,0,0,1-1.4,1.579c-2.113.174-6.112.679-9.134,2.473a4.356,4.356,0,0,0-2.306,4.153c.284,1.6,1.942,2.228,3.284,2.478a23.468,23.468,0,0,0,11.022-1.159,1.3,1.3,0,0,1,1.871.849,1.488,1.488,0,0,1-.837,1.887,25.941,25.941,0,0,1-9.237,1.57,18.768,18.768,0,0,1-3.355-.272c-3.135-.584-5.186-2.348-5.628-4.842A7.249,7.249,0,0,1,465.283,321.362Zm-88.072,10.269Zm1.966-.446a1.384,1.384,0,0,1-1.845-.927,5.1,5.1,0,0,0-1.959-3.092,1.481,1.481,0,0,1-.331-1.966,1.434,1.434,0,0,1,1.944-.521,7.509,7.509,0,0,1,3.217,4.754A1.476,1.476,0,0,1,379.177,331.185Zm17.9.262a1.458,1.458,0,0,1,1.767-.831,12.03,12.03,0,0,0,4.112.451,6.011,6.011,0,0,0,4.927-2.835,3.357,3.357,0,0,0-.145-3.309c-1.311-2.229-4.607-3.014-8.395-2.005a11.242,11.242,0,0,0-3.682,1.7,1.671,1.671,0,0,1-2.231-.236,1.383,1.383,0,0,1,.075-2.049c4.377-3.661,5.8-6.891,7.409-9.685.516-.9.608-1.895-.832-1.966-.454-.023-1.088-.055-1.533-.079-.79-.044-1.5-.385-1.423-1.485a1.368,1.368,0,0,1,1.585-1.439,16.384,16.384,0,0,0,5.349-.173,1.855,1.855,0,0,1,2.012.74,2.062,2.062,0,0,1,.217,2.336c-.272.433-1.2,1.3-1.841,2.133a47.12,47.12,0,0,0-3.031,4.843c-.6,1.048-.418,2.01,1.025,2.01,3.518,0,6.362,1.409,7.815,3.875a6.274,6.274,0,0,1,.237,6.111,8.884,8.884,0,0,1-7.236,4.427,13.1,13.1,0,0,1-1.31.066,11.678,11.678,0,0,1-4.183-.7A1.35,1.35,0,0,1,397.08,331.447Zm32.837-5.9a14.7,14.7,0,0,1,.383-1.851,1.176,1.176,0,0,0-.7-1.627,5.9,5.9,0,0,1-2.3-1.642,4.036,4.036,0,0,1-.494-3.655,1.267,1.267,0,0,1,1.873-.748,1.583,1.583,0,0,1,.977,1.764,1.609,1.609,0,0,0,1.756,1.551,1.421,1.421,0,0,0,1.029-.928,23.491,23.491,0,0,0,.851-2.361,1.434,1.434,0,0,0-.653-1.648,14.707,14.707,0,0,1-3.189-2.362,1.239,1.239,0,0,1,.184-1.9,1.411,1.411,0,0,1,2.029-.018,4.377,4.377,0,0,0,.5.41c1.057.768,2.082.9,2.314-.983.056-.453.039-1,.1-1.415a1.293,1.293,0,0,1,1.453-1.205,1.31,1.31,0,0,1,1.484,1.385,35.659,35.659,0,0,1-1.042,7.148,28.689,28.689,0,0,1-1.09,3.48c-.6,1.619.408,1.8,1.2,1.929a1.369,1.369,0,0,1,1.106,1.628c-.079.831-.559,1.31-1.21,1.318a14.247,14.247,0,0,1-1.808-.2c-.947-.107-1.342.147-1.595,1.016a8.982,8.982,0,0,0-.26,1.3c-.207,1.519.189,4.3,2.977,5.063a5.489,5.489,0,0,0,6.617-2.652,5.968,5.968,0,0,0-.589-5.792,1.478,1.478,0,0,1,2.41-1.657,8.689,8.689,0,0,1,.8,8.754,8.2,8.2,0,0,1-7.388,4.535,9.913,9.913,0,0,1-2.624-.368C430.9,332.689,429.487,328.738,429.918,325.547Zm-71.187-.172a1.435,1.435,0,0,1-.106,2.089,8.749,8.749,0,0,0-2.081,2.716,1.481,1.481,0,0,1-1.911.65,1.364,1.364,0,0,1-.81-1.765,7.725,7.725,0,0,1,3.026-3.953A1.407,1.407,0,0,1,358.731,325.375Zm1.046,1.955Zm1.76,3.242a1.472,1.472,0,0,1,2-.179,3.372,3.372,0,0,0,2.352.688,3.582,3.582,0,0,0,3.033-3.684c.082-1.876-.943-3.43-3.67-5.583a6.514,6.514,0,0,1-2.633-4.376,5.039,5.039,0,0,1,1.057-3.835,5.288,5.288,0,0,1,.568-.609,1.278,1.278,0,0,0,.41-.935,1.2,1.2,0,0,0-.387-.894,9.579,9.579,0,0,1-1.449-1.623,1.261,1.261,0,0,1,.418-1.806,1.46,1.46,0,0,1,2.049.234,8.442,8.442,0,0,0,4.11,3.028,1.467,1.467,0,0,1,.966,1.746,1.666,1.666,0,0,1-1.547,1.433,4,4,0,0,0-2.854,1.252,2.084,2.084,0,0,0-.439,1.632,3.5,3.5,0,0,0,1.474,2.4c2.424,1.814,5.013,4.284,4.848,8.059a6.531,6.531,0,0,1-5.45,6.438,5.7,5.7,0,0,1-.981.085,5.3,5.3,0,0,1-3.964-1.591A1.272,1.272,0,0,1,361.537,330.571Zm1.277-.846Zm80.368,24.441c-.068.294-.409.6-.7.53a2.013,2.013,0,0,0-.377-.1c-.154-.014-.218,0-.257-.006a.191.191,0,0,1-.145-.236.275.275,0,0,1,.059-.105l.021-.031a.424.424,0,0,0,.049-.1.325.325,0,0,0-.237-.445,1.2,1.2,0,0,0-.436.043.36.36,0,0,1-.163,0,.177.177,0,0,1-.137-.224,1.417,1.417,0,0,1,1.374-.467A1.029,1.029,0,0,1,443.181,354.166Zm-2.347,1.447a4.113,4.113,0,0,0-1.51.409l-.4.161c-.165.067-.4.16-.5.206v-.01c0-.087,0-1.02.019-1.233a1.435,1.435,0,0,1,.031-.292.152.152,0,0,1,.042-.019l.04-.016a3.884,3.884,0,0,0,.825-.447.377.377,0,0,0,.052-.608.621.621,0,0,0-.5-.167l-.043.014a.2.2,0,0,0-.121.171c0,.039-.139.157-.189.179.012-.138.055-.36.077-.474.009-.044.016-.078.015-.078.008-.023.032-.076.062-.138a1.289,1.289,0,0,0,.154-.421,1.13,1.13,0,0,0-1.176-.826c-.181,0-.365.079-.365.255,0,.063.024.105.18.261a.839.839,0,0,1,.289.7c0,.125-.044.841-.069.989a4.836,4.836,0,0,1-1.156.257,2.99,2.99,0,0,1-.449-.049.55.55,0,0,1-.064-.016.547.547,0,0,0-.127-.025.214.214,0,0,0-.226.216,1.138,1.138,0,0,0,.866.747,1.835,1.835,0,0,0,.652-.163l.106-.035c.057-.02.32-.083.386-.093a.19.19,0,0,1,.022.093c.009.165.019,1.169.019,1.4,0,.189,0,.189-.488.429a2.021,2.021,0,0,1-.975.324c-.03,0-.108-.012-.186-.023-.1-.014-.192-.027-.224-.027a.5.5,0,0,0-.436.536c0,.418.585.777.767.777a.831.831,0,0,0,.36-.166.85.85,0,0,1,.09-.049.611.611,0,0,1,.18-.044h.04c.03.012.11.113.33.538a.666.666,0,0,0,.59.451c.52,0,.657-.828.657-1.266,0-.05-.008-.185-.016-.324s-.014-.281-.014-.336c0-.073,0-.081.543-.373,1.247-.661,1.575-.732,1.761-.732a.889.889,0,0,1,.814.954,1.113,1.113,0,0,1-.925,1.031c-.334.033-.5-.112-.5-.334a.293.293,0,0,1,.073-.2.249.249,0,0,0,.057-.151.2.2,0,0,0-.2-.2,1,1,0,0,0-.647.936c0,.571.472.955,1.176.955a2.019,2.019,0,0,0,1.928-2A1.677,1.677,0,0,0,440.834,355.613Zm-3.1,2.1a1.006,1.006,0,0,1-.13.571.67.67,0,0,1-.275-.306A1.982,1.982,0,0,1,437.739,357.713Zm15.624-1.418a9.305,9.305,0,0,0-.989-.032.419.419,0,0,1-.3-.1c-.809-.739-.888-1.078-.842-1.4a1.184,1.184,0,0,1,1.014-.795c.417-.028.776-.052.776-.525,0-.61-.634-.916-1.1-1.139l-.036-.019c-.649-.352-.675-.349-.774-.323a.187.187,0,0,0-.124.171,3.631,3.631,0,0,0,.329.616c.212.294.212.308.212.384,0,.2-.12.376-.412.8l-.07.1a1.781,1.781,0,0,0-.308.831,2.4,2.4,0,0,0,.27,1.095l.039.065c.057.1.221.374.268.465l-.066.031a3.741,3.741,0,0,0-.906.486c-.317.216-1.046.9-1.56.9-.028,0-.1-.012-.178-.023-.094-.013-.189-.027-.222-.027-.211,0-.336.22-.336.586a.794.794,0,0,0,.786.8c.4,0,.517-.146.965-.7.057-.073.118-.144.162-.145.089.011.2.31.575.568a1.842,1.842,0,0,0,1.108.422,1.2,1.2,0,0,0,1.266-1.276,2.548,2.548,0,0,0-.427-1.424,2.838,2.838,0,0,1,.894.208c.737.317.7.971.823,1.356s.345.787.71.787a.679.679,0,0,0,.686-.6C455.723,357.781,455.3,356.548,453.363,356.3Zm-1.554,1.333a.683.683,0,0,1-.754.734,1.434,1.434,0,0,1-.812-.4c.3-.33.887-1.075,1.227-1.1A2.06,2.06,0,0,1,451.808,357.629Zm15.572-.57c0,2.6-3.561,2.932-4.236,2.636-.25-.11-.2-.454.187-.444.472.013,2.867-.433,2.867-2.206a1.356,1.356,0,0,0-1.294-1.35,2.556,2.556,0,0,0-2.162,1.048c-.424.632-.523.905-.9.905a.5.5,0,0,1-.517-.576c0-.423.176-.612.559-1.027a12.793,12.793,0,0,0,2.38-3.256c-.727.1-1.088.424-1.379.414a.635.635,0,0,1-.46-.224,1.013,1.013,0,0,1-.316-.575c-.012-.118.1-.206.246-.206.023,0,.119.008.226.018a3.868,3.868,0,0,0,.988-.03,9.022,9.022,0,0,1,1.111-.295.819.819,0,0,1,.9.717c0,.439-.292.68-.733,1.043a16.1,16.1,0,0,0-1.588,1.706l.092-.043.14-.063a4.607,4.607,0,0,1,1.582-.319A2.249,2.249,0,0,1,467.38,357.058Zm12.229,2.03c0,.614-2.022.707-3.036.707-1.365,0-2.057-.577-2.057-1.716a2.413,2.413,0,0,1,.806-1.726l0,0c.189-.175.383-.357.383-.433-.005-.025-.063-.216-.079-.254a3.38,3.38,0,0,1-.181-1.227c0-.112.013-.444.025-.786.013-.36.025-.731.025-.865a1.009,1.009,0,0,0-.3-.757c-.12-.156-.235-.247-.235-.333,0-.135.128-.2.417-.2.631,0,1.216.5,1.225.9a1.728,1.728,0,0,1-.1.5,8.113,8.113,0,0,0-.284,1.6c0,.831.079,1.013.128,1.048a13.787,13.787,0,0,1,1.323-.678,4.048,4.048,0,0,1,1.28-.407.529.529,0,0,1,.526.517c0,.4-.455.748-.863.815-2.423.4-3.317,1.623-3.317,2.218,0,.194,0,.784,1.244.784a7.721,7.721,0,0,0,1.482-.174,2.838,2.838,0,0,1,.788-.156A.753.753,0,0,1,479.609,359.089Zm-39.484,10.834a27.217,27.217,0,0,0-2.345,1.905c0,.106.122.232.418.472.671.546,2.681,1.846,2.837,2.874a.743.743,0,0,1-.63.826c-.937.136-1-1-1.368-1.588a6.806,6.806,0,0,0-1.769-1.755c-.4-.336-.521-.536-.439-.852.076-.3,1.016-.93,1.822-1.736.948-.949,1.149-1.491,1.149-1.815a.81.81,0,0,0-.222-.495.262.262,0,0,1-.035-.286c.042-.086.151-.086.192-.086.283,0,1.376.534,1.376,1.026C441.11,368.83,440.981,369.18,440.125,369.923Zm14.738,3.722c0,1.3-1.888,2.176-3.427,2.176-.155,0-.417,0-.417-.225,0-.154.172-.2.355-.249l.04-.012c1.232-.276,2.327-1.042,2.327-1.87a1.016,1.016,0,0,0-1.015-1.052,1.811,1.811,0,0,0-1.37.775l-.043.062c-.435.615-.583.823-.988.823-.532,0-.905-.575-.905-1.4,0-.283.1-1.154.183-1.855.042-.357.077-.659.087-.786a1.378,1.378,0,0,1,1-1.324c.583-.241.708-.308.708-.485,0-.145-.23-.388-.326-.532-.035-.066-.107-.206,0-.312.079-.065.164-.074.428.049.41.189,1.284.8,1.284,1.294a.636.636,0,0,1-.655.627,1.872,1.872,0,0,1-.639-.18,1.229,1.229,0,0,0-.421-.091c-.327,0-.52.111-.559.438a1.232,1.232,0,0,0,.028.361,3.085,3.085,0,0,1-.051.944c-.015.1-.028.18-.034.222-.052.384-.128.959-.128,1.194,0,.314.084.314.115.314a1.388,1.388,0,0,0,.573-.2,3.782,3.782,0,0,1,2.026-.535A1.835,1.835,0,0,1,454.863,373.645Zm13.046.241a4.552,4.552,0,0,1-3.506,1.866c-1.429,0-2.066-.9-2.066-2.907a22.85,22.85,0,0,1,.231-2.8c.043-.348.129-1.148.129-1.414a1.112,1.112,0,0,0-.079-.434c-.008-.024-.028-.071-.048-.12-.071-.168-.073-.171-.073-.206a.263.263,0,0,1,.286-.246c.634,0,1.105.909,1.105,1.186a1.568,1.568,0,0,1-.14.449c-.026.066-.048.122-.055.146a23.878,23.878,0,0,0-.335,3.445c0,1.088.232,1.763,1.385,1.763a4.784,4.784,0,0,0,1.958-.425c.059-.027.213-.11.38-.2.571-.306.581-.306.632-.306A.192.192,0,0,1,467.909,373.886Zm-199.078.185c-1.038,1.182-3.1.8-4.676-.1a18.161,18.161,0,0,1-6.3-6.666,8.39,8.39,0,0,1,1.265-10.019c2.39-2.559,4.645-4.975,4.99-9.865s2.935-5.469,4.852-5.469c3.092,0,4.874,1.861,5.02,5.245a13.878,13.878,0,0,1-1.271,7.12,31.011,31.011,0,0,1-1.55,2.826,15.713,15.713,0,0,0-1.91,3.981,4.373,4.373,0,0,0,.527,3.569,7.671,7.671,0,0,0,4.088,2.785C273.253,368.315,270.2,372.511,268.831,374.071Zm64.84-6.9c-.582.778-3.805,5.077-5.116,6.611-1.041,1.216-2.444,1.352-4.173.4-1.574-.867-6.361-3.506-6.706-20.506-.032-1.636-.009-4.874.055-5.782.3-4.275,1.847-5.964,5-5.964,2.229,0,5.193.708,5.193,6.835C327.92,361.808,331.461,365.9,333.67,367.175ZM301.7,372.994c-4.857,4.235-12.62,4.335-16.69,1.852-2.549-1.555-2.727-3.922-1.959-6.139a4.285,4.285,0,0,1,4.94-2.857c1.942.26,4.7,1.111,7.223-1.708a8.934,8.934,0,0,0,1.932-6.646c-.236-4.018-1.95-7.281-7.645-12.831a12.447,12.447,0,0,1-4.223-8.714,20.79,20.79,0,0,1,.08-4.39l.01-.094c.195-1.881,1.136-2.648,3.248-2.648,1.261,0,5.6.077,6.457.093-.8,6.795.465,7.721,4.9,12.19,3.765,3.793,7.115,8.863,7.659,15.1C308.253,363.265,306.2,369.07,301.7,372.994ZM297.2,327.1c.49-3.009-1.142-5.233-4.611-6.273a7.9,7.9,0,0,1-5.857-7.934c.011-3.96,1.63-5.8,5.094-5.8,2.57,0,4.28,1.215,4.689,3.333a5.517,5.517,0,0,0,2.248,3.481,32.209,32.209,0,0,0,4.068,2.344,6.337,6.337,0,0,1,3.627,5.423,5.054,5.054,0,0,1-5.356,5.43Z" transform="translate(-256.731 -306.927)" fill="#64a2bb"/></svg>