<?xml version="1.0" encoding="UTF-8"?><svg xmlns="http://www.w3.org/2000/svg" viewBox="0 0 163.91 70.02"><path d="m23.73,44.93c-.39,0-.8.31-1.3.99s-.54.68-1.94.68h-5.02c-.51,0-.55-.13-.55-.88-.03-.21,0-.43.09-.63.06-.09.12-.18.19-.26.33-.43.49-.66.49-.88,0-.98-3.18-1.3-3.22-1.3-.35-.04-.67.2-.71.55,0,.03,0,.07,0,.1.02.2.06.39.12.58.08.55.11,1.1.11,1.65,0,.99-.06,1.05-.49,1.05h-5.39c-1.35,0-2.06-.06-3.38-.12-.1,0-.37-.02-.64-.04-.29-.02-.58-.04-.69-.04-.21-.02-.4.13-.42.35,0,.01,0,.03,0,.04,0,.18.06.25.2.42l.58.7c.12.16.3.26.5.27.05,0,.2-.02.35-.03.11-.01.23-.03.3-.03,1.02-.09,3.04-.09,3.71-.09h.27c.19.51.46.98.81,1.4.15.22.29.42.35.52.35.69.64,1.4.86,2.14-.04,0-.09,0-.13,0h-3.18c-.43.03-.87-.07-1.25-.27-.05-.02-.17-.09-.31-.16-.38-.26-.81-.45-1.27-.54-.27-.03-.51.17-.54.44,0,.01,0,.03,0,.04.02.24.05.48.09.71.04.26.08.52.09.63.14,2.32.14,4.76.14,5.81,0,1.12,0,2.82-.12,7.77,0,.22-.04.88-.07,1.44-.02.42-.05.8-.05.88,0,.28,0,1.13,1.16,1.13.9.12,1.72-.51,1.84-1.41.02-.15.02-.3,0-.45,0-.23-.03-.89-.06-1.58-.03-.71-.06-1.45-.06-1.72,0-1.33.02-7.1.02-9.52v-1.07c0-.55,0-.7.52-.7h3.14c.38,0,.46.06.46.35-.03,1.01-.27,2-.7,2.91-.36.72-.85,1.37-1.46,1.9-.91.79-.98.86-.98,1.05.03.31.29.53.6.51.41,0,1.98-.9,3.77-2.88.07-.08.2-.25.36-.47.32-.48.68-.92,1.09-1.31.76-.17,1.08-.24,1.08-.7,0-.23-.19-.57-.75-1.35h1.33q.61,0,.61,1.96c0,3.24.54,3.39,3.72,3.39.65-.01,1.29-.12,1.91-.32.66-.16,1.15-.7,1.25-1.37-.01-.34-.17-.66-.43-.88-.19-.24-.3-.53-.32-.84-.14-1.06-.56-1.17-.74-1.17-.41,0-.48.29-.67,1.04-.29,1.05-.13,1.34-1.36,1.34-.75,0-.79-.29-.79-2.05,0-1.11,0-1.11.55-1.11h4c.4,0,.48.04.54.29.07.32.1,3.86.1,5.33,0,6.14-.16,7.05-.21,7.18-.14.37-.33.4-1.25.4-.08,0-.31-.02-.56-.04-.29-.02-.59-.05-.7-.05-.51,0-.68.29-.68.54,0,.4.29.49.92.69,1.3.45,1.49.54,1.53,1.07.06.61.09.98.8.98.87,0,1.69-.37,2.27-1.02.58-.78.65-1.98.65-6.32,0-.44-.04-1.74-.07-3.08-.04-1.41-.08-2.87-.08-3.4,0-1.5.12-1.65.55-1.92.47-.3.66-.55.66-.9,0-.75-2.39-2.24-2.74-2.24-.32,0-.45.16-.96.83-.16.2-.18.23-.74.23h-4.31s.06-.05.1-.08l.32-.28c2.21-1.95,2.22-1.95,2.63-2.08.33-.09.9-.24.9-.82,0-.4-.32-.64-.64-.82h4.37c.89,0,1.66,0,1.66-.74-.58-1.09-1.54-1.92-2.69-2.36Zm-8.18,6.43c-.5.68-.67.74-1.35.74h-3.3l.02-.03c.26-.43.41-.93.41-1.43,0-1.04-1.4-2.03-2.56-2.61h8.37c.08,0,.23,0,.26.08,0,0-.02.8-1.84,3.25h0Zm2.56,15.02c0-.48-.04-2.59-.05-3.39v-.29c0-.59.08-.64.15-.69.57-.47.74-.62.74-.99,0-.97-2.23-1.69-2.33-1.69-.2,0-.39.14-.83.54-.06.06-.11.1-.14.13-.21.16-.33.19-.79.19h-3.03c-.39.01-.78-.05-1.15-.18l-.4-.15c-.3-.15-.64-.24-.98-.26-.26-.04-.5.14-.54.4,0,.05,0,.09,0,.14,0,.03.01.26.03.58.03.7.09,1.82.09,2.12,0,.33-.01,1.24-.03,2.14-.01.86-.03,1.69-.03,1.98,0,.72.32,1.04,1.04,1.04.82.08,1.56-.52,1.64-1.34,0-.08,0-.16,0-.24.04-.26.04-.28.44-.28h2.93c.43,0,.43.06.43.19.03.63.05,1.29,1.18,1.29.81,0,1.62-.39,1.62-1.24h0Zm-3.19-1.69h-3.02q-.52,0-.52-2.05c0-.97.04-.99.52-.99h3.06c.49,0,.52,0,.52,1.32,0,1.73-.04,1.73-.55,1.73h0Zm35.48-18.21c0-.1-.08-.99-.17-1.79,0-.07-.07-.27-.13-.49-.09-.26-.16-.54-.2-.82.02-.35.32-.62.66-.6,0,0,.01,0,.02,0,.03,0,3.18.01,3.18,1.07,0,.18-.13.34-.36.64-.06.08-.12.15-.15.19-.11.33-.15.68-.11,1.02,0,1.2,0,1.2.55,1.2h4.41c1.36,0,1.36,0,1.61-.36.76-1.04.89-1.23,1.33-1.23.57,0,2.92,1.73,2.92,2.3,0,.74-.44.74-1.89.74h-18.12c-.54,0-.58.03-.58,1.32,0,.44.02,1.63.04,2.8.02,1.11.04,2.18.04,2.56.14,4.09-.94,8.13-3.1,11.61-1.39,2.08-1.86,2.17-2.14,2.17-.04,0-.42-.02-.42-.51.22-.77.5-1.51.84-2.23.27-.68.52-1.31.59-1.5,1.27-3.36,1.27-7.65,1.27-10.21,0-2.25-.13-4.51-.41-6.74,0-.06-.05-.21-.1-.38-.08-.25-.14-.51-.17-.77-.02-.31.22-.58.53-.6.01,0,.03,0,.04,0,.56.13,1.1.31,1.62.55.31.12.58.22.7.26.45.17.92.24,1.4.22h5.71c.44,0,.57-.06.57-.43h0Zm9.28,21.27c0-.1-.03-.72-.06-1.52-.06-1.43-.14-3.39-.14-3.93q0-.6.08-.68s.07-.06.12-.11c.55-.48.8-.74.8-1,0-.69-2.14-1.86-2.6-1.86-.22,0-.46.18-1.01.69-.07.07-.13.12-.15.14-.21.12-.45.17-.69.14h-2.4c-.53,0-.55-.14-.55-.73,0-2.06,0-3.46.07-3.65.06-.15.15-.23.49-.23h5.42c.97,0,1.89,0,1.89-.86,0-.72-2.31-2.33-2.92-2.33-.5,0-.62.18-1.41,1.34q-.31.42-1.53.42h-1.48c-.5,0-.52-.17-.52-.61-.07-.54-.01-1.09.16-1.61.02-.04.09-.11.15-.2.31-.38.45-.57.45-.76,0-.92-3.1-1.27-3.13-1.27-.35-.01-.64.27-.66.62,0,.01,0,.03,0,.04.03.29.08.57.15.85.18,1.32.26,2.65.23,3.98,0,.27-.01,1.07-.03,1.88-.02.86-.03,1.74-.03,2.06,0,.97-.04,1.05-.55,1.05h-1.13c-.42,0-.84-.1-1.2-.31-1.58-.83-1.89-.98-2.3-.98-.28-.03-.54.18-.57.46,0,0,0,.01,0,.02,0,.15.05.6.18,1.46v.17c.04.62.09,1.56.09,2.79,0,.4-.03,1.55-.07,2.72-.04,1.22-.08,2.45-.08,2.9,0,.32,0,1.16,1.16,1.16,1,.04,1.86-.7,1.97-1.69.06-.22.14-.31.5-.31h7.83c.4,0,.48.14.5.46.05.67.1,1.24,1.15,1.24.92.1,1.74-.56,1.84-1.48.02-.16.01-.32-.02-.47h0Zm-3.56-1.19h-7.73c-.53,0-.61-.07-.61-1.05,0-2.37,0-4.01.02-4.14.03-.16.09-.29.53-.29h7.77c.48,0,.52.02.52.96v4.22c-.02.2-.19.3-.49.3h0ZM163.91,6.99l-5.13-1.43v-.64l4.44-1.19-4.44-1.18v-.64l5.13-1.37v.69l-3.07.76-1.15.25,1.15.28,3.07.84v.76l-3.07.83-1.16.27,1.16.27,3.07.81v.69Zm-4.64,4.61h-.49v-.35c0-.4.18-.61.55-.64-.43-.31-.67-.82-.64-1.35,0-.76.4-1.25,1.08-1.25.61,0,1.04.37,1.16,1.27l.12.95c.02.18.11.27.28.27h.16c.39,0,.58-.26.58-.84,0-.53-.16-.8-.66-.85v-.65c.82.07,1.21.59,1.21,1.55s-.38,1.46-1.19,1.46h-1.83c-.24,0-.33.08-.33.32v.11Zm.82-1.1h.52l-.17-1.11c-.08-.52-.31-.72-.64-.72-.38,0-.6.28-.6.71-.04.55.35,1.03.89,1.11h0Zm2.51,4.23h-.65c0-.08,0-.15,0-.24-.02-.61-.52-1.09-1.13-1.07,0,0,0,0,0,0h-2.03v-.66h3.72v.62h-.75c.51.18.85.67.85,1.21,0,.04,0,.09,0,.13h0Zm-1.26,6.21h-2.55v-.66h2.55c.33.05.64-.19.69-.52,0-.04,0-.08,0-.12,0-.43-.26-.91-1.22-.91h-2.02v-.66h2.55c.33.05.64-.19.69-.52,0-.04,0-.08,0-.12,0-.43-.3-.91-1.26-.91h-1.98v-.66h3.72v.63l-.55-.03c.41.23.66.66.64,1.13.04.45-.23.87-.65,1.03.43.24.68.7.65,1.18,0,.73-.4,1.14-1.26,1.14h0Zm1.17,7.09h-3.72v-.62h.53c-.41-.28-.65-.75-.62-1.25-.07-.63.39-1.19,1.02-1.26.07,0,.14,0,.22,0h2.58v.66h-2.45c-.51,0-.79.24-.79.74-.03.56.41,1.04.97,1.07.07,0,.13,0,.2,0h2.07v.66Zm-1.78,4.98c-1.15,0-2.03-.62-2.03-1.63,0-.43.19-.84.53-1.1h-1.92v-.68h5.19v.58h-.6c.44.25.7.72.68,1.22-.02.91-.76,1.63-1.67,1.62-.06,0-.12,0-.18-.01h0Zm0-.66c.85,0,1.28-.39,1.28-1.03s-.45-1.08-1.33-1.08-1.41.45-1.41,1.08c0,.64.59,1.03,1.46,1.03h0Zm-.25,7.65v-2.79c-.84.02-1.25.45-1.25,1.12-.03.48.28.91.74,1.03l-.07.61c-.74-.2-1.25-.89-1.21-1.66-.01-.97.76-1.77,1.73-1.78.08,0,.15,0,.23.01.95-.11,1.81.56,1.92,1.51,0,.08.01.16.01.25.03.91-.68,1.68-1.59,1.71-.09,0-.18,0-.27-.01h-.24Zm.48-2.78v2.16c.71-.09,1.09-.47,1.09-1.07.02-.58-.43-1.07-1.01-1.09-.02,0-.05,0-.07,0h0Zm1.54,7.2l-3.72-1.36v-.65l3.72-1.43v.71l-2.15.74-1,.31,1,.3,2.15.71v.67Zm-2.02,4.42v-2.79c-.84.02-1.25.45-1.25,1.12-.03.48.28.91.74,1.03l-.07.61c-.74-.2-1.25-.89-1.21-1.66-.01-.97.76-1.77,1.73-1.78.08,0,.15,0,.23.01.95-.11,1.81.56,1.92,1.51,0,.08.01.17.01.25.03.91-.68,1.68-1.59,1.71-.09,0-.18,0-.27-.01h-.24Zm.48-2.78v2.16c.71-.09,1.09-.47,1.09-1.07.02-.58-.43-1.07-1.02-1.09-.02,0-.05,0-.07,0h0Zm1.64,6.12h-.65c0-.08,0-.15,0-.24-.02-.61-.52-1.09-1.13-1.07,0,0,0,0,0,0h-2.03v-.66h3.72v.62h-.75c.51.18.85.67.85,1.21,0,.05,0,.09,0,.14h0Zm-.09,4.25l-4.45-1.73c-.47-.1-.79-.54-.74-1.02v-.41h.56v.35c0,.34.11.47.5.62l.45.17,3.68-1.5v.72l-2.57.96-.45.08,3.01,1.07v.69Zm1.41,4.37h-5.13v-.58h.59c-.42-.25-.68-.71-.67-1.2,0-1.01.84-1.62,2-1.62.92-.11,1.76.54,1.87,1.46,0,.05.01.1.01.15.02.44-.18.86-.53,1.12h1.86v.67Zm-3.23-.63c.88,0,1.33-.45,1.33-1.07s-.46-1.04-1.31-1.04-1.43.38-1.43,1.02c0,.62.54,1.08,1.41,1.08h0Zm-1.41,5.6h-.49v-.36c0-.4.18-.61.55-.64-.43-.31-.67-.82-.64-1.35,0-.76.4-1.25,1.08-1.25.61,0,1.04.37,1.16,1.27l.12.95c.02.18.11.27.28.27h.16c.39,0,.58-.26.58-.84,0-.53-.16-.8-.66-.84v-.66c.82.07,1.21.59,1.21,1.55s-.38,1.46-1.19,1.46h-1.83c-.24,0-.33.08-.33.32v.11Zm.82-1.1h.52l-.17-1.11c-.08-.52-.31-.72-.64-.72-.38,0-.6.28-.6.71-.04.55.35,1.03.89,1.11h0Zm2.41,5.39l-4.45-1.73c-.47-.1-.79-.54-.74-1.02v-.41h.56v.35c0,.34.11.47.5.62l.45.17,3.68-1.5v.72l-2.57.96-.45.08,3.01,1.07v.69ZM152.07,1.79h-.42l.03.85h-.51l.03-.85h-3.24v-.66h3.24l-.03-.6h.51l-.02.6h.32c.78,0,1.12.34,1.12,1.12v.4h-.56v-.38c0-.35-.11-.47-.47-.47Zm-.3,4.01h-.65c0-.08,0-.15,0-.24-.02-.61-.52-1.09-1.13-1.07h0s-2.03,0-2.03,0v-.66h3.72v.62h-.75c.51.18.85.67.85,1.21,0,.05,0,.09,0,.14h0Zm-1.95.9c.98-.1,1.85.62,1.95,1.59,0,.07,0,.14,0,.22.02.97-.75,1.76-1.72,1.78-.07,0-.14,0-.21,0-1,.09-1.88-.66-1.97-1.66,0-.04,0-.09,0-.13-.01-.98.77-1.79,1.76-1.8.06,0,.13,0,.19,0h0Zm.03,2.92c.84,0,1.37-.41,1.37-1.13s-.56-1.12-1.4-1.12-1.4.43-1.4,1.12c0,.72.59,1.13,1.43,1.13h0Zm.66,7.12h-2.55v-.66h2.55c.33.05.64-.19.69-.52,0-.04,0-.08,0-.12,0-.43-.26-.91-1.22-.91h-2.02v-.66h2.55c.33.05.64-.19.69-.52,0-.04,0-.08,0-.12,0-.43-.3-.91-1.26-.91h-1.98v-.66h3.72v.64l-.55-.03c.41.23.66.66.64,1.13.04.45-.23.87-.65,1.03.43.24.68.7.65,1.18,0,.73-.39,1.14-1.26,1.14h0Zm1.86,2.47c.52,0,.78.24.78.71v.07h-.36v-.07c.02-.16-.09-.32-.26-.34-.03,0-.06,0-.08,0h-.37l.04.42h-.72v-.79h.97Zm0,1.28c.52,0,.78.24.78.71v.07h-.36v-.07c.02-.16-.09-.32-.26-.34-.03,0-.06,0-.08,0h-.37l.04.42h-.72v-.79h.97Zm-2.53,1.88c.98-.1,1.85.62,1.95,1.6,0,.07,0,.14,0,.21.02.97-.75,1.76-1.72,1.78-.07,0-.14,0-.21,0-1,.09-1.89-.65-1.98-1.65,0-.05,0-.1,0-.15,0-.98.78-1.79,1.76-1.8.07,0,.13,0,.2,0h0Zm.03,2.92c.84,0,1.37-.41,1.37-1.13s-.55-1.12-1.4-1.12-1.4.43-1.4,1.12c0,.72.59,1.13,1.43,1.13h0Zm2.22,3h-.42l.03.85h-.51l.03-.85h-3.24v-.66h3.24l-.03-.6h.51l-.02.6h.32c.78,0,1.12.34,1.12,1.12v.4h-.55v-.38c0-.35-.11-.47-.46-.47h0Zm0,3.01h-.42l.03.85h-.51l.03-.85h-3.24v-.66h3.24l-.03-.6h.51l-.02.6h.32c.78,0,1.12.34,1.12,1.12v.4h-.55v-.38c0-.35-.11-.47-.46-.47h0Zm-.39,5.16h-3.72v-.62h.53c-.41-.28-.65-.75-.62-1.25-.07-.63.39-1.19,1.02-1.26.07,0,.14,0,.22,0h2.58v.66h-2.45c-.51,0-.79.24-.79.74-.03.56.41,1.04.97,1.07.07,0,.13,0,.2,0h2.07v.66Zm1.41,1.58v.66h-5.13v-.66h5.13Zm0,2.25v.66h-5.13v-.66h5.13Zm-3.27,2.03c.98-.1,1.85.62,1.95,1.6,0,.07,0,.14,0,.21.02.97-.75,1.76-1.72,1.78-.07,0-.14,0-.21,0-1,.09-1.89-.65-1.98-1.65,0-.05,0-.1,0-.15,0-.98.79-1.78,1.77-1.79.06,0,.13,0,.19,0h0Zm.03,2.91c.84,0,1.37-.41,1.37-1.13s-.55-1.12-1.4-1.12-1.4.43-1.4,1.12c0,.73.59,1.14,1.43,1.14h0Zm1.85,1.76v.07c-.02.16.09.32.26.34.03,0,.06,0,.08,0h.37l-.04-.42h.72v.79h-.97c-.52,0-.78-.24-.78-.71v-.07h.36Zm0,1.28v.07c-.02.16.09.32.26.34.03,0,.06,0,.08,0h.37l-.04-.42h.72v.8h-.97c-.52,0-.78-.24-.78-.71v-.07h.36ZM111.55,14.45c.59-.37,1.21-.69,1.85-.97.64-.2,1-.88.81-1.52,0-.03-.02-.05-.03-.08-.89-3.38-1.28-6.86-1.17-10.35,0-.73.6-1.32,1.33-1.31.02,0,.04,0,.07,0,.86,0,1.49.42,1.52,1.27.1,2.82.24,6.85,1.13,9.55.12.67.77,1.11,1.43.98.04,0,.07-.02.11-.03,1.08-.2,2.17-.34,3.27-.42.79-.14,1.54.38,1.68,1.17,0,.05.02.11.02.16.12.75-.4,1.45-1.14,1.56-.08.01-.17.02-.26.02-2.11.17-6.11.68-9.13,2.47-1.52.81-2.43,2.43-2.31,4.15.28,1.6,1.94,2.23,3.28,2.48,3.71.5,7.49.1,11.02-1.16.64-.33,1.42-.09,1.76.54.05.1.09.2.11.31.27.75-.1,1.59-.84,1.89-2.96,1.08-6.09,1.61-9.24,1.57-1.12.01-2.25-.08-3.36-.27-3.14-.58-5.19-2.35-5.63-4.84-.33-2.92,1.13-5.75,3.7-7.17h0ZM25.45,24.27c-.71.28-1.51-.07-1.8-.78-.02-.05-.04-.1-.05-.15-.25-1.24-.95-2.34-1.96-3.09-.6-.47-.74-1.32-.33-1.97.4-.68,1.26-.91,1.94-.52,1.66,1.1,2.82,2.81,3.22,4.75.18.76-.27,1.54-1.02,1.76h0Zm17.9.26c.29-.69,1.05-1.05,1.77-.83,1.33.39,2.73.54,4.11.45,2.01-.06,3.86-1.12,4.93-2.83.54-1.05.48-2.31-.14-3.31-1.31-2.23-4.61-3.01-8.39-2.01-1.32.34-2.57.91-3.68,1.7-.69.51-1.66.4-2.23-.24-.55-.53-.56-1.41-.03-1.96.03-.03.07-.06.1-.09,4.38-3.66,5.8-6.89,7.41-9.68.52-.9.61-1.89-.83-1.97-.45-.02-1.09-.05-1.53-.08-.79-.04-1.5-.39-1.42-1.48-.05-.75.52-1.4,1.28-1.45.1,0,.21,0,.31.01,1.78.24,3.59.18,5.35-.17.76-.21,1.57.09,2.01.74.55.66.64,1.59.22,2.34-.27.43-1.2,1.3-1.84,2.13-1.11,1.55-2.12,3.17-3.03,4.84-.6,1.05-.42,2.01,1.02,2.01,3.52,0,6.36,1.41,7.82,3.88,1.13,1.86,1.22,4.17.24,6.11-1.51,2.61-4.23,4.27-7.24,4.43-.44.04-.87.07-1.31.07-1.43.02-2.84-.21-4.18-.7-.69-.28-1.02-1.07-.75-1.76.02-.05.04-.09.06-.14h0Zm32.84-5.91c.09-.62.22-1.24.38-1.85.28-.59.03-1.29-.55-1.57-.05-.02-.1-.04-.15-.06-.89-.35-1.68-.92-2.3-1.64-.74-1.07-.93-2.43-.49-3.65.19-.67.89-1.07,1.56-.88.11.03.22.08.31.13.71.28,1.12,1.02.98,1.76.03.89.77,1.59,1.66,1.56.03,0,.06,0,.1,0,.48-.11.87-.46,1.03-.93.33-.77.61-1.56.85-2.36.19-.63-.08-1.32-.65-1.65-1.16-.64-2.24-1.43-3.19-2.36-.48-.49-.48-1.27,0-1.75.06-.05.12-.1.18-.15.54-.57,1.43-.59,1.99-.05.01.01.02.02.03.03.16.15.32.29.5.41,1.06.77,2.08.9,2.31-.98.06-.45.04-1,.1-1.42.04-.71.66-1.26,1.37-1.21.03,0,.06,0,.08,0,.72-.1,1.38.4,1.47,1.12.01.09.01.18,0,.26-.1,2.41-.45,4.81-1.04,7.15-.29,1.18-.65,2.34-1.09,3.48-.6,1.62.41,1.8,1.2,1.93.74.13,1.24.84,1.11,1.58,0,.02,0,.03,0,.04-.08.83-.56,1.31-1.21,1.32-.61-.03-1.21-.09-1.81-.2-.95-.11-1.34.15-1.6,1.02-.12.43-.21.86-.26,1.3-.21,1.52.19,4.3,2.98,5.06,2.56.86,5.36-.26,6.62-2.65.82-1.9.6-4.09-.59-5.79-.36-.73-.06-1.62.67-1.98.59-.29,1.29-.16,1.74.32,1.83,2.56,2.14,5.91.8,8.75-1.4,2.8-4.26,4.56-7.39,4.54-.89,0-1.77-.13-2.62-.37-4.11-1.12-5.52-5.07-5.09-8.26h0Zm-71.19-.18c.55.57.53,1.48-.04,2.03-.02.02-.04.04-.07.06-.87.76-1.57,1.68-2.08,2.72-.37.68-1.2.97-1.91.65-.71-.26-1.07-1.04-.82-1.75,0,0,0-.01,0-.02.54-1.62,1.61-3.01,3.03-3.95.6-.42,1.43-.3,1.89.27h0Zm2.81,5.19c.52-.58,1.39-.65,2-.18.67.52,1.51.76,2.35.69,1.8-.28,3.11-1.86,3.03-3.68.08-1.88-.94-3.43-3.67-5.58-1.44-1.04-2.39-2.62-2.63-4.38-.19-1.37.19-2.76,1.06-3.83.17-.22.36-.42.57-.61.26-.24.41-.58.41-.93,0-.34-.14-.66-.39-.89-.54-.48-1.03-1.03-1.45-1.62-.39-.58-.24-1.36.33-1.75.03-.02.06-.04.09-.05.63-.5,1.55-.4,2.05.23,1.02,1.41,2.46,2.47,4.11,3.03.73.24,1.15,1,.97,1.75-.11.78-.76,1.38-1.55,1.43-1.08.01-2.11.47-2.85,1.25-.37.46-.53,1.05-.44,1.63.13.97.67,1.84,1.47,2.4,2.42,1.81,5.01,4.28,4.85,8.06,0,3.19-2.31,5.91-5.45,6.44-.32.06-.65.09-.98.08-1.49.05-2.92-.53-3.96-1.59-.49-.5-.49-1.31.01-1.8.03-.03.06-.05.08-.08h0Zm81.64,23.59c-.07.29-.41.6-.7.53-.12-.05-.25-.08-.38-.1-.15-.01-.22,0-.26,0-.1-.02-.17-.12-.15-.23,0,0,0,0,0,0,.01-.04.03-.07.06-.11l.02-.03s.04-.06.05-.1c.07-.17,0-.36-.17-.43-.02,0-.04-.02-.06-.02-.15-.01-.29,0-.44.04-.05.01-.11.01-.16,0-.1-.02-.16-.11-.14-.21,0,0,0-.01,0-.02.34-.4.86-.58,1.37-.47.57.04,1,.53.96,1.09,0,.02,0,.04,0,.05h0Zm-2.35,1.44c-.52.04-1.04.18-1.51.41l-.4.16c-.17.07-.4.16-.5.21h0c0-.1,0-1.03.02-1.24,0-.1.01-.2.03-.29.01,0,.03-.01.04-.02l.04-.02c.29-.12.57-.27.83-.45.18-.11.24-.34.13-.52-.02-.03-.05-.06-.08-.09-.13-.13-.32-.19-.5-.17h-.04c-.07.04-.12.11-.12.18,0,.04-.14.16-.19.18.01-.14.05-.36.08-.47,0-.04.02-.08.02-.08,0-.02.03-.08.06-.14.08-.13.13-.27.15-.42-.14-.52-.64-.87-1.18-.83-.18,0-.36.08-.36.26,0,.06.02.11.18.26.2.17.31.43.29.7,0,.12-.04.84-.07.99-.37.13-.76.22-1.16.26-.15,0-.3-.02-.45-.05-.02,0-.04,0-.06-.02-.04-.01-.08-.02-.13-.02-.12,0-.22.08-.23.2,0,0,0,0,0,.01.13.39.46.67.87.75.23-.01.45-.07.65-.16l.11-.04c.06-.02.32-.08.39-.09.02.03.02.06.02.09,0,.17.02,1.17.02,1.4q0,.19-.49.43c-.29.19-.63.3-.98.32-.03,0-.11-.01-.19-.02-.1-.01-.19-.03-.22-.03-.27.03-.46.27-.44.54,0,.42.58.78.77.78.13-.03.26-.08.36-.17.03-.02.06-.03.09-.05.06-.02.12-.04.18-.04h.04s.11.11.33.54c.09.26.32.43.59.45.52,0,.66-.83.66-1.27,0-.05,0-.18-.02-.32s-.01-.28-.01-.34c0-.07,0-.08.54-.37,1.25-.66,1.58-.73,1.76-.73.49.04.85.47.81.95-.03.52-.41.94-.92,1.03-.33.03-.5-.11-.5-.33,0-.07.02-.14.07-.2.04-.04.06-.1.06-.15,0-.11-.09-.2-.2-.2h0c-.39.15-.65.52-.65.94,0,.57.47.95,1.18.95,1.07-.05,1.92-.93,1.93-2-.02-.92-.77-1.66-1.69-1.65h0Zm-3.1,2.1c.01.2-.03.4-.13.57-.12-.07-.22-.18-.27-.31.13-.1.27-.19.42-.26h-.01Zm15.62-1.42c-.33-.03-.66-.04-.99-.03-.11,0-.22-.03-.3-.1-.81-.74-.89-1.08-.84-1.4.15-.44.55-.75,1.01-.8.42-.03.78-.05.78-.52,0-.61-.63-.92-1.1-1.14l-.04-.02c-.65-.35-.67-.35-.77-.32-.07.03-.12.09-.12.17.09.22.2.42.33.62.21.29.21.31.21.38,0,.2-.12.38-.41.8l-.07.1c-.17.25-.28.53-.31.83,0,.38.09.76.27,1.1l.04.07c.06.1.22.37.27.46l-.07.03c-.32.12-.63.28-.91.49-.32.22-1.05.9-1.56.9-.03,0-.1-.01-.18-.02-.09-.01-.19-.03-.22-.03-.21,0-.34.22-.34.59,0,.44.35.8.79.8.4,0,.52-.15.96-.7.06-.07.12-.14.16-.14.09.01.2.31.58.57.31.26.7.41,1.11.42.66.04,1.23-.47,1.27-1.13,0-.05,0-.1,0-.15,0-.51-.15-1-.43-1.42.31.02.61.09.89.21.74.32.7.97.82,1.36s.35.79.71.79c.35,0,.65-.25.69-.6.14-.65-.28-1.88-2.22-2.13h-.01Zm-1.55,1.32c.03.38-.25.71-.63.74-.04,0-.09,0-.13,0-.31-.04-.59-.18-.81-.4.3-.33.89-1.08,1.23-1.1.17.23.29.49.35.77h-.01Zm15.57-.58c0,2.6-3.56,2.93-4.24,2.64-.25-.11-.2-.45.19-.44.47.01,2.87-.43,2.87-2.21,0-.72-.57-1.32-1.29-1.35-.85-.03-1.66.36-2.16,1.05-.42.63-.52.9-.9.9-.28.01-.51-.2-.52-.48,0-.03,0-.07,0-.1,0-.42.18-.61.56-1.03.96-.95,1.76-2.05,2.38-3.26-.73.1-1.09.42-1.38.41-.18,0-.34-.09-.46-.22-.17-.15-.28-.35-.32-.58-.01-.12.1-.21.25-.21.02,0,.12,0,.23.02.33.03.66.02.99-.03.36-.12.73-.22,1.11-.3.45-.05.85.27.9.72,0,.44-.29.68-.73,1.04-.57.53-1.1,1.1-1.59,1.71l.09-.04.14-.06c.5-.2,1.04-.31,1.58-.32,1.22-.04,2.25.91,2.32,2.13h-.01Zm12.23,2.02c0,.61-2.02.71-3.04.71-1.36,0-2.06-.58-2.06-1.72.02-.66.31-1.29.81-1.73h0c.19-.17.38-.36.38-.43,0-.02-.06-.22-.08-.25-.14-.39-.2-.81-.18-1.23,0-.11.01-.44.02-.79.01-.36.02-.73.02-.86.01-.28-.1-.56-.3-.76-.12-.16-.23-.25-.23-.33,0-.14.13-.2.42-.2.63,0,1.22.5,1.23.9,0,.17-.04.34-.1.5-.15.52-.24,1.06-.28,1.6,0,.83.08,1.01.13,1.05.43-.25.87-.48,1.32-.68.4-.21.83-.34,1.28-.41.29,0,.52.23.53.52,0,.4-.45.75-.86.82-2.42.4-3.32,1.62-3.32,2.22,0,.19,0,.78,1.24.78.5-.01.99-.07,1.48-.17.25-.09.52-.14.79-.16.39-.04.75.24.81.63h-.01Zm-39.48,10.83c-.82.59-1.6,1.23-2.35,1.9,0,.11.12.23.42.47.67.55,2.68,1.85,2.84,2.87.05.4-.23.77-.63.83-.94.14-1-1-1.37-1.59-.48-.69-1.08-1.28-1.77-1.76-.4-.34-.52-.54-.44-.85.08-.3,1.02-.93,1.82-1.74.95-.95,1.15-1.49,1.15-1.82-.01-.19-.09-.36-.22-.49-.07-.08-.08-.19-.04-.29.04-.09.15-.09.19-.09.28,0,1.38.53,1.38,1.03.01.42-.12.77-.97,1.52h-.01Zm14.74,3.72c0,1.3-1.89,2.18-3.43,2.18-.15,0-.42,0-.42-.23,0-.15.17-.2.36-.25h.04c1.23-.29,2.33-1.05,2.33-1.88.02-.56-.42-1.03-.98-1.05-.01,0-.02,0-.04,0-.55.04-1.06.32-1.37.77l-.04.06c-.43.61-.58.82-.99.82-.53,0-.9-.58-.9-1.4,0-.28.1-1.15.18-1.86.04-.36.08-.66.09-.79,0-.62.41-1.16,1-1.32.58-.24.71-.31.71-.48,0-.14-.23-.39-.33-.53-.04-.07-.11-.21,0-.31.08-.07.16-.07.43.05.41.19,1.28.8,1.28,1.29,0,.35-.29.63-.64.63,0,0,0,0-.01,0-.22-.02-.44-.08-.64-.18-.13-.05-.28-.09-.42-.09-.33,0-.52.11-.56.44,0,.12,0,.24.03.36.03.32.01.63-.05.94-.02.1-.03.18-.03.22-.05.38-.13.96-.13,1.19,0,.31.08.31.11.31.2-.02.4-.09.57-.2.61-.37,1.31-.55,2.03-.54,1.01,0,1.83.82,1.83,1.84h-.01Zm13.05.23c-.82,1.13-2.11,1.81-3.51,1.87-1.43,0-2.07-.9-2.07-2.91.02-.94.1-1.87.23-2.8.04-.35.13-1.15.13-1.41,0-.15-.02-.3-.08-.43,0-.02-.03-.07-.05-.12-.07-.17-.07-.17-.07-.21,0-.14.13-.26.28-.25,0,0,0,0,0,0,.63,0,1.11.91,1.11,1.19-.02.16-.07.31-.14.45-.03.07-.05.12-.05.15-.19,1.14-.31,2.29-.33,3.45,0,1.09.23,1.76,1.39,1.76.68,0,1.34-.15,1.96-.42.06-.03.21-.11.38-.2.57-.31.58-.31.63-.31.11,0,.2.07.21.18,0,.01,0,.02,0,.03h-.01Z" fill="#64a2bb"/></svg>