<svg xmlns="http://www.w3.org/2000/svg" width="160" height="34.6" viewBox="0 0 160 34.6">
  <path id="パス_2379" data-name="パス 2379" d="M111.326,259.027c8.113.208,11.161,3.741,11.265,12.471.1,4.936,0,19.07,0,19.07h-8.777c0-12.367.051-14.407,0-18.3-.1-3.429-1.082-5.065-3.717-5.377-2.79-.311-10.61-.052-10.61-.052v23.732H90.709V259.183c6.148,0,14.571-.312,20.617-.156m40.635,24.047a8.3,8.3,0,1,0-8.252-8.3,8.262,8.262,0,0,0,8.252,8.3m0-24.152a15.854,15.854,0,1,1-15.766,15.854,15.829,15.829,0,0,1,15.766-15.854m90.89,12.989c-.786-3.508-3.242-6.47-7.908-6.47-4.469,0-7.072,2.766-7.956,6.47Zm7.858,2.864a19.331,19.331,0,0,1-.2,2.42H226.938a7.42,7.42,0,0,0,2.111,4.149c1.67,1.58,3.978,2.321,7.809,2.321a15.127,15.127,0,0,0,8.3-3.21l3.487,4.741a17.47,17.47,0,0,1-12.623,5.432,16.959,16.959,0,0,1-10.854-3.408,15.819,15.819,0,1,1,25.539-12.446M197.543,256.03H189.35v8.818h-8.462v7.711h8.462V281.7h8.194v-9.137h8.463v-7.711h-8.463Z" transform="translate(-90.709 -256.03)" fill="#fff"/>
</svg>
