<svg xmlns="http://www.w3.org/2000/svg" width="456" height="64.551" viewBox="0 0 456 64.551"><path d="M509.13,469.451c-.519,0-1.071.422-1.742,1.33s-.727.918-2.594.918h-6.737c-.685,0-.739-.176-.739-1.173a1.687,1.687,0,0,1,.116-.84c.039-.071.14-.2.252-.344.448-.581.659-.887.659-1.182,0-1.312-4.265-1.745-4.31-1.745a.853.853,0,0,0-.959.879,4.025,4.025,0,0,0,.167.783,15.886,15.886,0,0,1,.151,2.212c0,1.324-.081,1.41-.659,1.41h-7.215c-1.8,0-2.764-.081-4.53-.161-.133,0-.492-.026-.852-.057-.391-.03-.78-.059-.923-.059a.515.515,0,0,0-.564.522c0,.238.083.338.264.558l.775.941a.94.94,0,0,0,.668.365c.065,0,.267-.021.466-.042.154-.018.306-.036.4-.038,1.359-.117,4.075-.117,4.968-.117h.359a6.424,6.424,0,0,0,1.081,1.873c.207.3.386.555.463.7a16.289,16.289,0,0,1,1.152,2.873,1.565,1.565,0,0,1-.175.005h-4.259a3.23,3.23,0,0,1-1.677-.356c-.072-.033-.223-.116-.41-.217a4.667,4.667,0,0,0-1.7-.727.655.655,0,0,0-.721.641,8.2,8.2,0,0,0,.125.956c.056.347.113.692.116.845.193,3.1.193,6.378.193,7.779,0,1.5,0,3.778-.157,10.406,0,.291-.05,1.178-.1,1.929-.033.57-.062,1.066-.062,1.184,0,.374,0,1.511,1.549,1.511a2.193,2.193,0,0,0,2.455-2.5c0-.308-.039-1.2-.078-2.11-.039-.956-.08-1.941-.08-2.3,0-1.778.024-9.518.033-12.759l.006-1.433c0-.739,0-.935.7-.935h4.214c.513,0,.617.078.617.463a9.984,9.984,0,0,1-.939,3.9,8.231,8.231,0,0,1-1.964,2.536c-1.226,1.057-1.312,1.149-1.312,1.41a.75.75,0,0,0,.8.683c.555,0,2.648-1.2,5.054-3.855.092-.1.265-.336.478-.627a10.769,10.769,0,0,1,1.46-1.76c1.024-.229,1.451-.324,1.451-.944,0-.309-.252-.763-1.006-1.8h1.781c.817,0,.817,0,.817,2.63,0,4.339.727,4.547,4.986,4.547a8.968,8.968,0,0,0,2.558-.425,2.234,2.234,0,0,0,1.681-1.837,1.6,1.6,0,0,0-.577-1.178,1.981,1.981,0,0,1-.427-1.122c-.184-1.419-.754-1.574-.991-1.574-.552,0-.647.384-.9,1.392-.386,1.407-.172,1.8-1.816,1.8-1,0-1.06-.393-1.06-2.747,0-1.487.012-1.487.736-1.487h5.357c.531,0,.638.054.718.383.086.43.14,5.167.14,7.135,0,8.227-.22,9.44-.288,9.618-.19.5-.446.54-1.674.54-.107,0-.422-.026-.751-.053-.389-.033-.795-.065-.944-.065-.676,0-.917.389-.917.721,0,.537.383.659,1.232.926,1.739.6,1.991.724,2.045,1.434.077.819.122,1.317,1.071,1.317a4.063,4.063,0,0,0,3.036-1.363c.775-1.047.879-2.65.879-8.464,0-.594-.047-2.333-.1-4.123-.05-1.89-.1-3.84-.1-4.55,0-2.009.166-2.208.736-2.579.635-.4.881-.736.881-1.2,0-1.009-3.2-3.007-3.677-3.007-.43,0-.6.217-1.294,1.116-.213.269-.243.3-.994.3h-5.779c.042-.033.083-.071.13-.109l.428-.374c2.962-2.615,2.974-2.618,3.523-2.781.448-.122,1.2-.324,1.2-1.1,0-.534-.433-.857-.86-1.092h5.852c1.19,0,2.22,0,2.22-1C512.728,471.929,510.092,469.451,509.13,469.451Zm-10.964,8.619c-.671.917-.905,1-1.81,1H491.94l.021-.038a3.761,3.761,0,0,0,.552-1.921c0-1.4-1.882-2.724-3.431-3.5H500.3c.112,0,.3,0,.342.107C500.642,473.728,500.607,474.787,498.167,478.07ZM501.6,498.2c0-.641-.053-3.475-.074-4.535l-.006-.392c0-.786.1-.855.2-.923.757-.635.988-.828.988-1.324,0-1.3-2.991-2.258-3.125-2.258-.27,0-.526.19-1.11.718-.083.075-.148.134-.193.169-.276.22-.436.259-1.062.259h-4.055a4.077,4.077,0,0,1-1.54-.247l-.54-.2a3.272,3.272,0,0,0-1.309-.341.637.637,0,0,0-.721.721c0,.038.018.35.039.783.044.932.119,2.44.119,2.844,0,.442-.018,1.668-.039,2.861-.018,1.149-.038,2.271-.038,2.656,0,.961.43,1.392,1.392,1.392a2.009,2.009,0,0,0,2.211-2.113c.054-.35.057-.371.588-.371h3.933c.579,0,.579.077.582.249.035.846.074,1.721,1.584,1.721C500.5,499.863,501.6,499.347,501.6,498.2Zm-4.27-2.256h-4.052c-.7,0-.7,0-.7-2.748,0-1.3.047-1.33.7-1.33h4.093c.659,0,.7,0,.7,1.763C498.067,495.94,498.013,495.94,497.328,495.94Zm47.535-24.391c0-.134-.11-1.327-.234-2.392-.012-.1-.092-.368-.175-.653a5.232,5.232,0,0,1-.261-1.092.848.848,0,0,1,.92-.8c.042,0,4.268.018,4.268,1.43,0,.241-.169.46-.487.861-.083.1-.163.2-.2.252a3.077,3.077,0,0,0-.145,1.371c0,1.606.012,1.606.739,1.606H555.2c1.819,0,1.825-.009,2.161-.481,1.015-1.4,1.2-1.65,1.781-1.65.769,0,3.912,2.315,3.912,3.087,0,1-.588,1-2.534,1H536.238c-.724,0-.778.039-.778,1.763,0,.585.03,2.188.06,3.749.029,1.481.059,2.927.059,3.425,0,6.286-1.315,11.011-4.152,15.555-1.864,2.793-2.5,2.906-2.87,2.906-.056,0-.564-.021-.564-.682a19.421,19.421,0,0,1,1.131-2.992c.359-.911.694-1.754.789-2.012,1.706-4.5,1.706-10.246,1.706-13.679a72.105,72.105,0,0,0-.547-9.035c-.012-.083-.068-.282-.13-.5a5.339,5.339,0,0,1-.231-1.027.755.755,0,0,1,.76-.8,10.635,10.635,0,0,1,2.167.739c.415.158.775.293.931.347a4.852,4.852,0,0,0,1.87.294h7.645C544.679,472.131,544.863,472.051,544.863,471.549Zm12.43,28.5c0-.127-.035-.961-.083-2.033-.083-1.914-.192-4.534-.192-5.259,0-.8,0-.8.107-.908.029-.029.088-.083.166-.151.736-.641,1.065-.988,1.065-1.345,0-.923-2.87-2.5-3.479-2.5-.3,0-.614.243-1.356.923-.1.092-.178.166-.2.181a1.613,1.613,0,0,1-.929.2h-3.221c-.712,0-.739-.184-.739-.973,0-2.76.013-4.638.086-4.885.08-.2.2-.305.653-.305h7.264c1.3,0,2.535,0,2.535-1.155,0-.964-3.093-3.125-3.915-3.125-.665,0-.828.24-1.893,1.8-.418.567-.418.567-2.048.567h-1.983c-.671,0-.7-.234-.7-.814a4.861,4.861,0,0,1,.22-2.152c.033-.054.116-.148.208-.262.415-.507.6-.757.6-1.015,0-1.229-4.149-1.707-4.19-1.707a.852.852,0,0,0-.879.879,9.882,9.882,0,0,0,.2,1.134,34.984,34.984,0,0,1,.309,5.328c0,.365-.018,1.431-.036,2.523-.021,1.151-.042,2.335-.042,2.76,0,1.3-.054,1.407-.739,1.407h-1.514a3.107,3.107,0,0,1-1.605-.418c-2.111-1.116-2.529-1.314-3.084-1.314a.692.692,0,0,0-.759.64c0,.2.071.8.237,1.953l.009.226c.044.831.107,2.086.107,3.733,0,.54-.045,2.077-.1,3.642-.047,1.63-.1,3.285-.1,3.888,0,.425,0,1.549,1.55,1.549a2.545,2.545,0,0,0,2.636-2.271c.074-.29.181-.409.674-.409H552.63c.532,0,.644.184.668.62.075.894.134,1.665,1.541,1.665A2.239,2.239,0,0,0,557.293,500.05Zm-4.766-1.588H542.164c-.715,0-.816-.086-.816-1.41,0-3.176.012-5.366.03-5.55.044-.22.125-.389.706-.389h10.4c.65,0,.7.029.7,1.288l.006,5.657C553.156,498.329,552.93,498.463,552.526,498.463Zm44.725-29.651-1.848,6.644h-.831l-1.539-5.748-1.531,5.748h-.831l-1.773-6.644h.887l.988,3.965.327,1.493.364-1.493,1.082-3.965h.98l1.074,3.965.354,1.5.355-1.5,1.054-3.965Zm5.965,6.009v.635h-.458c-.513,0-.793-.234-.83-.709a2.042,2.042,0,0,1-1.745.83c-.98,0-1.614-.513-1.614-1.4,0-.793.475-1.353,1.642-1.5l1.231-.158c.234-.028.345-.14.345-.365v-.2c0-.5-.336-.746-1.081-.746-.691,0-1.036.214-1.093.859h-.849c.084-1.064.765-1.568,2.006-1.568,1.195,0,1.885.485,1.885,1.539V474.4c0,.317.1.419.42.419Zm-1.428-1.053v-.673l-1.437.215c-.672.1-.932.4-.932.831,0,.494.363.775.923.775A1.353,1.353,0,0,0,601.788,473.767Zm5.464-3.247v.839c-.1-.009-.2-.009-.308-.009a1.427,1.427,0,0,0-1.381,1.474v2.632H604.7v-4.815h.8v.97a1.666,1.666,0,0,1,1.567-1.1A1.007,1.007,0,0,1,607.253,470.52Zm8.03,1.632v3.3h-.859v-3.295a.789.789,0,0,0-.83-.9c-.56,0-1.176.335-1.176,1.577v2.613h-.858v-3.295a.789.789,0,0,0-.83-.9c-.56,0-1.176.382-1.176,1.623v2.566H608.7v-4.815h.82l-.037.709a1.6,1.6,0,0,1,1.466-.83,1.316,1.316,0,0,1,1.334.839,1.629,1.629,0,0,1,1.53-.839C614.752,470.52,615.282,471.033,615.282,472.151Zm9.174-1.511v4.815h-.8v-.682a1.835,1.835,0,0,1-1.615.8,1.482,1.482,0,0,1-1.633-1.6v-3.34h.859v3.172c0,.663.307,1.018.961,1.018a1.322,1.322,0,0,0,1.372-1.512v-2.677Zm6.443,2.295c0,1.493-.8,2.622-2.108,2.622a1.756,1.756,0,0,1-1.428-.69v2.49h-.858v-6.717h.746v.774a1.734,1.734,0,0,1,1.577-.877A2.129,2.129,0,0,1,630.9,472.936Zm-.858,0c0-1.1-.5-1.661-1.334-1.661-.8,0-1.391.578-1.391,1.717s.589,1.828,1.391,1.828C629.538,474.82,630.042,474.056,630.042,472.936Zm-36.26,12.591h-3.611c.028,1.081.588,1.614,1.456,1.614a1.3,1.3,0,0,0,1.334-.962l.783.094a2.114,2.114,0,0,1-2.146,1.567,2.272,2.272,0,0,1-2.285-2.538,2.232,2.232,0,0,1,2.268-2.5,2.137,2.137,0,0,1,2.2,2.407Zm-3.6-.616h2.8c-.112-.914-.607-1.409-1.39-1.409A1.364,1.364,0,0,0,590.182,484.91Zm9.316-2-1.764,4.815h-.849l-1.847-4.815h.924l.96,2.781.4,1.3.392-1.3.914-2.781Zm5.726,2.613h-3.611c.027,1.081.588,1.614,1.456,1.614a1.3,1.3,0,0,0,1.335-.962l.783.094a2.115,2.115,0,0,1-2.146,1.567,2.272,2.272,0,0,1-2.285-2.538,2.232,2.232,0,0,1,2.268-2.5,2.138,2.138,0,0,1,2.2,2.407Zm-3.6-.616h2.8c-.111-.914-.606-1.409-1.39-1.409A1.364,1.364,0,0,0,601.623,484.91Zm7.917-2.118v.839c-.1-.009-.2-.009-.308-.009a1.427,1.427,0,0,0-1.381,1.475v2.631h-.858v-4.815h.8v.97a1.665,1.665,0,0,1,1.567-1.1A1.08,1.08,0,0,1,609.539,482.792Zm5.494.121-2.24,5.757a1.233,1.233,0,0,1-1.325.961h-.532v-.719h.448c.439,0,.606-.139.8-.643l.224-.588-1.94-4.768h.932l1.25,3.322.1.578,1.39-3.9Zm5.649-1.829v6.644h-.746v-.765a1.76,1.76,0,0,1-1.549.869c-1.307,0-2.1-1.092-2.1-2.585a2.169,2.169,0,0,1,2.08-2.436,1.763,1.763,0,0,1,1.456.682v-2.407Zm-.811,4.18c0-1.139-.578-1.717-1.382-1.717-.83,0-1.343.6-1.343,1.7,0,1.119.495,1.848,1.325,1.848C619.273,487.094,619.871,486.4,619.871,485.265Zm7.247,1.829v.634h-.458c-.513,0-.793-.234-.83-.709a2.04,2.04,0,0,1-1.744.83c-.98,0-1.614-.513-1.614-1.4,0-.793.475-1.352,1.641-1.5l1.232-.158c.234-.028.345-.141.345-.365v-.2c0-.5-.336-.746-1.082-.746-.69,0-1.036.215-1.092.858h-.849c.085-1.064.765-1.568,2.007-1.568,1.194,0,1.885.486,1.885,1.539v2.371c0,.317.1.42.42.42Zm-1.428-1.054v-.672l-1.437.214c-.672.1-.933.4-.933.831,0,.495.363.775.924.775A1.352,1.352,0,0,0,625.69,486.04Zm6.966-3.126-2.24,5.757a1.232,1.232,0,0,1-1.324.961h-.532v-.719h.447c.439,0,.607-.139.8-.643l.224-.588-1.941-4.768h.933l1.25,3.322.1.578,1.39-3.9Zm-41.709,12.966v.541l1.1-.037v.662l-1.1-.037v4.19h-.859v-4.19l-.775.037v-.662l.775.028V496c0-1.008.439-1.445,1.446-1.445h.513v.718h-.495C591.1,495.273,590.947,495.422,590.947,495.879Zm5.186.383v.84a3.045,3.045,0,0,0-.308-.01,1.428,1.428,0,0,0-1.381,1.475V501.2h-.859v-4.815h.8v.971a1.667,1.667,0,0,1,1.567-1.1A1.074,1.074,0,0,1,596.133,496.262Zm1.163,2.528a2.3,2.3,0,0,1,2.342-2.528,2.265,2.265,0,0,1,2.295,2.491,2.354,2.354,0,0,1-2.323,2.566A2.3,2.3,0,0,1,597.3,498.79Zm3.778-.037c0-1.091-.531-1.772-1.464-1.772-.914,0-1.456.718-1.456,1.809s.55,1.81,1.456,1.81C600.543,500.6,601.074,499.845,601.074,498.753Zm9.215-.859v3.3h-.859V497.9a.79.79,0,0,0-.83-.9c-.56,0-1.176.336-1.176,1.577V501.2h-.859V497.9a.789.789,0,0,0-.83-.9c-.561,0-1.177.383-1.177,1.624V501.2H603.7v-4.815h.821l-.036.709a1.6,1.6,0,0,1,1.465-.83,1.313,1.313,0,0,1,1.334.84,1.63,1.63,0,0,1,1.531-.84C609.757,496.262,610.289,496.775,610.289,497.894Zm3.2-2.407q0-1.007.924-1.007h.093v.466h-.093a.391.391,0,0,0-.439.439v.475l.542-.046v.933h-1.027Zm1.651,0q0-1.007.924-1.007h.093v.466h-.093a.39.39,0,0,0-.438.439v.475l.541-.046v.933h-1.027Zm2.441,3.275a2.3,2.3,0,0,1,2.342-2.529,2.266,2.266,0,0,1,2.3,2.491,2.355,2.355,0,0,1-2.324,2.566A2.3,2.3,0,0,1,617.577,498.762Zm3.779-.037c0-1.091-.532-1.772-1.465-1.772-.914,0-1.456.718-1.456,1.81s.55,1.81,1.456,1.81C620.825,500.573,621.356,499.817,621.356,498.725Zm3.887-2.873v.54l1.1-.037v.662l-1.1-.037v4.19h-.859v-4.19l-.775.037v-.662l.775.028v-.41c0-1.008.439-1.446,1.446-1.446h.513v.718h-.494C625.392,495.245,625.243,495.394,625.243,495.852Zm3.9,0v.54l1.1-.037v.662l-1.1-.037v4.19h-.859v-4.19l-.775.037v-.662l.775.028v-.41c0-1.008.439-1.446,1.446-1.446h.513v.718h-.494C629.289,495.245,629.14,495.394,629.14,495.852Zm6.689.5v4.815h-.8v-.682a1.833,1.833,0,0,1-1.614.8,1.482,1.482,0,0,1-1.633-1.6v-3.341h.859v3.173c0,.661.308,1.017.961,1.017a1.323,1.323,0,0,0,1.372-1.512v-2.678Zm2.047-1.828h.859v6.644h-.859Zm2.91,0h.859v6.644h-.859Zm2.629,4.236a2.3,2.3,0,0,1,2.342-2.529,2.265,2.265,0,0,1,2.3,2.491,2.355,2.355,0,0,1-2.323,2.566A2.3,2.3,0,0,1,643.414,498.762Zm3.779-.037c0-1.091-.532-1.772-1.464-1.772-.915,0-1.456.718-1.456,1.81s.55,1.81,1.456,1.81C646.661,500.573,647.193,499.817,647.193,498.725Zm2.282-2.4h.093a.39.39,0,0,0,.439-.439v-.477l-.541.047v-.933h1.026v1.259q0,1.007-.924,1.008h-.093Zm1.652,0h.093a.39.39,0,0,0,.438-.439v-.477l-.541.047v-.933h1.027v1.259q0,1.007-.924,1.008h-.093Zm-210.958-10.26a19.556,19.556,0,0,1,2.473-1.3,1.632,1.632,0,0,0,1.045-2.145,48.418,48.418,0,0,1-1.56-13.871,1.77,1.77,0,0,1,1.88-1.751c1.148,0,2,.563,2.037,1.7.135,3.771.325,9.176,1.518,12.8a1.645,1.645,0,0,0,2.069,1.28,39.253,39.253,0,0,1,4.374-.558,1.94,1.94,0,0,1,2.275,1.788,1.835,1.835,0,0,1-1.872,2.115c-2.831.234-8.189.909-12.237,3.314-2.137,1.267-3.437,3.607-3.09,5.564.38,2.137,2.6,2.985,4.4,3.319a31.436,31.436,0,0,0,14.767-1.553,1.742,1.742,0,0,1,2.507,1.139,1.992,1.992,0,0,1-1.121,2.527,34.734,34.734,0,0,1-12.375,2.1,25.166,25.166,0,0,1-4.495-.365c-4.2-.782-6.947-3.146-7.539-6.487C434.59,492.128,436.624,488.173,440.169,486.067ZM322.176,499.826Zm2.635-.6a1.853,1.853,0,0,1-2.472-1.242,6.839,6.839,0,0,0-2.625-4.142,1.985,1.985,0,0,1-.444-2.634,1.922,1.922,0,0,1,2.605-.7,10.064,10.064,0,0,1,4.309,6.369A1.978,1.978,0,0,1,324.811,499.228Zm23.985.35a1.951,1.951,0,0,1,2.367-1.113,16.143,16.143,0,0,0,5.509.6c3.094-.319,5.561-1.739,6.6-3.8a4.5,4.5,0,0,0-.2-4.433c-1.755-2.986-6.172-4.038-11.246-2.687a15.052,15.052,0,0,0-4.933,2.275,2.236,2.236,0,0,1-2.989-.317,1.853,1.853,0,0,1,.1-2.745c5.865-4.9,7.772-9.232,9.926-12.976.692-1.2.814-2.538-1.115-2.635-.609-.03-1.459-.073-2.053-.106-1.059-.058-2.007-.515-1.907-1.989a1.834,1.834,0,0,1,2.122-1.93,21.935,21.935,0,0,0,7.166-.231,2.487,2.487,0,0,1,2.7.991,2.764,2.764,0,0,1,.292,3.129c-.366.58-1.606,1.747-2.466,2.857a63.213,63.213,0,0,0-4.06,6.489c-.81,1.4-.56,2.693,1.373,2.693,4.714,0,8.524,1.886,10.47,5.192a8.408,8.408,0,0,1,.318,8.188c-1.646,3.256-5.27,5.471-9.7,5.929a17.328,17.328,0,0,1-1.755.09,15.642,15.642,0,0,1-5.6-.945A1.809,1.809,0,0,1,348.8,499.578Zm43.994-7.9a19.8,19.8,0,0,1,.513-2.48,1.574,1.574,0,0,0-.939-2.179,7.908,7.908,0,0,1-3.08-2.2,5.406,5.406,0,0,1-.661-4.9,1.7,1.7,0,0,1,2.509-1,2.122,2.122,0,0,1,1.31,2.362,2.155,2.155,0,0,0,2.352,2.078,1.907,1.907,0,0,0,1.379-1.244,31.5,31.5,0,0,0,1.14-3.163,1.924,1.924,0,0,0-.874-2.208,19.654,19.654,0,0,1-4.272-3.163,1.661,1.661,0,0,1,.246-2.549,1.892,1.892,0,0,1,2.719-.024,5.757,5.757,0,0,0,.667.55c1.416,1.029,2.791,1.208,3.1-1.317.075-.609.051-1.335.137-1.9a1.734,1.734,0,0,1,1.946-1.614,1.756,1.756,0,0,1,1.99,1.856,47.718,47.718,0,0,1-1.4,9.576,38.311,38.311,0,0,1-1.461,4.662c-.8,2.168.547,2.407,1.605,2.584a1.834,1.834,0,0,1,1.482,2.181c-.1,1.113-.748,1.755-1.62,1.766a19.059,19.059,0,0,1-2.421-.262c-1.269-.142-1.8.2-2.136,1.362a11.894,11.894,0,0,0-.349,1.747c-.276,2.035.252,5.755,3.988,6.783a7.355,7.355,0,0,0,8.865-3.554c1.536-3.081.2-6.207-.79-7.759a1.98,1.98,0,0,1,3.229-2.219,11.64,11.64,0,0,1,1.068,11.728,10.988,10.988,0,0,1-9.9,6.076,13.327,13.327,0,0,1-3.515-.492C394.1,501.243,392.212,495.949,392.79,491.675Zm-95.372-.231a1.923,1.923,0,0,1-.142,2.8,11.719,11.719,0,0,0-2.788,3.639,1.984,1.984,0,0,1-2.56.871,1.829,1.829,0,0,1-1.085-2.365,10.349,10.349,0,0,1,4.055-5.3A1.887,1.887,0,0,1,297.418,491.443Zm1.4,2.619h0Zm2.358,4.343a1.972,1.972,0,0,1,2.678-.238,4.524,4.524,0,0,0,3.151.921c2.436-.373,3.947-2.271,4.064-4.936.108-2.513-1.265-4.6-4.918-7.481a8.726,8.726,0,0,1-3.526-5.863,6.747,6.747,0,0,1,1.415-5.138,7.3,7.3,0,0,1,.76-.816,1.713,1.713,0,0,0,.55-1.253,1.608,1.608,0,0,0-.519-1.2,12.8,12.8,0,0,1-1.942-2.174,1.689,1.689,0,0,1,.559-2.419,1.954,1.954,0,0,1,2.745.314,11.314,11.314,0,0,0,5.506,4.056A1.965,1.965,0,0,1,313,474.521a2.233,2.233,0,0,1-2.074,1.921,5.36,5.36,0,0,0-3.822,1.678,2.788,2.788,0,0,0-.589,2.185,4.686,4.686,0,0,0,1.976,3.221c3.248,2.431,6.716,5.741,6.5,10.8a8.753,8.753,0,0,1-7.3,8.626,7.718,7.718,0,0,1-1.314.114,7.1,7.1,0,0,1-5.311-2.133A1.7,1.7,0,0,1,301.177,498.405Zm1.711-1.133Zm-95.617,4.421c-.954,1.086-2.849.734-4.3-.1a16.683,16.683,0,0,1-5.8-6.129,7.715,7.715,0,0,1,1.164-9.214c2.2-2.353,4.271-4.576,4.588-9.071s2.7-5.03,4.462-5.03c2.843,0,4.482,1.712,4.616,4.823a12.757,12.757,0,0,1-1.168,6.547,28.67,28.67,0,0,1-1.425,2.6,14.461,14.461,0,0,0-1.757,3.662,4.027,4.027,0,0,0,.484,3.282,7.055,7.055,0,0,0,3.76,2.561C211.338,496.4,208.532,500.259,207.271,501.694Zm59.623-6.342c-.535.715-3.5,4.669-4.7,6.078-.957,1.119-2.247,1.244-3.837.367-1.447-.8-5.849-3.225-6.166-18.857-.03-1.5-.008-4.481.05-5.316.273-3.931,1.7-5.485,4.595-5.485,2.049,0,4.774.651,4.774,6.286C261.606,490.416,264.862,494.176,266.894,495.352ZM237.5,500.7c-4.466,3.894-11.6,3.987-15.347,1.7-2.344-1.431-2.507-3.607-1.8-5.645a3.94,3.94,0,0,1,4.542-2.628c1.785.24,4.325,1.022,6.641-1.57a8.218,8.218,0,0,0,1.778-6.112c-.217-3.694-1.794-6.7-7.03-11.8a11.442,11.442,0,0,1-3.883-8.013,19.037,19.037,0,0,1,.074-4.038l.009-.086c.179-1.73,1.045-2.435,2.986-2.435,1.16,0,5.151.071,5.938.086-.736,6.248.427,7.1,4.507,11.209,3.462,3.488,6.543,8.15,7.043,13.889C243.522,491.757,241.635,497.1,237.5,500.7Zm-4.142-42.2c.451-2.767-1.049-4.812-4.239-5.769a7.262,7.262,0,0,1-5.386-7.3c.009-3.642,1.5-5.337,4.683-5.337,2.364,0,3.936,1.116,4.312,3.065a5.077,5.077,0,0,0,2.067,3.2,29.666,29.666,0,0,0,3.74,2.155,5.827,5.827,0,0,1,3.335,4.986,4.647,4.647,0,0,1-4.925,4.994Zm69.667-15.528c-.092.393-.547.8-.931.71a2.7,2.7,0,0,0-.505-.127c-.207-.019-.293,0-.344-.009a.257.257,0,0,1-.194-.317.357.357,0,0,1,.08-.14l.027-.042a.616.616,0,0,0,.067-.134.437.437,0,0,0-.318-.6,1.629,1.629,0,0,0-.585.057.468.468,0,0,1-.219.006.237.237,0,0,1-.184-.3,1.894,1.894,0,0,1,1.841-.625A1.379,1.379,0,0,1,303.026,442.974Zm-3.145,1.938a5.484,5.484,0,0,0-2.024.549c-.084.031-.3.12-.54.215-.221.089-.529.214-.67.275v-.013c0-.117,0-1.366.025-1.651a2.047,2.047,0,0,1,.042-.392.217.217,0,0,1,.057-.025l.054-.022a5.15,5.15,0,0,0,1.105-.6.506.506,0,0,0,.07-.815.831.831,0,0,0-.676-.224l-.057.019a.269.269,0,0,0-.163.228c0,.053-.187.211-.252.24.015-.186.074-.482.1-.634.012-.06.021-.105.019-.105.01-.031.043-.1.083-.185a1.727,1.727,0,0,0,.206-.565,1.514,1.514,0,0,0-1.576-1.107c-.243,0-.49.106-.49.342,0,.085.033.141.241.349a1.124,1.124,0,0,1,.387.937c0,.167-.059,1.127-.092,1.324a6.462,6.462,0,0,1-1.549.345,3.973,3.973,0,0,1-.6-.066.675.675,0,0,1-.085-.021.73.73,0,0,0-.171-.034.286.286,0,0,0-.3.289,1.523,1.523,0,0,0,1.16,1,2.473,2.473,0,0,0,.873-.218l.142-.047c.076-.026.428-.11.517-.125a.258.258,0,0,1,.029.125c.012.22.025,1.567.025,1.879,0,.254,0,.254-.654.576a2.718,2.718,0,0,1-1.306.435c-.04,0-.145-.016-.25-.032-.129-.019-.258-.036-.3-.036a.667.667,0,0,0-.585.719c0,.56.783,1.04,1.027,1.04a1.112,1.112,0,0,0,.483-.222,1.112,1.112,0,0,1,.12-.067.84.84,0,0,1,.242-.059h.054c.04.016.148.152.442.721a.892.892,0,0,0,.79.6c.7,0,.88-1.109.88-1.7,0-.067-.011-.248-.021-.435s-.02-.376-.02-.449c0-.1,0-.109.728-.5,1.672-.886,2.111-.981,2.36-.981a1.192,1.192,0,0,1,1.091,1.278,1.491,1.491,0,0,1-1.24,1.381c-.447.045-.677-.15-.677-.448a.393.393,0,0,1,.1-.266.335.335,0,0,0,.077-.2.267.267,0,0,0-.262-.262,1.333,1.333,0,0,0-.866,1.254c0,.766.634,1.28,1.576,1.28a2.707,2.707,0,0,0,2.584-2.683A2.246,2.246,0,0,0,299.881,444.912Zm-4.148,2.815a1.336,1.336,0,0,1-.175.764.887.887,0,0,1-.368-.41A2.61,2.61,0,0,1,295.733,447.727Zm20.938-1.9a12.438,12.438,0,0,0-1.325-.044.558.558,0,0,1-.4-.137c-1.084-.99-1.191-1.445-1.129-1.879a1.587,1.587,0,0,1,1.358-1.065c.558-.036,1.04-.07,1.04-.7,0-.817-.85-1.227-1.473-1.526l-.047-.026c-.871-.471-.905-.467-1.038-.432a.251.251,0,0,0-.165.23,4.887,4.887,0,0,0,.44.825c.283.394.283.412.283.515,0,.272-.161.5-.551,1.067l-.095.14a2.4,2.4,0,0,0-.412,1.112,3.2,3.2,0,0,0,.363,1.466l.051.087c.078.133.295.5.359.624-.023.012-.055.026-.088.04a5.028,5.028,0,0,0-1.213.651c-.425.29-1.4,1.213-2.091,1.213-.038,0-.139-.016-.239-.032-.126-.019-.252-.036-.3-.036-.283,0-.451.295-.451.785a1.064,1.064,0,0,0,1.054,1.067c.533,0,.693-.2,1.293-.934.076-.1.158-.192.217-.193.119.015.264.415.77.762a2.47,2.47,0,0,0,1.484.566,1.613,1.613,0,0,0,1.7-1.71,3.424,3.424,0,0,0-.571-1.91,3.825,3.825,0,0,1,1.2.28c.988.424.942,1.3,1.1,1.817s.463,1.053.953,1.053a.908.908,0,0,0,.918-.807C319.834,447.818,319.266,446.164,316.671,445.826Zm-2.084,1.788a.915.915,0,0,1-1.011.984,1.928,1.928,0,0,1-1.088-.542c.4-.442,1.189-1.441,1.645-1.479A2.756,2.756,0,0,1,314.587,447.613Zm20.868-.765c0,3.477-4.773,3.929-5.677,3.532-.337-.147-.265-.608.249-.594.633.018,3.843-.58,3.843-2.956a1.818,1.818,0,0,0-1.734-1.81,3.423,3.423,0,0,0-2.9,1.405c-.568.847-.7,1.212-1.2,1.212a.676.676,0,0,1-.692-.772c0-.566.235-.821.749-1.376a17.11,17.11,0,0,0,3.191-4.363c-.974.135-1.459.568-1.848.554a.849.849,0,0,1-.616-.3,1.363,1.363,0,0,1-.424-.77c-.015-.158.14-.276.33-.276.031,0,.16.01.3.023a5.152,5.152,0,0,0,1.323-.04,12.175,12.175,0,0,1,1.49-.394,1.1,1.1,0,0,1,1.2.96c0,.588-.391.91-.982,1.4a21.35,21.35,0,0,0-2.127,2.287c.047-.022.092-.042.123-.058.085-.04.155-.071.188-.084a6.175,6.175,0,0,1,2.12-.429A3.016,3.016,0,0,1,335.456,446.849Zm16.387,2.721c0,.823-2.709.946-4.069.946-1.828,0-2.756-.773-2.756-2.3a3.229,3.229,0,0,1,1.08-2.312l0,0c.252-.234.512-.479.512-.58-.006-.033-.084-.289-.1-.341a4.5,4.5,0,0,1-.243-1.643c0-.151.016-.6.033-1.053.017-.482.034-.981.034-1.159a1.349,1.349,0,0,0-.408-1.014c-.161-.21-.315-.331-.315-.446,0-.182.172-.263.558-.263.846,0,1.63.677,1.642,1.2a2.306,2.306,0,0,1-.137.666,10.9,10.9,0,0,0-.38,2.143c0,1.114.106,1.359.171,1.4a19.078,19.078,0,0,1,1.773-.908,5.434,5.434,0,0,1,1.715-.544.709.709,0,0,1,.7.692c0,.535-.61,1-1.156,1.093-3.248.531-4.446,2.175-4.446,2.972,0,.26,0,1.051,1.668,1.051a10.287,10.287,0,0,0,1.987-.234,3.81,3.81,0,0,1,1.057-.209A1.009,1.009,0,0,1,351.843,449.57Zm14.5-6.733c-1.734,1.506-3.11,2.268-3.142,2.554,0,.141.164.311.56.633.9.731,3.594,2.474,3.8,3.852a1,1,0,0,1-.845,1.107c-1.255.181-1.339-1.334-1.834-2.129a9.181,9.181,0,0,0-2.37-2.352c-.53-.45-.7-.717-.588-1.141.1-.4,1.362-1.248,2.441-2.327,1.272-1.272,1.54-2,1.54-2.431a1.085,1.085,0,0,0-.3-.663.354.354,0,0,1-.047-.383c.057-.116.2-.116.258-.116.38,0,1.844.716,1.844,1.376C367.661,441.373,367.487,441.841,366.34,442.837Zm19.75,4.988c0,1.744-2.53,2.916-4.592,2.916-.209,0-.558,0-.558-.3,0-.206.231-.268.475-.334l.054-.015c1.651-.37,3.118-1.4,3.118-2.507a1.361,1.361,0,0,0-1.359-1.41,2.426,2.426,0,0,0-1.837,1.038l-.058.083c-.583.824-.78,1.1-1.322,1.1-.715,0-1.214-.77-1.214-1.872,0-.38.137-1.547.246-2.486.056-.479.1-.883.116-1.053a1.845,1.845,0,0,1,1.341-1.773c.781-.321.949-.412.949-.65,0-.195-.308-.52-.437-.712-.047-.089-.143-.276,0-.418.1-.087.219-.1.574.064.549.255,1.72,1.077,1.72,1.735a.853.853,0,0,1-.879.839,2.5,2.5,0,0,1-.856-.241,1.66,1.66,0,0,0-.565-.122c-.437,0-.7.15-.748.588a1.629,1.629,0,0,0,.038.484,4.184,4.184,0,0,1-.068,1.265c-.021.13-.038.241-.047.3-.069.515-.172,1.286-.172,1.6,0,.421.112.421.154.421a1.872,1.872,0,0,0,.768-.268,5.052,5.052,0,0,1,2.715-.717A2.458,2.458,0,0,1,386.09,447.825Zm17.483.321c0,.364-2.187,2.5-4.7,2.5-1.915,0-2.769-1.2-2.769-3.895a30.628,30.628,0,0,1,.309-3.748c.057-.466.173-1.538.173-1.895a1.5,1.5,0,0,0-.1-.581c-.012-.033-.038-.1-.066-.161-.095-.224-.1-.229-.1-.276a.352.352,0,0,1,.384-.33c.85,0,1.482,1.217,1.482,1.589a2.109,2.109,0,0,1-.188.6c-.036.089-.066.165-.074.2a31.963,31.963,0,0,0-.449,4.616c0,1.459.311,2.363,1.855,2.363a6.42,6.42,0,0,0,2.625-.569c.079-.036.285-.148.508-.266.766-.41.779-.41.847-.41A.256.256,0,0,1,403.573,448.147Z" transform="translate(-196.144 -439.37)" fill="#fff"/></svg>