<svg xmlns="http://www.w3.org/2000/svg" width="117.843" height="139.069" viewBox="0 0 117.843 139.069">
  <g id="グループ_559" data-name="グループ 559" transform="translate(-1207 -2727)">
    <path id="パス_2306" data-name="パス 2306" d="M37.8,33.846l-.816,6.623a.894.894,0,0,0,.782,1l78.8,9.651a.894.894,0,0,0,1-.779l.814-6.622a.9.9,0,0,0-.78-1L38.8,33.068A.9.9,0,0,0,37.8,33.846Z" transform="translate(1206.462 2726.413)" fill="#fff"/>
    <path id="パス_2307" data-name="パス 2307" d="M1.586,49.657.858,50.905a26.028,26.028,0,0,1,3.309,2.286l.911-1.121A27.344,27.344,0,0,0,1.586,49.657Z" transform="translate(1206.983 2726.109)" fill="#fff"/>
    <path id="パス_2308" data-name="パス 2308" d="M.195,56.074a26.264,26.264,0,0,1,3.616,2.38l.894-1.134A27.205,27.205,0,0,0,.889,54.807Z" transform="translate(1206.996 2726.017)" fill="#fff"/>
    <path id="長方形_282" data-name="長方形 282" d="M.912,0H44.888A.914.914,0,0,1,45.8.914V7.549a.912.912,0,0,1-.912.912H.914A.914.914,0,0,1,0,7.547V.912A.912.912,0,0,1,.912,0Z" transform="translate(1243.246 2727.723)" fill="#fff"/>
    <path id="パス_2309" data-name="パス 2309" d="M0,37.009l1.171.85.185-.26a18.665,18.665,0,0,0,1.9-3.382v8.459H4.7V32.708L6.97,36.551l1.245-.729L4.7,29.862v-.889H7.956V27.532H4.7V24.644H3.254v2.888H0v1.441H3.2A17.117,17.117,0,0,1,.175,36.766C.117,36.849.058,36.929,0,37.009Z" transform="translate(1207 2726.563)" fill="#fff"/>
    <path id="パス_2310" data-name="パス 2310" d="M7.968,130.244,6.7,129.289l-.045.058c-.047.064-1.168,1.56-1.837,2.667-.085.14-.176.3-.274.469a12.6,12.6,0,0,1-.072-1.341v-7.917H2.876v7.917a14.391,14.391,0,0,0,.548,3.934l.017.058,1.621-.221.02-.036c.3-.6.726-1.438,1.09-2.042.633-1.046,1.74-2.521,1.752-2.535Z" transform="translate(1206.944 2724.813)" fill="#fff"/>
    <path id="パス_2311" data-name="パス 2311" d="M9.845,103.612v-1.587H6.087l1.06-2.9L5.653,98.58l-1.259,3.445H.663v1.587H3.812l-3.282,8.98,1.494.541,3.481-9.521Z" transform="translate(1206.99 2725.245)" fill="#fff"/>
    <path id="パス_2312" data-name="パス 2312" d="M2.436,87.715a3.877,3.877,0,0,0,2.539,3.649,13.922,13.922,0,0,0,5.737.958,46.455,46.455,0,0,0,6.074-.37l.072-.009-.219-1.571-.069.009a44.587,44.587,0,0,1-5.858.353,12.527,12.527,0,0,1-5.067-.806,2.347,2.347,0,0,1-1.621-2.214A3.6,3.6,0,0,1,5.607,85.1a16.153,16.153,0,0,1,3.918-2.256A38.783,38.783,0,0,1,15.4,80.916l.069-.016-.354-1.546-.069.017a39.1,39.1,0,0,0-6.135,2.015c-.269.114-.534.234-.794.354L6.808,74.313l-1.57.276,1.4,7.91C3.847,84.072,2.436,85.824,2.436,87.715Z" transform="translate(1206.952 2725.681)" fill="#fff"/>
    <path id="パス_2313" data-name="パス 2313" d="M4.234,62.718c.172-.4.327-.809.468-1.217l-1.37-.47q-.2.568-.428,1.127A17.252,17.252,0,0,1,0,66.786l1.09.946A18.544,18.544,0,0,0,4.234,62.718Z" transform="translate(1207 2725.908)" fill="#fff"/>
    <path id="パス_2314" data-name="パス 2314" d="M6.638,56.871H16.761V49.657H6.638ZM8.085,51.1h7.23v1.443H8.085Zm0,2.885h7.23v1.441H8.085Z" transform="translate(1206.87 2726.111)" fill="#fff"/>
    <path id="パス_2315" data-name="パス 2315" d="M16.934,14.331l1.4-.373A36.4,36.4,0,0,0,16.661,9.1a36.432,36.432,0,0,0-2.39-4.682l-1.24.745a35.251,35.251,0,0,1,2.3,4.5A34.931,34.931,0,0,1,16.934,14.331Z" transform="translate(1206.746 2726.914)" fill="#fff"/>
    <path id="パス_2316" data-name="パス 2316" d="M17.082,35.371a17.35,17.35,0,0,1-3.3,3.357,17.151,17.151,0,0,1-4.527,2.529c-.241.091-.487.179-.733.26l.448,1.369c.269-.085.531-.177.794-.278a18.733,18.733,0,0,0,4.906-2.739,19.054,19.054,0,0,0,3.57-3.636Z" transform="translate(1206.834 2726.367)" fill="#fff"/>
    <path id="パス_2317" data-name="パス 2317" d="M3.791,9.842A36.276,36.276,0,0,0,5.515,4.777l-1.4-.362A35.037,35.037,0,0,1,2.46,9.281,34.6,34.6,0,0,1,0,14.041l1.234.757A37.181,37.181,0,0,0,3.791,9.842Z" transform="translate(1207 2726.914)" fill="#fff"/>
    <path id="パス_2318" data-name="パス 2318" d="M5.532,18.032H7.7a2.167,2.167,0,0,0,2.17-2.162V0H8.426V15.87a.726.726,0,0,1-.726.721H5.532Z" transform="translate(1206.892 2727)" fill="#fff"/>
    <path id="パス_2319" data-name="パス 2319" d="M9.36,36.765a18.806,18.806,0,0,0,7.6-5.295l-1.093-.939a17.481,17.481,0,0,1-7.012,4.884Z" transform="translate(1206.828 2726.453)" fill="#fff"/>
    <path id="パス_2320" data-name="パス 2320" d="M16.956,25.588l-1.093-.944a17.442,17.442,0,0,1-7.012,4.887l.509,1.352a18.96,18.96,0,0,0,7.6-5.295Z" transform="translate(1206.828 2726.559)" fill="#fff"/>
    <path id="パス_2321" data-name="パス 2321" d="M118.255,117.828a1.828,1.828,0,1,1-3.655,0v-4.563h-1.447v4.751a3.281,3.281,0,0,0,6.547,0v-4.751h-1.444Z" transform="translate(1204.977 2725.007)" fill="#fff"/>
    <path id="パス_2322" data-name="パス 2322" d="M88.87,120.2v-2.9H87.434v2.156a2.552,2.552,0,1,1-1.045-4.883,2.643,2.643,0,0,1,1.482.455l.988-.982a3.873,3.873,0,0,0-2.471-.873,3.951,3.951,0,1,0,0,7.9A4.01,4.01,0,0,0,88.87,120.2Z" transform="translate(1205.526 2725.009)" fill="#fff"/>
    <path id="パス_2323" data-name="パス 2323" d="M65.282,138.376l-3.528-5.455H60.1v7.7h1.433v-5.466l3.531,5.466h1.655v-7.7H65.282Z" transform="translate(1205.925 2724.624)" fill="#fff"/>
    <path id="パス_2324" data-name="パス 2324" d="M15.745,123.224H14.153v8.243c0,.044.086,4.16-2.228,6.529a5.843,5.843,0,0,1-4.366,1.673H7.487v1.587H7.56a7.38,7.38,0,0,0,5.512-2.159,9.556,9.556,0,0,0,2.366-4.767,13.389,13.389,0,0,0,.307-2.893Z" transform="translate(1206.854 2724.813)" fill="#fff"/>
    <path id="パス_2325" data-name="パス 2325" d="M89.162,135.253a2.18,2.18,0,0,0-2.41-2.341l-2.87,0v7.717H85.3v-3.035h.548l1.979,3.035h1.68l-2.045-3.117A2.122,2.122,0,0,0,89.162,135.253Zm-3.846.949v-1.9H86.7a.979.979,0,0,1,1.028.953.925.925,0,0,1-1.038.949Z" transform="translate(1205.499 2724.624)" fill="#fff"/>
    <path id="パス_2326" data-name="パス 2326" d="M74.661,132.921l-3.019,7.7h1.509l.7-1.778H77l.7,1.778H79.2l-3.019-7.7Zm-.249,4.5,1.016-2.742,1.005,2.742Z" transform="translate(1205.719 2724.624)" fill="#fff"/>
    <path id="パス_2327" data-name="パス 2327" d="M116.561,70.6l-78.8,9.654a.9.9,0,0,0-.782,1l.816,6.62a.893.893,0,0,0,1,.779L117.594,79a.892.892,0,0,0,.78-1l-.814-6.626A.9.9,0,0,0,116.561,70.6Z" transform="translate(1206.462 2725.747)" fill="#fff"/>
    <rect id="長方形_283" data-name="長方形 283" width="1.433" height="7.705" transform="translate(1300.152 2857.545)" fill="#fff"/>
    <path id="パス_2328" data-name="パス 2328" d="M104.82,116.52l-1.862-3.255h-1.564l2.7,4.643v3.059h1.433V117.9l2.712-4.632h-1.561Z" transform="translate(1205.205 2725.007)" fill="#fff"/>
    <rect id="長方形_284" data-name="長方形 284" width="1.433" height="7.702" transform="translate(1300.152 2838.272)" fill="#fff"/>
    <path id="パス_2329" data-name="パス 2329" d="M77.151,118.016v-4.751H75.707v4.563a1.829,1.829,0,1,1-3.658,0v-4.563H70.6v4.751a3.282,3.282,0,0,0,6.547,0Z" transform="translate(1205.737 2725.007)" fill="#fff"/>
    <path id="パス_2330" data-name="パス 2330" d="M36.873,134.257l2.435,0v6.371h1.433v-6.374l2.435-.006v-1.325h-6.3Z" transform="translate(1206.34 2724.624)" fill="#fff"/>
    <path id="パス_2331" data-name="パス 2331" d="M5.148,59.927H7.835a17.583,17.583,0,0,1-1.8,2.109,18.091,18.091,0,0,1-1.422,1.273l.9,1.127a19.521,19.521,0,0,0,1.543-1.381c.08-.082.161-.16.238-.242H9.241c-.365.436-.753.855-1.159,1.261a20.324,20.324,0,0,1-3.169,2.582l.794,1.206A21.7,21.7,0,0,0,9.1,65.1a21.881,21.881,0,0,0,1.989-2.283h1.783a23.116,23.116,0,0,1-2.751,3.3c-.232.234-.473.461-.714.684l.978,1.063c.257-.237.512-.478.761-.726A24.623,24.623,0,0,0,14.6,62.813h2.12v0c0,.944-.235,2.694-.891,3.351a.771.771,0,0,1-.578.249H13.467v1.443h1.785a2.232,2.232,0,0,0,1.605-.677c1.286-1.288,1.312-4.052,1.312-4.372V61.369H8.555a17.187,17.187,0,0,0,1.03-1.441H18.17V58.484H5.148Z" transform="translate(1206.91 2725.955)" fill="#fff"/>
    <path id="パス_2332" data-name="パス 2332" d="M62.493,119.707a2.389,2.389,0,0,1-1.705-.847l-.864,1.018a3.821,3.821,0,0,0,2.569,1.18,2.311,2.311,0,0,0,2.5-2.287,2.365,2.365,0,0,0-1.774-2.238l-.623-.207c-.626-.213-.96-.423-.96-.922a.872.872,0,0,1,.855-.873,1.691,1.691,0,0,1,1.181.525l.861-.967a3.041,3.041,0,0,0-2.042-.925,2.165,2.165,0,0,0-.559,4.288l.62.225c.523.177,1.046.494,1.046,1.093A1.02,1.02,0,0,1,62.493,119.707Z" transform="translate(1205.927 2725.009)" fill="#fff"/>
    <path id="パス_2333" data-name="パス 2333" d="M13.741,110.818V105.01h-1.59v5.326a10.189,10.189,0,0,0-2.17-.243c-.182,0-.307,0-.363.008a5.827,5.827,0,0,0-1.868.373,3.075,3.075,0,0,0-2.108,2.968,2.922,2.922,0,0,0,.869,2.167,4.877,4.877,0,0,0,3.133,1.13h.011A4.2,4.2,0,0,0,12.8,115.6a3.453,3.453,0,0,0,.937-2.372v-.679a7.966,7.966,0,0,1,2.742,2.173l.047.055,1.234-1-.044-.058A9.785,9.785,0,0,0,13.741,110.818Zm-1.59,2.416,0,.011,0,.023a1.918,1.918,0,0,1-.507,1.242,2.707,2.707,0,0,1-1.992.64h-.02a3.255,3.255,0,0,1-2.006-.674,1.375,1.375,0,0,1-.393-1.035,1.476,1.476,0,0,1,1.077-1.48,4.168,4.168,0,0,1,1.342-.274h.027l.033,0c.006,0,.1,0,.263,0a8.9,8.9,0,0,1,2.134.276c.014,0,.027.009.042.011Z" transform="translate(1206.89 2725.127)" fill="#fff"/>
    <path id="パス_2334" data-name="パス 2334" d="M12,102.162l5.523,3.136.789-1.378-5.526-3.139Z" transform="translate(1206.766 2725.193)" fill="#fff"/>
    <path id="パス_2335" data-name="パス 2335" d="M51.181,113.164a3.951,3.951,0,1,0,3.991,3.95A3.965,3.965,0,0,0,51.181,113.164Zm0,6.5a2.551,2.551,0,1,1,2.557-2.551A2.535,2.535,0,0,1,51.181,119.666Z" transform="translate(1206.157 2725.009)" fill="#fff"/>
    <path id="パス_2336" data-name="パス 2336" d="M42.756,113.265H41.1l-2.781,3.18v-3.18H36.873v7.7h1.444v-2.625l.861-.983,2.311,3.608h1.688l-3.022-4.721Z" transform="translate(1206.34 2725.007)" fill="#fff"/>
    <path id="パス_2337" data-name="パス 2337" d="M51.181,132.822a3.951,3.951,0,1,0,3.991,3.947A3.964,3.964,0,0,0,51.181,132.822Zm0,6.5a2.549,2.549,0,1,1,2.557-2.551A2.534,2.534,0,0,1,51.181,139.321Z" transform="translate(1206.157 2724.626)" fill="#fff"/>
  </g>
</svg>
