<svg xmlns="http://www.w3.org/2000/svg" width="24" height="24" viewBox="0 0 24 24">
  <path id="icon_カート" d="M3117.527,91.606a.766.766,0,0,1-.04.245l-3.383,10.307a1.13,1.13,0,0,1-.187.365.666.666,0,0,1-.548.276h-10.818a.791.791,0,0,0-.59.268.919.919,0,0,0-.249.637.936.936,0,0,0,.249.641.8.8,0,0,0,.59.264h12.205a.552.552,0,0,1,0,1.1h-12.205a1.781,1.781,0,0,1-1.311-.591,2.11,2.11,0,0,1,0-2.829c.025-.027.054-.054.079-.082l-4.132-14.116s-.137-.474-.443-.47h-2.709a.55.55,0,0,1,0-1.1h2.846a1.1,1.1,0,0,1,.89.447,2.29,2.29,0,0,1,.385.789l.9,3.082h17.627a1.023,1.023,0,0,1,.353.062.805.805,0,0,1,.317.221v0A.72.72,0,0,1,3117.527,91.606Zm-13.668,15.119a1.686,1.686,0,0,0-1.4,0,1.906,1.906,0,0,0-.595.428v0h0a2.109,2.109,0,0,0-.4.637v0a2.079,2.079,0,0,0,.4,2.149h0a1.884,1.884,0,0,0,.591.431h0a1.727,1.727,0,0,0,1.4,0,1.858,1.858,0,0,0,.595-.431,2.033,2.033,0,0,0,.4-.641,2.148,2.148,0,0,0,0-1.508,2.032,2.032,0,0,0-.4-.641v0A1.909,1.909,0,0,0,3103.859,106.725Zm8.2,3.653a1.728,1.728,0,0,0,1.4,0h0a1.84,1.84,0,0,0,.591-.431h0a2.019,2.019,0,0,0,.4-.641,2.1,2.1,0,0,0,0-1.508,2.019,2.019,0,0,0-.4-.641l0,0a1.822,1.822,0,0,0-.594-.428,1.687,1.687,0,0,0-1.4,0,1.913,1.913,0,0,0-.594.428v0a1.971,1.971,0,0,0-.4.637v0a2.092,2.092,0,0,0,0,1.508,1.947,1.947,0,0,0,.4.641A1.863,1.863,0,0,0,3112.054,110.378Z" transform="translate(-3093.527 -86.526)" fill="#64a2bb" fill-rule="evenodd"/>
</svg>
