<svg xmlns="http://www.w3.org/2000/svg" width="23.693" height="21.961" viewBox="0 0 23.693 21.961"><path d="M3117.22,91.174a.651.651,0,0,1-.039.224l-3.34,9.432a1.006,1.006,0,0,1-.185.334.675.675,0,0,1-.541.252h-10.68a.838.838,0,0,0-.829.829.832.832,0,0,0,.829.829h12.049a.5.5,0,0,1,0,1.006h-12.049a1.833,1.833,0,0,1-1.295-3.13c.025-.025.053-.05.078-.075l-4.08-12.917s-.135-.434-.437-.43h-2.675a.5.5,0,1,1,0-1h2.81a1.111,1.111,0,0,1,.879.409,2.041,2.041,0,0,1,.38.722l.889,2.82h17.4a1.083,1.083,0,0,1,.348.057.8.8,0,0,1,.313.2v0A.629.629,0,0,1,3117.22,91.174Zm-13.493,13.835a1.785,1.785,0,0,0-1.38,0,1.881,1.881,0,0,0-.587.391v0h0a1.911,1.911,0,0,0-.391.583v0a1.786,1.786,0,0,0,0,1.38,1.885,1.885,0,0,0,.391.587h0a1.856,1.856,0,0,0,.583.395h0a1.829,1.829,0,0,0,1.38,0,1.843,1.843,0,0,0,.981-.982,1.827,1.827,0,0,0,0-1.38,1.833,1.833,0,0,0-.395-.587v0A1.886,1.886,0,0,0,3103.727,105.009Zm8.091,3.343a1.829,1.829,0,0,0,1.38,0h0a1.82,1.82,0,0,0,.583-.395h0a1.818,1.818,0,0,0,.53-1.277,1.8,1.8,0,0,0-.139-.69,1.824,1.824,0,0,0-.391-.587l0,0a1.8,1.8,0,0,0-1.967-.391,1.89,1.89,0,0,0-.587.391v0a1.792,1.792,0,0,0-.391.583v0a1.786,1.786,0,0,0,0,1.38,1.769,1.769,0,0,0,.391.587A1.839,1.839,0,0,0,3111.818,108.352Z" transform="translate(-3093.527 -86.526)" fill="#454545" fill-rule="evenodd"/></svg>