<svg xmlns="http://www.w3.org/2000/svg" width="23.693" height="23.961" viewBox="0 0 23.693 23.961">
  <path id="icon_カート" d="M3117.22,91.6a.768.768,0,0,1-.039.244l-3.34,10.29a1.13,1.13,0,0,1-.185.365.655.655,0,0,1-.541.275h-10.68a.779.779,0,0,0-.583.268.925.925,0,0,0-.245.636.942.942,0,0,0,.245.64.789.789,0,0,0,.583.264h12.049a.551.551,0,0,1,0,1.1h-12.049a1.75,1.75,0,0,1-1.295-.59,2.126,2.126,0,0,1,0-2.825c.025-.027.053-.054.078-.081l-4.08-14.093s-.135-.473-.437-.469h-2.675a.549.549,0,0,1,0-1.094h2.81a1.078,1.078,0,0,1,.879.446,2.3,2.3,0,0,1,.38.788l.889,3.077h17.4a1,1,0,0,1,.348.062.794.794,0,0,1,.313.221v0A.722.722,0,0,1,3117.22,91.6Zm-13.493,15.094a1.648,1.648,0,0,0-1.38,0,1.879,1.879,0,0,0-.587.427v0h0a2.106,2.106,0,0,0-.391.636v0a2.113,2.113,0,0,0,0,1.506,2.078,2.078,0,0,0,.391.64h0a1.856,1.856,0,0,0,.583.431h0a1.688,1.688,0,0,0,1.38,0,1.835,1.835,0,0,0,.587-.431,2.02,2.02,0,0,0,.395-.64,2.163,2.163,0,0,0,0-1.506,2.02,2.02,0,0,0-.395-.64v0A1.884,1.884,0,0,0,3103.727,106.692Zm8.091,3.647a1.688,1.688,0,0,0,1.38,0h0a1.821,1.821,0,0,0,.583-.431h0a2.011,2.011,0,0,0,.391-.64,2.113,2.113,0,0,0,0-1.506,2.011,2.011,0,0,0-.391-.64l0,0a1.8,1.8,0,0,0-.587-.427,1.648,1.648,0,0,0-1.38,0,1.887,1.887,0,0,0-.587.427v0a1.975,1.975,0,0,0-.391.636v0a2.113,2.113,0,0,0,0,1.506,1.951,1.951,0,0,0,.391.64A1.838,1.838,0,0,0,3111.818,110.339Z" transform="translate(-3093.527 -86.526)" fill="#fff" fill-rule="evenodd"/>
</svg>
