<svg xmlns="http://www.w3.org/2000/svg" width="21.647" height="22.016" viewBox="0 0 21.647 22.016"><path d="M19.725,0h-9.2A6.223,6.223,0,0,0,4.3,6.222v9.572a6.223,6.223,0,0,0,6.222,6.222h9.2a6.223,6.223,0,0,0,6.222-6.222V6.222A6.223,6.223,0,0,0,19.725,0ZM6.51,6.222A4.016,4.016,0,0,1,10.522,2.21h9.2a4.016,4.016,0,0,1,4.012,4.012v9.572a4.016,4.016,0,0,1-4.012,4.012h-9.2A4.016,4.016,0,0,1,6.51,15.794Z" transform="translate(-4.3)" fill="#64a2bb"/><path d="M129.772,135.443a5.672,5.672,0,1,0-5.672-5.672A5.677,5.677,0,0,0,129.772,135.443Zm0-9.576a3.9,3.9,0,1,1-3.9,3.9A3.91,3.91,0,0,1,129.772,125.867Z" transform="translate(-118.948 -118.764)" fill="#64a2bb"/><ellipse cx="1.269" cy="1.269" rx="1.269" ry="1.269" transform="translate(15.391 3.904)" fill="#64a2bb"/></svg>