<svg xmlns="http://www.w3.org/2000/svg" width="200" height="261.067" viewBox="0 0 200 261.067"><path d="M65.21,364.051c-.611,0-1.26.5-2.049,1.563-.77,1.078-.855,1.078-3.048,1.078h-7.92c-.806,0-.868-.205-.868-1.378a1.98,1.98,0,0,1,.136-.987,4.691,4.691,0,0,1,.3-.405c.526-.684.774-1.042.774-1.388,0-1.542-5.013-2.051-5.066-2.051a1,1,0,0,0-1.127,1.033,4.737,4.737,0,0,0,.2.92,18.656,18.656,0,0,1,.178,2.6c0,1.556-.094,1.657-.774,1.657H37.457c-2.118,0-3.248-.093-5.324-.188-.157,0-.579-.031-1-.067-.461-.035-.917-.069-1.085-.069a.605.605,0,0,0-.663.613c0,.279.1.4.311.657l.911,1.105a1.1,1.1,0,0,0,.784.429c.077,0,.314-.024.548-.049.181-.02.359-.042.471-.045,1.6-.136,4.79-.136,5.84-.136h.423a7.528,7.528,0,0,0,1.27,2.2c.244.352.453.653.544.827a19.143,19.143,0,0,1,1.354,3.378,1.812,1.812,0,0,1-.206.006H36.626a3.8,3.8,0,0,1-1.971-.418c-.084-.039-.262-.136-.482-.255a5.5,5.5,0,0,0-2-.855.77.77,0,0,0-.848.754,9.792,9.792,0,0,0,.147,1.124c.066.408.132.812.136.994.227,3.645.227,7.5.227,9.143,0,1.769,0,4.441-.185,12.232,0,.342-.059,1.385-.112,2.268-.038.67-.073,1.252-.073,1.392,0,.439,0,1.776,1.821,1.776a2.578,2.578,0,0,0,2.886-2.935c0-.363-.045-1.406-.091-2.481-.045-1.123-.094-2.281-.094-2.707,0-2.089.028-11.188.038-15l.007-1.685c0-.868,0-1.1.823-1.1h4.954c.6,0,.726.091.726.545a11.737,11.737,0,0,1-1.1,4.582,9.688,9.688,0,0,1-2.309,2.982c-1.441,1.241-1.542,1.349-1.542,1.656a.881.881,0,0,0,.942.8c.652,0,3.112-1.413,5.942-4.532.108-.118.311-.394.561-.736a12.676,12.676,0,0,1,1.717-2.069c1.2-.268,1.706-.38,1.706-1.109,0-.363-.3-.9-1.182-2.122h2.093c.959,0,.959,0,.959,3.091,0,5.1.855,5.345,5.861,5.345a10.546,10.546,0,0,0,3.008-.5,2.626,2.626,0,0,0,1.976-2.161A1.883,1.883,0,0,0,60.49,382a2.321,2.321,0,0,1-.5-1.319c-.216-1.668-.886-1.849-1.165-1.849-.649,0-.76.45-1.057,1.636-.453,1.654-.2,2.116-2.135,2.116-1.18,0-1.246-.462-1.246-3.229,0-1.748.014-1.748.865-1.748h6.3c.624,0,.75.063.844.45.1.506.164,6.074.164,8.387,0,9.671-.258,11.1-.339,11.307-.223.586-.523.635-1.967.635-.126,0-.5-.031-.883-.063-.457-.039-.934-.077-1.109-.077-.8,0-1.078.457-1.078.847,0,.632.45.775,1.448,1.089,2.044.7,2.341.852,2.4,1.685.091.963.142,1.549,1.259,1.549a4.777,4.777,0,0,0,3.569-1.6c.911-1.231,1.033-3.115,1.033-9.949,0-.7-.056-2.742-.116-4.846-.059-2.223-.118-4.514-.118-5.348,0-2.362.2-2.6.865-3.032.747-.468,1.037-.866,1.037-1.417,0-1.186-3.762-3.534-4.323-3.534-.506,0-.7.255-1.521,1.312-.252.317-.287.355-1.169.355H54.754c.049-.038.1-.083.154-.129l.5-.44c3.481-3.073,3.5-3.076,4.141-3.269.527-.143,1.41-.38,1.41-1.291,0-.628-.509-1.008-1.012-1.284h6.88c1.4,0,2.609,0,2.609-1.172C69.438,366.964,66.34,364.051,65.21,364.051ZM52.323,374.182c-.789,1.078-1.065,1.172-2.128,1.172H45l.024-.045a4.413,4.413,0,0,0,.649-2.257c0-1.644-2.212-3.2-4.033-4.11H54.831c.132,0,.356,0,.4.126C55.232,369.078,55.19,370.323,52.323,374.182Zm4.033,23.657c0-.754-.062-4.085-.087-5.331l-.006-.46c0-.925.118-1.005.23-1.086.889-.746,1.162-.973,1.162-1.556,0-1.532-3.517-2.654-3.674-2.654-.318,0-.618.223-1.305.844-.1.088-.175.157-.227.2-.325.259-.513.3-1.25.3H46.433a4.82,4.82,0,0,1-1.811-.289l-.634-.238a3.856,3.856,0,0,0-1.538-.4.75.75,0,0,0-.848.848c0,.045.021.412.045.921.053,1.1.14,2.867.14,3.342,0,.52-.021,1.961-.045,3.364-.021,1.349-.045,2.668-.045,3.122,0,1.131.506,1.637,1.636,1.637a2.362,2.362,0,0,0,2.6-2.484c.063-.412.067-.437.691-.437h4.623c.681,0,.681.091.684.293.042.994.087,2.024,1.863,2.024C55.069,399.8,56.355,399.193,56.355,397.839Zm-5.019-2.652H46.573c-.819,0-.819,0-.819-3.231,0-1.528.055-1.562.819-1.562h4.811c.775,0,.82,0,.82,2.072C52.2,395.188,52.141,395.188,51.336,395.188Zm55.877-28.67c0-.157-.129-1.559-.276-2.812-.014-.116-.108-.433-.206-.768a6.156,6.156,0,0,1-.307-1.284,1,1,0,0,1,1.082-.942c.049,0,5.017.021,5.017,1.681,0,.283-.2.541-.573,1.012-.1.122-.191.234-.23.3a3.624,3.624,0,0,0-.17,1.611c0,1.888.014,1.888.868,1.888h6.943c2.138,0,2.145-.01,2.54-.565,1.193-1.644,1.406-1.94,2.093-1.94.9,0,4.6,2.721,4.6,3.628,0,1.172-.691,1.172-2.979,1.172H97.074c-.851,0-.914.045-.914,2.073,0,.687.035,2.571.069,4.406.035,1.741.07,3.44.07,4.026,0,7.389-1.545,12.943-4.881,18.284-2.191,3.282-2.937,3.416-3.374,3.416-.066,0-.662-.025-.662-.8,0-.15,0-.154,1.329-3.516.422-1.071.816-2.062.928-2.365,2.006-5.286,2.006-12.044,2.006-16.08A84.907,84.907,0,0,0,91,368.317c-.014-.1-.08-.331-.154-.593a6.238,6.238,0,0,1-.272-1.207.887.887,0,0,1,.893-.939,12.5,12.5,0,0,1,2.547.868c.488.185.911.346,1.1.409a5.718,5.718,0,0,0,2.2.345H106.3C107,367.2,107.213,367.107,107.213,366.518Zm14.612,33.5c0-.151-.042-1.13-.1-2.39-.1-2.25-.228-5.331-.228-6.182,0-.942,0-.945.126-1.067.035-.035.1-.1.2-.178.866-.754,1.253-1.162,1.253-1.581,0-1.085-3.374-2.934-4.089-2.934-.352,0-.722.286-1.595,1.085-.116.108-.209.2-.234.213a1.891,1.891,0,0,1-1.091.23h-3.787c-.837,0-.868-.216-.868-1.144,0-3.245.014-5.453.1-5.743.094-.24.238-.359.768-.359h8.538c1.532,0,2.979,0,2.979-1.358,0-1.133-3.635-3.674-4.6-3.674-.782,0-.973.283-2.225,2.112-.492.666-.492.666-2.408.666h-2.332c-.788,0-.819-.276-.819-.956a5.713,5.713,0,0,1,.258-2.53c.038-.063.136-.174.244-.307.488-.6.7-.89.7-1.193,0-1.444-4.878-2.006-4.926-2.006a1,1,0,0,0-1.033,1.033,11.575,11.575,0,0,0,.238,1.333,41.263,41.263,0,0,1,.363,6.262c0,.429-.021,1.681-.042,2.965-.025,1.354-.049,2.746-.049,3.245,0,1.532-.063,1.654-.868,1.654h-1.78a3.655,3.655,0,0,1-1.887-.492c-2.481-1.311-2.973-1.545-3.625-1.545a.814.814,0,0,0-.893.754c0,.238.083.939.279,2.3l.01.265c.053.977.126,2.453.126,4.389,0,.635-.053,2.442-.112,4.28-.055,1.915-.118,3.862-.118,4.571,0,.5,0,1.821,1.821,1.821a2.991,2.991,0,0,0,3.1-2.669c.088-.342.213-.481.793-.481h12.334c.625,0,.757.216.785.729.087,1.05.157,1.957,1.811,1.957C121.824,403.09,121.824,400.861,121.824,400.02Zm-5.6-1.866h-12.18c-.842,0-.96-.1-.96-1.657,0-3.733.014-6.308.035-6.524.053-.258.146-.457.831-.457h12.229c.764,0,.82.035.82,1.514l.006,6.65C116.961,398,116.7,398.154,116.221,398.154ZM227.5,152.114l-7.482-2.081V149.1l6.474-1.733-6.474-1.725V144.7l7.482-2v1l-4.466,1.114-1.681.368,1.681.41,4.466,1.22v1.1l-4.466,1.209-1.693.4,1.693.4,4.466,1.188Zm-6.767,6.718h-.715v-.515c0-.578.264-.893.8-.935a2.3,2.3,0,0,1-.934-1.965c0-1.1.578-1.818,1.576-1.818.893,0,1.523.536,1.693,1.85l.178,1.387c.031.263.158.388.411.388h.231c.567,0,.84-.378.84-1.218,0-.778-.241-1.167-.967-1.231v-.955c1.2.094,1.767.861,1.767,2.26,0,1.345-.547,2.123-1.734,2.123H221.2c-.357,0-.473.116-.473.473Zm1.187-1.608h.757l-.241-1.618c-.116-.757-.452-1.052-.936-1.052-.557,0-.872.41-.872,1.041A1.523,1.523,0,0,0,221.918,157.224Zm3.658,6.154h-.945c.01-.116.01-.221.01-.347a1.608,1.608,0,0,0-1.661-1.556h-2.963v-.967h5.423v.905h-1.092a1.876,1.876,0,0,1,1.24,1.765A1.144,1.144,0,0,1,225.576,163.379Zm-1.839,9.046h-3.721v-.967h3.711a.889.889,0,0,0,1.009-.934c0-.631-.378-1.325-1.777-1.325h-2.943v-.967h3.711a.889.889,0,0,0,1.009-.935c0-.631-.431-1.325-1.829-1.325h-2.89V165h5.423v.924l-.8-.042a1.806,1.806,0,0,1,.935,1.65,1.482,1.482,0,0,1-.945,1.5,1.833,1.833,0,0,1,.945,1.723C225.576,171.826,225,172.424,223.738,172.424Zm1.7,10.333h-5.423v-.9h.768a2.064,2.064,0,0,1-.9-1.818,1.669,1.669,0,0,1,1.8-1.84h3.762v.967h-3.572c-.747,0-1.147.347-1.147,1.083a1.49,1.49,0,0,0,1.7,1.546h3.016Zm-2.585,7.257c-1.681,0-2.953-.9-2.953-2.374a1.977,1.977,0,0,1,.778-1.608h-2.805v-.967h7.566v.841h-.872a1.953,1.953,0,0,1,.989,1.776A2.4,2.4,0,0,1,222.854,190.014Zm0-.966c1.24,0,1.871-.569,1.871-1.5,0-.9-.651-1.567-1.934-1.567s-2.06.663-2.06,1.567C220.732,188.479,221.593,189.048,222.854,189.048ZM222.5,200.19v-4.067c-1.218.031-1.817.662-1.817,1.64a1.464,1.464,0,0,0,1.083,1.5l-.105.882a2.382,2.382,0,0,1-1.766-2.418,2.559,2.559,0,0,1,2.858-2.575,2.515,2.515,0,0,1,2.816,2.555,2.408,2.408,0,0,1-2.711,2.48Zm.695-4.056v3.152c1.029-.126,1.587-.684,1.587-1.566A1.536,1.536,0,0,0,223.191,196.135Zm2.248,10.493-5.423-1.987v-.956l5.423-2.08v1.04l-3.132,1.082-1.46.452,1.46.442,3.132,1.029Zm-2.943,6.449v-4.068c-1.218.031-1.817.662-1.817,1.64a1.464,1.464,0,0,0,1.083,1.5l-.105.882a2.382,2.382,0,0,1-1.766-2.418,2.559,2.559,0,0,1,2.858-2.574,2.515,2.515,0,0,1,2.816,2.554,2.408,2.408,0,0,1-2.711,2.481Zm.695-4.057v3.153c1.029-.126,1.587-.684,1.587-1.566A1.536,1.536,0,0,0,223.191,209.02Zm2.385,8.917h-.945c.01-.116.01-.221.01-.347a1.607,1.607,0,0,0-1.661-1.556h-2.963v-.967h5.423v.9h-1.092a1.877,1.877,0,0,1,1.24,1.766A1.144,1.144,0,0,1,225.576,217.937Zm-.137,6.189-6.484-2.523a1.387,1.387,0,0,1-1.081-1.493v-.6h.808v.5c0,.494.157.684.726.9l.661.253,5.37-2.186v1.051l-3.741,1.408-.651.117,4.392,1.565Zm2.06,6.362h-7.482v-.84h.862a1.984,1.984,0,0,1-.978-1.745c0-1.472,1.23-2.365,2.912-2.365,1.64,0,2.743.967,2.743,2.344a1.988,1.988,0,0,1-.768,1.64H227.5Zm-4.708-.914c1.283,0,1.934-.651,1.934-1.557,0-.934-.672-1.512-1.913-1.512-1.262,0-2.081.557-2.081,1.492C220.732,228.9,221.51,229.574,222.791,229.574Zm-2.06,8.162h-.715v-.515c0-.578.264-.893.8-.935a2.3,2.3,0,0,1-.934-1.965c0-1.1.578-1.817,1.576-1.817.893,0,1.523.535,1.693,1.849l.178,1.387c.031.263.158.388.411.388h.231c.567,0,.84-.378.84-1.218,0-.778-.241-1.167-.967-1.23v-.956c1.2.094,1.767.861,1.767,2.26,0,1.345-.547,2.123-1.734,2.123H221.2c-.357,0-.473.116-.473.473Zm1.187-1.608h.757l-.241-1.618c-.116-.757-.452-1.052-.936-1.052-.557,0-.872.41-.872,1.041A1.523,1.523,0,0,0,221.918,236.128Zm3.521,7.846-6.484-2.523a1.387,1.387,0,0,1-1.081-1.492v-.6h.808v.5c0,.495.157.684.726.9l.661.252,5.37-2.185v1.051l-3.741,1.408-.651.116,4.392,1.566Zm-15.188-99.427h-.609l.042,1.24h-.745l.042-1.24h-4.719v-.967h4.719l-.042-.872h.745l-.031.872h.462c1.136,0,1.629.495,1.629,1.63v.578h-.809v-.557C210.935,144.714,210.768,144.547,210.252,144.547Zm-.431,5.841h-.945c.011-.116.011-.221.011-.347a1.607,1.607,0,0,0-1.661-1.556h-2.963v-.967h5.423v.9h-1.093a1.877,1.877,0,0,1,1.24,1.766A1.154,1.154,0,0,1,209.821,150.387Zm-2.847,1.31a2.592,2.592,0,0,1,2.847,2.638,2.551,2.551,0,0,1-2.805,2.585,2.652,2.652,0,0,1-2.89-2.616A2.591,2.591,0,0,1,206.974,151.7Zm.042,4.256c1.229,0,2-.6,2-1.649,0-1.031-.809-1.64-2.038-1.64s-2.039.62-2.039,1.64C204.934,155.355,205.785,155.954,207.016,155.954Zm.967,10.378h-3.721v-.967h3.71a.889.889,0,0,0,1.009-.934c0-.631-.378-1.325-1.776-1.325h-2.943v-.967h3.71a.889.889,0,0,0,1.009-.935c0-.631-.431-1.324-1.829-1.324h-2.89v-.967h5.423v.925l-.8-.042a1.8,1.8,0,0,1,.934,1.65,1.479,1.479,0,0,1-.945,1.5,1.838,1.838,0,0,1,.945,1.725C209.821,165.733,209.243,166.332,207.983,166.332Zm2.711,3.6q1.135,0,1.135,1.041v.105H211.3v-.105a.44.44,0,0,0-.495-.494h-.535l.051.609h-1.051v-1.156Zm0,1.86q1.135,0,1.135,1.041v.105H211.3v-.105a.439.439,0,0,0-.495-.493h-.535l.051.609h-1.051v-1.156Zm-3.688,2.75a2.593,2.593,0,0,1,2.847,2.638,2.551,2.551,0,0,1-2.805,2.585,2.652,2.652,0,0,1-2.89-2.617A2.591,2.591,0,0,1,207.005,174.541Zm.042,4.256c1.229,0,2-.6,2-1.65,0-1.03-.808-1.639-2.038-1.639s-2.039.62-2.039,1.639C204.966,178.2,205.817,178.8,207.047,178.8Zm3.236,4.378h-.61l.043,1.239h-.746l.043-1.239h-4.72v-.967h4.72l-.043-.872h.746l-.031.872h.462c1.135,0,1.629.495,1.629,1.629v.578h-.809v-.556C210.967,183.343,210.8,183.176,210.283,183.176Zm0,4.389h-.61l.043,1.24h-.746l.043-1.24h-4.72V186.6h4.72l-.043-.872h.746l-.031.872h.462c1.135,0,1.629.494,1.629,1.629v.578h-.809v-.557C210.967,187.733,210.8,187.565,210.283,187.565Zm-.567,7.533h-5.424v-.9h.768a2.064,2.064,0,0,1-.9-1.818,1.669,1.669,0,0,1,1.8-1.839h3.763v.967h-3.574c-.745,0-1.146.347-1.146,1.083a1.49,1.49,0,0,0,1.7,1.545h3.016Zm2.06,2.306v.967h-7.483V197.4Zm0,3.278v.967h-7.483v-.967Zm-4.771,2.961a2.593,2.593,0,0,1,2.847,2.638,2.551,2.551,0,0,1-2.805,2.585,2.652,2.652,0,0,1-2.89-2.616A2.591,2.591,0,0,1,207.005,203.642Zm.042,4.256c1.229,0,2-.6,2-1.649,0-1.031-.808-1.64-2.038-1.64s-2.039.62-2.039,1.64C204.966,207.3,205.817,207.9,207.047,207.9Zm2.7,2.571v.1a.44.44,0,0,0,.495.494h.536l-.052-.609h1.051v1.156h-1.419q-1.135,0-1.136-1.041v-.1Zm0,1.86v.105a.44.44,0,0,0,.495.493h.536l-.052-.61h1.051v1.156h-1.419q-1.135,0-1.136-1.04v-.105Zm-6.231,103.718a23,23,0,0,1,2.907-1.523A1.917,1.917,0,0,0,207.65,312a56.977,56.977,0,0,1-1.834-16.306,2.079,2.079,0,0,1,2.21-2.057c1.349,0,2.346.661,2.395,1.992.159,4.433.383,10.786,1.783,15.044a1.933,1.933,0,0,0,2.432,1.5,46.469,46.469,0,0,1,5.142-.656,2.282,2.282,0,0,1,2.675,2.1,2.156,2.156,0,0,1-2.2,2.486c-3.328.275-9.626,1.069-14.384,3.9-2.512,1.49-4.04,4.241-3.632,6.54.447,2.512,3.059,3.508,5.171,3.9a36.944,36.944,0,0,0,17.358-1.826,2.048,2.048,0,0,1,2.947,1.338,2.342,2.342,0,0,1-1.317,2.971,40.841,40.841,0,0,1-14.547,2.473,29.665,29.665,0,0,1-5.283-.428c-4.936-.92-8.167-3.7-8.863-7.626C196.957,323.172,199.348,318.523,203.516,316.048ZM64.817,332.22Zm3.1-.7a2.178,2.178,0,0,1-2.905-1.46,8.037,8.037,0,0,0-3.086-4.869,2.333,2.333,0,0,1-.522-3.1,2.26,2.26,0,0,1,3.062-.821,11.832,11.832,0,0,1,5.066,7.487A2.325,2.325,0,0,1,67.914,331.518Zm28.2.412a2.3,2.3,0,0,1,2.782-1.309,18.95,18.95,0,0,0,6.475.709c3.638-.375,6.537-2.044,7.76-4.464a5.287,5.287,0,0,0-.23-5.211c-2.063-3.51-7.256-4.747-13.22-3.159a17.71,17.71,0,0,0-5.8,2.675,2.63,2.63,0,0,1-3.514-.372,2.178,2.178,0,0,1,.119-3.227c6.894-5.766,9.135-10.852,11.668-15.252.813-1.414.957-2.985-1.311-3.1-.716-.036-1.715-.086-2.414-.125-1.244-.068-2.358-.606-2.241-2.338a2.156,2.156,0,0,1,2.494-2.268,25.793,25.793,0,0,0,8.425-.272,2.922,2.922,0,0,1,3.169,1.165,3.249,3.249,0,0,1,.343,3.678c-.43.682-1.889,2.052-2.9,3.358a74.026,74.026,0,0,0-4.773,7.628c-.952,1.65-.658,3.165,1.614,3.165,5.542,0,10.02,2.218,12.308,6.1a9.881,9.881,0,0,1,.374,9.625c-1.934,3.826-6.194,6.432-11.4,6.97a20.619,20.619,0,0,1-2.063.105,18.4,18.4,0,0,1-6.588-1.11A2.126,2.126,0,0,1,96.109,331.929Zm51.713-9.29a23.29,23.29,0,0,1,.6-2.915,1.851,1.851,0,0,0-1.1-2.561,9.285,9.285,0,0,1-3.621-2.588,6.354,6.354,0,0,1-.778-5.757,2,2,0,0,1,2.949-1.177,2.493,2.493,0,0,1,1.539,2.777c-.12,1.689,1.784,2.6,2.765,2.443a2.241,2.241,0,0,0,1.62-1.462,36.985,36.985,0,0,0,1.341-3.719,2.259,2.259,0,0,0-1.028-2.594,23.134,23.134,0,0,1-5.021-3.718,1.951,1.951,0,0,1,.289-3,2.223,2.223,0,0,1,3.2-.029,6.754,6.754,0,0,0,.784.647c1.664,1.209,3.28,1.42,3.644-1.547.088-.716.06-1.57.161-2.23a2.038,2.038,0,0,1,2.288-1.9,2.064,2.064,0,0,1,2.338,2.181,56.09,56.09,0,0,1-1.643,11.258,45.062,45.062,0,0,1-1.717,5.48c-.937,2.549.642,2.828,1.887,3.037a2.156,2.156,0,0,1,1.742,2.564c-.125,1.309-.881,2.063-1.905,2.075a22.279,22.279,0,0,1-2.847-.308c-1.492-.167-2.113.232-2.51,1.6a14.08,14.08,0,0,0-.412,2.053c-.325,2.393.3,6.765,4.688,7.973,5.062,1.392,8.882-1.093,10.421-4.177,1.806-3.622.239-7.3-.928-9.121a2.327,2.327,0,0,1,3.795-2.609c1.8,2.475,4.094,8.1,1.255,13.787a12.915,12.915,0,0,1-11.634,7.142,15.655,15.655,0,0,1-4.132-.579C149.367,333.885,147.143,327.664,147.822,322.639Zm-112.108-.272a2.26,2.26,0,0,1-.166,3.289,13.782,13.782,0,0,0-3.279,4.278,2.332,2.332,0,0,1-3.01,1.025,2.151,2.151,0,0,1-1.275-2.781,12.165,12.165,0,0,1,4.766-6.224A2.217,2.217,0,0,1,35.714,322.368Zm1.647,3.078h0Zm2.771,5.105a2.319,2.319,0,0,1,3.148-.281,5.305,5.305,0,0,0,3.7,1.083c2.864-.438,4.639-2.668,4.777-5.8.128-2.953-1.485-5.4-5.78-8.793a10.259,10.259,0,0,1-4.146-6.892,7.939,7.939,0,0,1,1.664-6.04,8.62,8.62,0,0,1,.893-.959,2.01,2.01,0,0,0,.647-1.472,1.889,1.889,0,0,0-.61-1.407,15,15,0,0,1-2.282-2.556,1.984,1.984,0,0,1,.657-2.843,2.3,2.3,0,0,1,3.226.369,13.3,13.3,0,0,0,6.472,4.768,2.311,2.311,0,0,1,1.523,2.75,2.626,2.626,0,0,1-2.438,2.258A6.3,6.3,0,0,0,47.1,306.7a3.274,3.274,0,0,0-.692,2.568,5.508,5.508,0,0,0,2.322,3.787c3.818,2.857,7.894,6.748,7.635,12.691-.23,5.289-3.6,9.27-8.585,10.141a9.05,9.05,0,0,1-1.546.134,8.346,8.346,0,0,1-6.243-2.506A2,2,0,0,1,40.133,330.551Zm2.012-1.332ZM168.709,367.71c-.107.462-.644.942-1.093.834a3.127,3.127,0,0,0-.595-.15c-.243-.022-.344,0-.4-.01a.3.3,0,0,1-.228-.372.427.427,0,0,1,.093-.166l.032-.049a.7.7,0,0,0,.078-.157.513.513,0,0,0-.374-.7,1.909,1.909,0,0,0-.687.067.556.556,0,0,1-.257.006.279.279,0,0,1-.216-.354,2.227,2.227,0,0,1,2.163-.734A1.62,1.62,0,0,1,168.709,367.71Zm-3.695,2.278a6.44,6.44,0,0,0-2.379.646c-.1.037-.355.14-.634.253-.26.105-.622.252-.787.323v-.016c0-.137,0-1.606.029-1.94a2.358,2.358,0,0,1,.05-.46.2.2,0,0,1,.067-.03l.063-.027a6.109,6.109,0,0,0,1.3-.7.594.594,0,0,0,.082-.957.979.979,0,0,0-.8-.263l-.068.021a.318.318,0,0,0-.191.269c0,.061-.219.247-.3.281.018-.217.087-.566.122-.745.014-.069.025-.124.023-.124.013-.037.051-.12.1-.217a2.021,2.021,0,0,0,.242-.664,1.78,1.78,0,0,0-1.852-1.3c-.286,0-.576.126-.576.4,0,.1.039.166.284.411a1.321,1.321,0,0,1,.456,1.1c0,.2-.07,1.324-.108,1.556a7.609,7.609,0,0,1-1.82.405,4.7,4.7,0,0,1-.707-.078.829.829,0,0,1-.1-.025.877.877,0,0,0-.2-.04.337.337,0,0,0-.355.339,1.79,1.79,0,0,0,1.363,1.176,2.9,2.9,0,0,0,1.027-.256l.166-.055c.09-.031.5-.129.609-.146a.3.3,0,0,1,.033.146c.014.26.03,1.841.03,2.209,0,.3,0,.3-.769.676a3.189,3.189,0,0,1-1.536.511c-.046,0-.169-.018-.293-.037-.151-.021-.3-.042-.353-.042a.784.784,0,0,0-.687.844c0,.658.92,1.223,1.207,1.223a1.323,1.323,0,0,0,.569-.261,1.138,1.138,0,0,1,.141-.08.99.99,0,0,1,.284-.069.566.566,0,0,1,.063,0c.046.019.173.179.519.847a1.05,1.05,0,0,0,.93.71c.818,0,1.034-1.3,1.034-1.994,0-.079-.013-.292-.025-.511s-.023-.441-.023-.528c0-.114,0-.128.856-.586,1.964-1.041,2.481-1.152,2.774-1.152a1.4,1.4,0,0,1,1.281,1.5,1.752,1.752,0,0,1-1.457,1.623c-.525.053-.8-.176-.8-.526a.466.466,0,0,1,.115-.314.4.4,0,0,0,.091-.238.314.314,0,0,0-.309-.308,1.566,1.566,0,0,0-1.016,1.473c0,.9.744,1.506,1.852,1.506a3.181,3.181,0,0,0,3.036-3.153A2.64,2.64,0,0,0,165.014,369.988Zm-4.875,3.308a1.57,1.57,0,0,1-.205.9,1.048,1.048,0,0,1-.432-.482A3.032,3.032,0,0,1,160.139,373.3Zm24.606-2.235a14.706,14.706,0,0,0-1.558-.051.658.658,0,0,1-.476-.161c-1.273-1.164-1.4-1.7-1.325-2.208a1.865,1.865,0,0,1,1.6-1.252c.656-.043,1.222-.081,1.222-.828,0-.96-1-1.441-1.73-1.793l-.055-.031c-1.023-.554-1.064-.549-1.219-.508a.292.292,0,0,0-.194.27,5.761,5.761,0,0,0,.517.969c.333.463.333.485.333.6,0,.32-.19.593-.648,1.253l-.111.164a2.819,2.819,0,0,0-.485,1.308,3.772,3.772,0,0,0,.426,1.724l.06.1c.091.155.347.589.423.733-.028.014-.065.031-.1.047a5.882,5.882,0,0,0-1.426.765c-.5.341-1.647,1.424-2.457,1.424-.044,0-.163-.018-.28-.037-.149-.021-.3-.042-.349-.042-.332,0-.53.346-.53.923a1.249,1.249,0,0,0,1.238,1.253c.626,0,.815-.229,1.521-1.1.089-.115.185-.226.254-.228.139.018.31.488.9.9a2.9,2.9,0,0,0,1.744.665,1.9,1.9,0,0,0,1.994-2.01,4.023,4.023,0,0,0-.671-2.243,4.469,4.469,0,0,1,1.408.328c1.161.5,1.107,1.529,1.3,2.136s.543,1.238,1.119,1.238a1.067,1.067,0,0,0,1.079-.948C188.461,373.4,187.794,371.46,184.745,371.062Zm-2.448,2.1a1.077,1.077,0,0,1-1.189,1.156,2.266,2.266,0,0,1-1.278-.637c.466-.519,1.4-1.693,1.933-1.738A3.266,3.266,0,0,1,182.3,373.163Zm24.523-.9c0,4.086-5.609,4.616-6.671,4.15-.4-.173-.312-.714.293-.7.744.02,4.515-.682,4.515-3.475a2.136,2.136,0,0,0-2.037-2.127,4.027,4.027,0,0,0-3.405,1.651c-.668,1-.824,1.425-1.412,1.425-.51,0-.813-.339-.813-.908,0-.665.276-.965.88-1.618a20.1,20.1,0,0,0,3.75-5.127c-1.145.158-1.715.667-2.173.651a1,1,0,0,1-.724-.351,1.6,1.6,0,0,1-.5-.9c-.018-.186.164-.325.388-.325.037,0,.188.013.356.028a6.011,6.011,0,0,0,1.556-.046,14.243,14.243,0,0,1,1.75-.462,1.291,1.291,0,0,1,1.411,1.128c0,.691-.461,1.069-1.155,1.642a25.389,25.389,0,0,0-2.5,2.688c.055-.026.108-.049.145-.068.1-.046.182-.084.221-.1a7.242,7.242,0,0,1,2.491-.5A3.543,3.543,0,0,1,206.819,372.265Zm19.259,3.2c0,.968-3.184,1.113-4.782,1.113-2.149,0-3.239-.909-3.239-2.7a3.8,3.8,0,0,1,1.269-2.716l0,0c.3-.276.6-.563.6-.682-.007-.039-.1-.34-.123-.4a5.291,5.291,0,0,1-.286-1.93c0-.178.019-.7.039-1.238.019-.567.04-1.151.04-1.361a1.59,1.59,0,0,0-.48-1.192c-.189-.246-.371-.388-.371-.524,0-.213.2-.309.657-.309.994,0,1.915.8,1.929,1.411a2.682,2.682,0,0,1-.161.782,12.879,12.879,0,0,0-.446,2.519c0,1.309.125,1.6.2,1.65a22.224,22.224,0,0,1,2.084-1.067,6.371,6.371,0,0,1,2.014-.64.834.834,0,0,1,.83.814c0,.628-.718,1.178-1.359,1.284-3.817.624-5.225,2.556-5.225,3.493,0,.305,0,1.235,1.959,1.235a12.14,12.14,0,0,0,2.335-.275,4.481,4.481,0,0,1,1.241-.245A1.186,1.186,0,0,1,226.079,375.461ZM163.9,392.524c-2.038,1.77-3.655,2.665-3.693,3,0,.167.192.365.658.744,1.056.859,4.223,2.908,4.468,4.526a1.171,1.171,0,0,1-.991,1.3c-1.475.213-1.575-1.569-2.156-2.5a10.777,10.777,0,0,0-2.786-2.765c-.622-.528-.819-.843-.691-1.341.12-.464,1.6-1.466,2.868-2.734,1.495-1.495,1.81-2.349,1.81-2.857a1.277,1.277,0,0,0-.349-.78.41.41,0,0,1-.055-.449c.067-.136.238-.136.3-.136.446,0,2.167.841,2.167,1.616C165.449,390.8,165.245,391.353,163.9,392.524Zm23.209,5.862c0,2.05-2.973,3.427-5.4,3.427-.245,0-.656,0-.656-.355,0-.242.272-.314.559-.392l.064-.019c1.94-.434,3.663-1.643,3.663-2.945a1.6,1.6,0,0,0-1.6-1.657,2.852,2.852,0,0,0-2.159,1.22l-.068.1c-.685.968-.917,1.3-1.555,1.3-.84,0-1.426-.9-1.426-2.2,0-.446.161-1.818.289-2.922.067-.563.122-1.037.138-1.237a2.169,2.169,0,0,1,1.576-2.085c.918-.377,1.115-.485,1.115-.764,0-.228-.362-.61-.513-.836-.056-.1-.168-.324-.006-.491.123-.1.257-.116.674.076.646.3,2.022,1.265,2.022,2.038a1,1,0,0,1-1.033.987,2.928,2.928,0,0,1-1.006-.282,1.943,1.943,0,0,0-.664-.144c-.513,0-.819.177-.879.691a1.9,1.9,0,0,0,.043.569,4.894,4.894,0,0,1-.08,1.486c-.025.154-.045.283-.055.35-.081.6-.2,1.51-.2,1.88,0,.494.13.494.18.494a2.19,2.19,0,0,0,.9-.314,5.947,5.947,0,0,1,3.19-.843A2.888,2.888,0,0,1,187.106,398.386Zm20.546.378c0,.427-2.569,2.938-5.522,2.938-2.25,0-3.254-1.412-3.254-4.576a36.158,36.158,0,0,1,.363-4.4c.068-.548.2-1.807.2-2.227a1.743,1.743,0,0,0-.124-.683c-.014-.038-.044-.113-.077-.19-.111-.264-.115-.268-.115-.325a.414.414,0,0,1,.451-.387c1,0,1.741,1.431,1.741,1.867a2.449,2.449,0,0,1-.22.707c-.042.105-.078.193-.087.232a37.555,37.555,0,0,0-.527,5.425c0,1.715.364,2.777,2.18,2.777a7.542,7.542,0,0,0,3.085-.67c.093-.043.335-.174.6-.313.9-.482.916-.482,1-.482A.3.3,0,0,1,207.652,398.764ZM46.374,244.257c-1.577,1.8-4.708,1.213-7.105-.157-5.419-3.1-8.7-8.535-9.579-10.128a12.747,12.747,0,0,1,1.923-15.223c3.632-3.888,7.057-7.56,7.581-14.988.525-7.45,4.46-8.311,7.372-8.311,4.7,0,7.4,2.83,7.627,7.97a21.079,21.079,0,0,1-1.929,10.818,47.347,47.347,0,0,1-2.355,4.292,23.886,23.886,0,0,0-2.9,6.05,6.653,6.653,0,0,0,.8,5.423c1.458,2.266,4.129,3.544,6.213,4.231C53.093,235.512,48.458,241.888,46.374,244.257Zm98.515-10.478c-.884,1.182-5.782,7.715-7.774,10.044-1.582,1.848-3.713,2.054-6.34.606-2.391-1.318-9.664-5.328-10.188-31.157-.05-2.485-.013-7.4.082-8.785.452-6.495,2.807-9.061,7.592-9.061,3.387,0,7.889,1.076,7.889,10.385C136.151,225.624,141.532,231.837,144.888,233.779Zm-48.566,8.842c-7.38,6.434-19.175,6.587-25.358,2.814-3.873-2.364-4.144-5.96-2.977-9.328,1.295-3.741,4.576-4.735,7.5-4.341,2.95.4,7.146,1.688,10.974-2.6,2.143-2.4,3.186-5.867,2.937-10.1-.359-6.105-2.963-11.064-11.616-19.494-4.8-4.681-6.038-8.677-6.416-13.241a31.621,31.621,0,0,1,.121-6.669l.015-.143c.3-2.858,1.726-4.023,4.935-4.023,1.915,0,8.51.117,9.81.142-1.216,10.323.707,11.73,7.447,18.52,5.72,5.763,10.81,13.467,11.637,22.949C106.271,227.839,103.154,236.66,96.322,242.621ZM89.48,172.892c.745-4.572-1.735-7.951-7.005-9.532a12,12,0,0,1-8.9-12.053c.016-6.017,2.475-8.82,7.739-8.82,3.9,0,6.5,1.845,7.124,5.065a8.385,8.385,0,0,0,3.416,5.289c1.746,1.353,3.454,2.04,6.18,3.561,3.338,1.863,5.51,4.791,5.51,8.239,0,5.013-3.194,8.251-8.137,8.251Z" transform="translate(-27.837 -142.487)" fill="#64a2bb"/></svg>