<?xml version="1.0" encoding="UTF-8"?><svg xmlns="http://www.w3.org/2000/svg" viewBox="0 0 200 260.86"><path d="m37.36,221.35c-.61,0-1.26.5-2.05,1.56-.77,1.08-.85,1.08-3.05,1.08h-7.92c-.81,0-.87-.2-.87-1.38-.04-.34,0-.67.14-.99.09-.14.19-.28.3-.4.53-.68.77-1.04.77-1.39,0-1.54-5.01-2.05-5.07-2.05-.55-.07-1.05.32-1.12.86,0,.06,0,.11,0,.17.04.31.1.62.2.92.12.86.18,1.73.18,2.6,0,1.56-.09,1.66-.77,1.66h-8.49c-2.12,0-3.25-.09-5.32-.19-.16,0-.58-.03-1-.07-.46-.04-.92-.07-1.08-.07-.33-.03-.63.21-.66.54,0,.02,0,.05,0,.07,0,.28.1.4.31.66l.91,1.11c.19.25.47.4.78.43.08,0,.31-.02.55-.05.18-.02.36-.04.47-.05,1.6-.14,4.79-.14,5.84-.14h.42c.3.8.73,1.54,1.27,2.2.24.35.45.65.54.83.56,1.08,1.01,2.21,1.35,3.38-.07,0-.14,0-.21,0h-5.01c-.68.04-1.36-.1-1.97-.42-.08-.04-.26-.14-.48-.26-.6-.42-1.28-.71-2-.86-.42-.04-.8.26-.84.69,0,.02,0,.04,0,.07.03.38.08.75.15,1.12.07.41.13.81.14.99.23,3.64.23,7.5.23,9.14,0,1.77,0,4.44-.18,12.23,0,.34-.06,1.39-.11,2.27-.04.67-.07,1.25-.07,1.39,0,.44,0,1.78,1.82,1.78,1.41.19,2.71-.81,2.89-2.22.03-.24.03-.48,0-.71,0-.36-.04-1.41-.09-2.48-.04-1.12-.09-2.28-.09-2.71,0-2.09.03-11.19.04-15v-1.68c0-.87,0-1.1.83-1.1h4.95c.6,0,.73.09.73.55-.05,1.59-.43,3.14-1.1,4.58-.57,1.14-1.35,2.15-2.31,2.98-1.44,1.24-1.54,1.35-1.54,1.66.04.48.46.84.94.8.65,0,3.11-1.41,5.94-4.53.11-.12.31-.39.56-.74.5-.75,1.07-1.44,1.72-2.07,1.2-.27,1.71-.38,1.71-1.11,0-.36-.3-.9-1.18-2.12h2.09q.96,0,.96,3.09c0,5.1.85,5.35,5.86,5.35,1.02-.02,2.03-.19,3.01-.5,1.04-.25,1.82-1.11,1.98-2.16-.02-.53-.27-1.03-.68-1.37-.3-.38-.47-.84-.5-1.32-.22-1.67-.89-1.85-1.17-1.85-.65,0-.76.45-1.06,1.64-.45,1.65-.2,2.12-2.13,2.12-1.18,0-1.25-.46-1.25-3.23,0-1.75.01-1.75.87-1.75h6.3c.62,0,.75.06.84.45.1.51.16,6.07.16,8.39,0,9.67-.26,11.1-.34,11.31-.22.59-.52.64-1.97.64-.13,0-.5-.03-.88-.06-.46-.04-.93-.08-1.11-.08-.8,0-1.08.46-1.08.85,0,.63.45.77,1.45,1.09,2.04.7,2.34.85,2.4,1.68.09.96.14,1.55,1.26,1.55,1.36,0,2.66-.58,3.57-1.6.91-1.23,1.03-3.11,1.03-9.95,0-.7-.06-2.74-.12-4.85-.06-2.22-.12-4.51-.12-5.35,0-2.36.2-2.6.86-3.03.75-.47,1.04-.87,1.04-1.42,0-1.19-3.76-3.53-4.32-3.53-.51,0-.7.26-1.52,1.31-.25.32-.29.36-1.17.36h-6.79s.1-.08.15-.13l.5-.44c3.48-3.07,3.5-3.08,4.14-3.27.53-.14,1.41-.38,1.41-1.29,0-.63-.51-1.01-1.01-1.28h6.88c1.4,0,2.61,0,2.61-1.17,0-.81-3.1-3.72-4.23-3.72Zm-12.89,10.13c-.79,1.08-1.06,1.17-2.13,1.17h-5.2l.02-.05c.42-.68.64-1.46.65-2.26,0-1.64-2.21-3.2-4.03-4.11h13.19c.13,0,.36,0,.4.13,0,0-.04,1.25-2.91,5.11Zm4.03,23.66c0-.75-.06-4.08-.09-5.33v-.46c0-.92.11-1.01.22-1.09.89-.75,1.16-.97,1.16-1.56,0-1.53-3.52-2.65-3.67-2.65-.32,0-.62.22-1.31.84-.1.09-.17.16-.23.2-.33.26-.51.3-1.25.3h-4.77c-.62.02-1.23-.08-1.81-.29l-.63-.24c-.48-.24-1-.37-1.54-.4-.41-.06-.79.23-.85.64,0,.07,0,.14,0,.21,0,.05.02.41.04.92.05,1.1.14,2.87.14,3.34,0,.52-.02,1.96-.04,3.36-.02,1.35-.04,2.67-.04,3.12,0,1.13.51,1.64,1.64,1.64,1.3.13,2.46-.81,2.59-2.11.01-.12.02-.25,0-.38.06-.41.07-.44.69-.44h4.62c.68,0,.68.09.68.29.04.99.09,2.02,1.86,2.02,1.28,0,2.56-.61,2.56-1.96h0Zm-5.02-2.65h-4.76q-.82,0-.82-3.23c0-1.53.06-1.56.82-1.56h4.81c.78,0,.82,0,.82,2.07,0,2.72-.06,2.72-.87,2.72h0Zm55.88-28.67c0-.16-.13-1.56-.28-2.81-.01-.12-.11-.43-.21-.77-.15-.42-.25-.85-.31-1.28.03-.55.5-.97,1.05-.94,0,0,.02,0,.03,0,.05,0,5.02.02,5.02,1.68,0,.28-.2.54-.57,1.01-.1.12-.19.23-.23.3-.18.52-.24,1.07-.17,1.61,0,1.89.01,1.89.87,1.89h6.94c2.14,0,2.14-.01,2.54-.57,1.19-1.64,1.41-1.94,2.09-1.94.9,0,4.6,2.72,4.6,3.63,0,1.17-.69,1.17-2.98,1.17h-28.54c-.85,0-.91.05-.91,2.07,0,.69.04,2.57.07,4.41.04,1.74.07,3.44.07,4.03,0,7.39-1.54,12.94-4.88,18.28-2.19,3.28-2.94,3.42-3.37,3.42-.07,0-.66-.02-.66-.8q0-.15,1.33-3.52c.42-1.07.82-2.06.93-2.36,2.01-5.29,2.01-12.04,2.01-16.08,0-3.55-.21-7.1-.64-10.62-.01-.1-.08-.33-.15-.59-.13-.39-.22-.8-.27-1.21-.03-.49.34-.91.83-.94.02,0,.04,0,.06,0,.88.2,1.73.49,2.55.87.49.18.91.35,1.1.41.7.26,1.45.38,2.2.35h8.99c.7,0,.91-.09.91-.68h0Zm14.61,33.5c0-.15-.04-1.13-.1-2.39-.1-2.25-.23-5.33-.23-6.18,0-.94,0-.95.13-1.07.04-.04.1-.1.2-.18.87-.75,1.25-1.16,1.25-1.58,0-1.08-3.37-2.93-4.09-2.93-.35,0-.72.29-1.6,1.08-.12.11-.21.2-.23.21-.33.18-.71.26-1.09.23h-3.79c-.84,0-.87-.22-.87-1.14,0-3.24.01-5.45.1-5.74.09-.24.24-.36.77-.36h8.54c1.53,0,2.98,0,2.98-1.36,0-1.13-3.64-3.67-4.6-3.67-.78,0-.97.28-2.22,2.11q-.49.67-2.41.67h-2.33c-.79,0-.82-.28-.82-.96-.11-.85-.02-1.72.26-2.53.04-.06.14-.17.24-.31.49-.6.7-.89.7-1.19,0-1.44-4.88-2.01-4.93-2.01-.55-.02-1.01.41-1.03.97,0,.02,0,.04,0,.07.05.45.13.89.24,1.33.28,2.08.4,4.17.36,6.26,0,.43-.02,1.68-.04,2.96-.03,1.35-.05,2.75-.05,3.24,0,1.53-.06,1.65-.87,1.65h-1.78c-.66,0-1.31-.16-1.89-.49-2.48-1.31-2.97-1.55-3.62-1.55-.45-.04-.85.28-.89.73,0,0,0,.02,0,.02,0,.24.08.94.28,2.3v.27c.06.98.14,2.45.14,4.39,0,.64-.05,2.44-.11,4.28-.06,1.92-.12,3.86-.12,4.57,0,.5,0,1.82,1.82,1.82,1.58.07,2.93-1.1,3.1-2.67.09-.34.21-.48.79-.48h12.33c.62,0,.76.22.79.73.09,1.05.16,1.96,1.81,1.96,2.88,0,2.88-2.23,2.88-3.07h0Zm-5.6-1.87h-12.18c-.84,0-.96-.1-.96-1.66,0-3.73.01-6.31.04-6.52.05-.26.15-.46.83-.46h12.23c.76,0,.82.04.82,1.51v6.65c-.04.32-.3.48-.78.48h0ZM199.65,9.41l-7.48-2.08v-.93l6.47-1.73-6.47-1.73v-.94l7.48-2v1l-4.47,1.11-1.68.37,1.68.41,4.47,1.22v1.1l-4.47,1.21-1.69.4,1.69.4,4.47,1.19v1.01Zm-6.77,6.72h-.71v-.51c0-.58.26-.89.8-.93-.62-.46-.97-1.19-.93-1.96,0-1.1.58-1.82,1.58-1.82.89,0,1.52.54,1.69,1.85l.18,1.39c.03.26.16.39.41.39h.23c.57,0,.84-.38.84-1.22,0-.78-.24-1.17-.97-1.23v-.96c1.2.09,1.77.86,1.77,2.26s-.55,2.12-1.73,2.12h-2.68c-.36,0-.47.12-.47.47v.16Zm1.19-1.61h.76l-.24-1.62c-.12-.76-.45-1.05-.94-1.05-.56,0-.87.41-.87,1.04-.06.8.5,1.51,1.29,1.63h0Zm3.66,6.15h-.95c0-.12,0-.22,0-.35-.03-.89-.77-1.58-1.66-1.56h0s-2.96,0-2.96,0v-.97h5.42v.9h-1.09c.74.27,1.24.97,1.24,1.76,0,.07,0,.13-.01.2h0Zm-1.84,9.05h-3.72v-.97h3.71c.49.07.94-.27,1-.76,0-.06.01-.12,0-.17,0-.63-.38-1.32-1.78-1.32h-2.94v-.97h3.71c.49.07.94-.27,1-.76,0-.06.01-.12,0-.18,0-.63-.43-1.32-1.83-1.32h-2.89v-.97h5.42v.92l-.8-.04c.6.33.96.97.93,1.65.05.65-.33,1.26-.95,1.5.62.34.99,1.01.95,1.72,0,1.07-.58,1.67-1.84,1.67h0Zm1.7,10.33h-5.42v-.9h.77c-.6-.41-.94-1.1-.9-1.82-.1-.92.57-1.74,1.48-1.84.11-.01.21-.01.32,0h3.76v.97h-3.57c-.75,0-1.15.35-1.15,1.08-.04.82.6,1.52,1.42,1.56.09,0,.19,0,.28-.01h3.02v.96Zm-2.59,7.26c-1.68,0-2.95-.9-2.95-2.37-.01-.63.28-1.23.78-1.61h-2.8v-.97h7.57v.84h-.87c.64.36,1.02,1.05.99,1.78-.03,1.33-1.12,2.38-2.45,2.35-.09,0-.17,0-.25-.02h0Zm0-.97c1.24,0,1.87-.57,1.87-1.5s-.65-1.57-1.93-1.57-2.06.66-2.06,1.57c0,.93.86,1.5,2.12,1.5h0Zm-.35,11.14v-4.07c-1.22.03-1.82.66-1.82,1.64-.04.69.41,1.32,1.08,1.5l-.1.88c-1.08-.29-1.82-1.3-1.77-2.42-.02-1.41,1.11-2.57,2.53-2.59.11,0,.22,0,.33.02,1.38-.17,2.63.82,2.8,2.2.01.12.02.24.02.36.05,1.33-.99,2.45-2.31,2.5-.13,0-.26,0-.4-.02h-.36Zm.7-4.05v3.15c1.03-.13,1.59-.68,1.59-1.57.03-.85-.64-1.56-1.49-1.59-.04,0-.07,0-.11,0h0Zm2.25,10.49l-5.42-1.99v-.96l5.42-2.08v1.04l-3.13,1.08-1.46.45,1.46.44,3.13,1.03v.98Zm-2.94,6.45v-4.07c-1.22.03-1.82.66-1.82,1.64-.04.69.41,1.32,1.08,1.5l-.1.88c-1.08-.29-1.82-1.3-1.77-2.42-.02-1.41,1.11-2.57,2.53-2.59.11,0,.22,0,.33.02,1.38-.17,2.63.82,2.8,2.2.01.12.02.24.02.36.05,1.33-.98,2.45-2.31,2.5-.13,0-.27,0-.4-.02h-.36Zm.7-4.05v3.15c1.03-.13,1.59-.68,1.59-1.57.03-.85-.64-1.56-1.48-1.59-.04,0-.07,0-.11,0h0Zm2.38,8.92h-.95c0-.12,0-.22,0-.35-.03-.89-.77-1.58-1.66-1.56,0,0,0,0,0,0h-2.96v-.97h5.42v.9h-1.09c.74.27,1.24.97,1.24,1.77,0,.07,0,.14-.02.2h0Zm-.14,6.19l-6.48-2.52c-.69-.15-1.15-.79-1.08-1.49v-.6h.81v.5c0,.49.16.68.73.9l.66.25,5.37-2.19v1.05l-3.74,1.41-.65.12,4.39,1.57v1.01Zm2.06,6.36h-7.48v-.84h.86c-.62-.36-.99-1.03-.98-1.74,0-1.47,1.23-2.37,2.91-2.37s2.74.97,2.74,2.34c.02.64-.26,1.25-.77,1.64h2.71v.97Zm-4.7-.91c1.28,0,1.93-.65,1.93-1.56s-.67-1.51-1.91-1.51-2.08.56-2.08,1.49c0,.9.77,1.58,2.06,1.58h0Zm-2.06,8.16h-.71v-.51c0-.58.26-.89.8-.93-.62-.46-.97-1.19-.93-1.96,0-1.1.58-1.82,1.58-1.82.89,0,1.52.54,1.69,1.85l.18,1.39c.03.26.16.39.41.39h.23c.57,0,.84-.38.84-1.22,0-.78-.24-1.17-.97-1.23v-.96c1.2.09,1.77.86,1.77,2.26s-.55,2.12-1.73,2.12h-2.68c-.36,0-.47.12-.47.47v.16Zm1.2-1.61h.76l-.24-1.62c-.12-.76-.45-1.05-.94-1.05-.56,0-.87.41-.87,1.04-.07.8.5,1.51,1.29,1.63h0Zm3.52,7.84l-6.48-2.52c-.69-.15-1.15-.79-1.08-1.49v-.6h.81v.5c0,.49.16.68.73.9l.66.25,5.37-2.18v1.05l-3.74,1.41-.65.12,4.39,1.57v1.01ZM182.4,1.85h-.61l.04,1.24h-.74l.04-1.24h-4.72v-.97h4.72l-.04-.87h.74l-.03.87h.46c1.14,0,1.63.49,1.63,1.63v.58h-.81v-.56c0-.52-.17-.68-.69-.68h0Zm-.43,5.84h-.95c.01-.12.01-.22.01-.35-.03-.89-.77-1.58-1.66-1.56,0,0,0,0,0,0h-2.96v-.97h5.42v.9h-1.09c.74.27,1.24.97,1.24,1.77,0,.07,0,.14-.02.2h0Zm-2.85,1.31c1.42-.14,2.69.9,2.84,2.32.01.1.01.21.01.31.03,1.41-1.1,2.57-2.5,2.6-.1,0-.2,0-.3-.01-1.46.13-2.75-.94-2.88-2.4,0-.07,0-.14-.01-.21-.01-1.43,1.13-2.6,2.57-2.62.09,0,.19,0,.28.01h0Zm.04,4.25c1.23,0,2-.6,2-1.65s-.81-1.64-2.04-1.64-2.04.62-2.04,1.64c0,1.05.84,1.65,2.07,1.65h0Zm.97,10.38h-3.72v-.97h3.71c.49.07.94-.27,1-.76,0-.06.01-.12,0-.17,0-.63-.38-1.32-1.78-1.32h-2.94v-.97h3.71c.49.07.94-.27,1-.76,0-.06.01-.12,0-.18,0-.63-.43-1.32-1.83-1.32h-2.89v-.97h5.42v.93l-.8-.04c.6.33.96.97.93,1.65.05.65-.33,1.27-.95,1.5.62.34.99,1.02.95,1.73,0,1.06-.58,1.66-1.84,1.66h0Zm2.71,3.6c.76,0,1.13.35,1.13,1.04v.1h-.53v-.1c.03-.24-.14-.46-.38-.49-.04,0-.08,0-.12,0h-.54l.05.61h-1.05v-1.16h1.43Zm0,1.86c.76,0,1.13.35,1.13,1.04v.1h-.53v-.1c.03-.24-.14-.46-.38-.49-.04,0-.08,0-.12,0h-.54l.05.61h-1.05v-1.16h1.43Zm-3.69,2.75c1.43-.14,2.69.9,2.84,2.33.01.1.01.21.01.31.03,1.41-1.1,2.57-2.5,2.6-.1,0-.2,0-.3-.01-1.46.13-2.75-.94-2.88-2.4,0-.07,0-.14-.01-.21-.02-1.43,1.13-2.6,2.56-2.62.09,0,.19,0,.28.01h0Zm.04,4.26c1.23,0,2-.6,2-1.65s-.81-1.64-2.04-1.64-2.04.62-2.04,1.64c0,1.05.84,1.65,2.07,1.65h0Zm3.24,4.38h-.61l.04,1.24h-.75l.04-1.24h-4.72v-.97h4.72l-.04-.87h.75l-.03.87h.46c1.13,0,1.63.49,1.63,1.63v.58h-.81v-.56c0-.52-.17-.68-.69-.68h0Zm0,4.39h-.61l.04,1.24h-.75l.04-1.24h-4.72v-.96h4.72l-.04-.87h.75l-.03.87h.46c1.13,0,1.63.49,1.63,1.63v.58h-.81v-.56c0-.52-.17-.68-.69-.68h0Zm-.57,7.53h-5.42v-.9h.77c-.6-.41-.94-1.1-.9-1.82-.1-.92.57-1.74,1.48-1.84.11-.01.21-.01.32,0h3.76v.97h-3.57c-.74,0-1.15.35-1.15,1.08-.04.82.6,1.52,1.42,1.56.09,0,.19,0,.28-.01h3.02v.96Zm2.06,2.31v.97h-7.48v-.97h7.48Zm0,3.28v.97h-7.48v-.97h7.48Zm-4.77,2.96c1.43-.14,2.69.9,2.84,2.33.01.1.01.21.01.31.03,1.41-1.1,2.57-2.5,2.6-.1,0-.2,0-.3-.01-1.46.13-2.75-.94-2.88-2.4,0-.07,0-.14-.01-.21-.02-1.43,1.13-2.6,2.56-2.62.09,0,.19,0,.28.01h0Zm.04,4.26c1.23,0,2-.6,2-1.65s-.81-1.64-2.04-1.64-2.04.62-2.04,1.64c0,1.05.84,1.65,2.07,1.65h0Zm2.7,2.57v.1c-.03.24.14.46.38.49.04,0,.08,0,.12,0h.54l-.05-.61h1.05v1.16h-1.42c-.76,0-1.14-.35-1.14-1.04v-.1h.53Zm0,1.86v.1c-.03.24.14.46.38.49.04,0,.08,0,.12,0h.54l-.05-.61h1.05v1.16h-1.42c-.76,0-1.14-.35-1.14-1.04v-.1h.53Zm-6.23,103.72c.93-.58,1.9-1.09,2.91-1.52,1.01-.31,1.58-1.38,1.27-2.4-.01-.04-.03-.09-.04-.13-1.39-5.32-2.01-10.81-1.83-16.31,0-1.15.95-2.07,2.1-2.06.04,0,.08,0,.11,0,1.35,0,2.35.66,2.4,1.99.16,4.43.38,10.79,1.78,15.04.2,1.05,1.21,1.74,2.26,1.54.06-.01.12-.02.17-.04,1.7-.31,3.42-.53,5.14-.66,1.24-.22,2.43.61,2.64,1.85.01.08.02.17.03.25.18,1.18-.62,2.28-1.8,2.46-.13.02-.27.03-.4.02-3.33.27-9.63,1.07-14.38,3.9-2.51,1.49-4.04,4.24-3.63,6.54.45,2.51,3.06,3.51,5.17,3.9,5.85.79,11.8.16,17.36-1.83,1-.53,2.24-.14,2.77.86.08.15.14.31.18.48.43,1.18-.15,2.5-1.32,2.97-4.66,1.7-9.59,2.54-14.55,2.47-1.77.02-3.54-.13-5.28-.43-4.94-.92-8.17-3.7-8.86-7.63-.75-4.17,1.64-8.82,5.81-11.3h0Zm-135.6,15.47c-1.12.44-2.38-.11-2.83-1.22-.03-.08-.06-.16-.08-.24-.39-1.95-1.49-3.68-3.09-4.87-.95-.74-1.17-2.09-.52-3.1.63-1.06,1.99-1.43,3.06-.82,2.61,1.73,4.43,4.42,5.07,7.49.28,1.2-.43,2.42-1.62,2.76h0Zm28.2.41c.46-1.08,1.66-1.65,2.78-1.31,2.1.61,4.29.85,6.47.71,3.64-.38,6.54-2.04,7.76-4.46.85-1.66.76-3.64-.23-5.21-2.06-3.51-7.26-4.75-13.22-3.16-2.08.53-4.04,1.44-5.8,2.67-1.09.8-2.61.64-3.51-.37-.86-.84-.88-2.22-.04-3.08.05-.05.1-.1.16-.15,6.89-5.77,9.14-10.85,11.67-15.25.81-1.41.96-2.98-1.31-3.1-.72-.04-1.71-.09-2.41-.12-1.24-.07-2.36-.61-2.24-2.34-.08-1.19.82-2.21,2.01-2.29.16-.01.32,0,.48.02,2.8.37,5.65.28,8.43-.27,1.2-.32,2.47.14,3.17,1.17.87,1.04,1,2.5.34,3.68-.43.68-1.89,2.05-2.9,3.36-1.74,2.44-3.34,4.99-4.77,7.63-.95,1.65-.66,3.17,1.61,3.17,5.54,0,10.02,2.22,12.31,6.1,1.79,2.93,1.93,6.57.37,9.62-1.93,3.83-6.19,6.43-11.4,6.97-.69.07-1.37.1-2.06.11-2.25.04-4.48-.34-6.59-1.11-1.09-.44-1.62-1.67-1.18-2.76.03-.07.06-.14.1-.21h0Zm51.71-9.29c.14-.98.34-1.96.6-2.92.44-.92.05-2.03-.87-2.47-.07-.04-.15-.07-.23-.09-1.4-.56-2.64-1.44-3.62-2.59-1.17-1.68-1.46-3.82-.78-5.76.3-1.06,1.4-1.68,2.47-1.38.17.05.33.12.48.21,1.11.44,1.76,1.6,1.54,2.78-.12,1.69,1.78,2.6,2.76,2.44.76-.17,1.37-.73,1.62-1.46.51-1.21.96-2.46,1.34-3.72.3-1-.13-2.07-1.03-2.59-1.83-1.01-3.52-2.26-5.02-3.72-.76-.76-.76-2,0-2.76.09-.09.19-.17.29-.24.84-.89,2.25-.93,3.14-.09.02.02.04.04.06.06.24.24.51.45.78.65,1.66,1.21,3.28,1.42,3.64-1.55.09-.72.06-1.57.16-2.23.07-1.12,1.03-1.98,2.16-1.91.04,0,.09,0,.13.01,1.13-.15,2.17.64,2.32,1.77.02.14.02.28.01.41-.16,3.8-.72,7.57-1.64,11.26-.46,1.86-1.03,3.69-1.72,5.48-.94,2.55.64,2.83,1.89,3.04,1.17.2,1.96,1.32,1.76,2.49,0,.02,0,.05-.01.07-.12,1.31-.88,2.06-1.9,2.08-.95-.04-1.91-.14-2.85-.31-1.49-.17-2.11.23-2.51,1.6-.19.67-.33,1.36-.41,2.05-.32,2.39.3,6.77,4.69,7.97,5.06,1.39,8.88-1.09,10.42-4.18,1.81-3.62.24-7.3-.93-9.12-.57-1.15-.09-2.55,1.06-3.12.92-.45,2.04-.25,2.74.51,1.8,2.48,4.09,8.1,1.26,13.79-2.2,4.4-6.71,7.17-11.63,7.14-1.4,0-2.79-.2-4.13-.58-6.49-1.78-8.72-8-8.04-13.03h0Zm-112.11-.27c.87.9.84,2.33-.06,3.2-.03.03-.07.06-.1.09-1.36,1.2-2.48,2.65-3.28,4.28-.58,1.08-1.89,1.53-3.01,1.02-1.12-.41-1.69-1.64-1.28-2.76,0,0,0-.02,0-.02.86-2.54,2.53-4.73,4.77-6.22.94-.65,2.22-.47,2.96.41h0Zm1.65,3.08h0Zm2.77,5.11c.81-.9,2.19-1.03,3.15-.28,1.05.81,2.37,1.2,3.7,1.08,2.86-.44,4.64-2.67,4.78-5.8.13-2.95-1.49-5.4-5.78-8.79-2.26-1.64-3.76-4.13-4.15-6.89-.3-2.16.3-4.34,1.66-6.04.27-.34.57-.66.89-.96.41-.38.65-.91.65-1.47,0-.53-.22-1.05-.61-1.41-.86-.76-1.62-1.62-2.28-2.56-.62-.9-.39-2.14.52-2.76.04-.03.09-.06.14-.09.99-.79,2.44-.62,3.23.37,1.61,2.22,3.87,3.88,6.47,4.77,1.15.38,1.81,1.58,1.52,2.75-.17,1.24-1.19,2.18-2.44,2.26-1.7.02-3.32.73-4.49,1.96-.58.72-.84,1.65-.69,2.57.21,1.53,1.05,2.91,2.32,3.79,3.82,2.86,7.89,6.75,7.64,12.69-.23,5.29-3.6,9.27-8.58,10.14-.51.09-1.03.13-1.55.13-2.34.08-4.61-.83-6.24-2.51-.78-.78-.79-2.05,0-2.83.05-.05.1-.09.15-.14h0Zm128.57,37.16c-.11.46-.64.94-1.09.83-.19-.07-.39-.12-.6-.15-.24-.02-.34,0-.4-.01-.16-.03-.27-.19-.23-.36,0,0,0-.01,0-.02.02-.06.05-.12.09-.17l.03-.05s.06-.1.08-.16c.11-.26-.02-.56-.28-.67-.03-.01-.06-.02-.1-.03-.23-.02-.46,0-.69.07-.08.02-.17.02-.26,0-.15-.03-.25-.17-.22-.33,0,0,0-.02,0-.03.53-.62,1.36-.91,2.16-.73.89.07,1.56.85,1.49,1.74,0,.01,0,.03,0,.04Zm-3.7,2.28c-.83.06-1.63.28-2.38.65-.1.04-.35.14-.63.25-.26.11-.62.25-.79.32v-.02c0-.14,0-1.61.03-1.94,0-.15.02-.31.05-.46.02-.01.04-.02.07-.03l.06-.03c.46-.18.9-.41,1.3-.7.28-.17.37-.53.2-.82-.03-.05-.07-.1-.12-.14-.21-.2-.51-.3-.8-.26l-.07.02c-.11.05-.18.15-.19.27,0,.06-.22.25-.3.28.02-.22.09-.57.12-.74.01-.07.02-.12.02-.12.01-.04.05-.12.1-.22.12-.21.2-.43.24-.66-.23-.82-1-1.37-1.85-1.3-.29,0-.58.13-.58.4,0,.1.04.17.28.41.32.27.49.68.46,1.1,0,.2-.07,1.32-.11,1.56-.59.21-1.2.35-1.82.4-.24,0-.47-.03-.71-.08-.03,0-.07-.01-.1-.02-.06-.02-.13-.03-.2-.04-.19,0-.34.13-.35.32,0,0,0,.01,0,.02.21.61.73,1.06,1.36,1.18.36-.02.7-.11,1.03-.26l.17-.05c.09-.03.5-.13.61-.15.02.05.03.1.03.15.01.26.03,1.84.03,2.21q0,.3-.77.68c-.46.3-.99.48-1.54.51-.05,0-.17-.02-.29-.04-.15-.02-.3-.04-.35-.04-.42.05-.72.42-.69.84,0,.66.92,1.22,1.21,1.22.21-.04.4-.13.57-.26.05-.03.09-.06.14-.08.09-.04.19-.06.28-.07.02,0,.04,0,.06,0,.05.02.17.18.52.85.14.4.5.68.93.71.82,0,1.03-1.3,1.03-1.99,0-.08-.01-.29-.02-.51s-.02-.44-.02-.53c0-.11,0-.13.86-.59,1.96-1.04,2.48-1.15,2.77-1.15.77.06,1.34.73,1.28,1.5-.05.81-.65,1.49-1.46,1.62-.52.05-.8-.18-.8-.53,0-.12.04-.23.12-.31.06-.07.09-.15.09-.24,0-.17-.14-.31-.31-.31-.61.23-1.02.82-1.02,1.47,0,.9.74,1.51,1.85,1.51,1.69-.08,3.02-1.46,3.04-3.15-.02-1.45-1.2-2.61-2.65-2.61h0Zm-4.88,3.31c.02.31-.05.63-.21.9-.19-.11-.34-.28-.43-.48.19-.16.41-.3.64-.41h0Zm24.61-2.24c-.52-.04-1.04-.06-1.56-.05-.17.01-.34-.05-.48-.16-1.27-1.16-1.4-1.7-1.32-2.21.24-.7.87-1.19,1.6-1.25.66-.04,1.22-.08,1.22-.83,0-.96-1-1.44-1.73-1.79l-.05-.03c-1.02-.55-1.06-.55-1.22-.51-.11.04-.19.15-.19.27.14.34.31.66.52.97.33.46.33.48.33.6,0,.32-.19.59-.65,1.25l-.11.16c-.27.39-.44.84-.49,1.31,0,.6.15,1.19.43,1.72l.06.1c.09.15.35.59.42.73-.03.01-.07.03-.1.05-.51.19-.99.45-1.43.77-.5.34-1.65,1.42-2.46,1.42-.04,0-.16-.02-.28-.04-.15-.02-.3-.04-.35-.04-.33,0-.53.35-.53.92,0,.69.55,1.25,1.24,1.25.63,0,.82-.23,1.52-1.1.09-.11.18-.23.25-.23.14.02.31.49.9.9.49.41,1.11.64,1.74.67,1.05.05,1.94-.75,1.99-1.8,0-.07,0-.14,0-.21,0-.8-.23-1.58-.67-2.24.48.03.96.14,1.41.33,1.16.5,1.11,1.53,1.3,2.14s.54,1.24,1.12,1.24c.55,0,1.02-.4,1.08-.95.19-1.02-.48-2.96-3.52-3.36h0Zm-2.45,2.1c.05.59-.4,1.11-.99,1.16-.07,0-.13,0-.2,0-.48-.07-.93-.29-1.28-.64.47-.52,1.4-1.69,1.93-1.74.26.37.44.78.54,1.22h0Zm24.52-.9c0,4.09-5.61,4.62-6.67,4.15-.4-.17-.31-.71.29-.7.74.02,4.51-.68,4.51-3.48,0-1.14-.9-2.07-2.04-2.13-1.34-.05-2.62.57-3.4,1.65-.67,1-.82,1.42-1.41,1.42-.51,0-.81-.34-.81-.91,0-.67.28-.96.88-1.62,1.51-1.5,2.78-3.23,3.75-5.13-1.15.16-1.71.67-2.17.65-.28-.01-.54-.14-.72-.35-.26-.24-.44-.55-.5-.9-.02-.19.16-.33.39-.33.04,0,.19.01.36.03.52.05,1.04.04,1.56-.05.57-.19,1.16-.35,1.75-.46.7-.07,1.33.43,1.41,1.13,0,.69-.46,1.07-1.15,1.64-.9.83-1.73,1.73-2.5,2.69.05-.03.11-.05.15-.07.1-.05.18-.08.22-.1.79-.31,1.64-.48,2.49-.5,1.92-.05,3.53,1.43,3.63,3.35h0Zm19.26,3.2c0,.97-3.18,1.11-4.78,1.11-2.15,0-3.24-.91-3.24-2.7.03-1.04.49-2.02,1.27-2.72h0c.3-.28.6-.56.6-.68,0-.04-.1-.34-.12-.4-.21-.62-.31-1.27-.29-1.93,0-.18.02-.7.04-1.24.02-.57.04-1.15.04-1.36.01-.45-.16-.88-.48-1.19-.19-.25-.37-.39-.37-.52,0-.21.2-.31.66-.31.99,0,1.91.8,1.93,1.41-.01.27-.07.53-.16.78-.23.82-.38,1.67-.45,2.52,0,1.31.12,1.6.2,1.65.68-.39,1.37-.75,2.08-1.07.63-.32,1.31-.54,2.01-.64.45,0,.82.36.83.81,0,.63-.72,1.18-1.36,1.28-3.82.62-5.23,2.56-5.23,3.49,0,.3,0,1.23,1.96,1.23.79-.02,1.57-.11,2.34-.27.4-.14.82-.22,1.24-.24.61-.06,1.17.37,1.27.98h0Zm-62.18,17.06c-2.04,1.77-3.65,2.67-3.69,3,0,.17.19.36.66.74,1.06.86,4.22,2.91,4.47,4.53.08.63-.36,1.21-.99,1.3-1.48.21-1.57-1.57-2.16-2.5-.75-1.08-1.7-2.02-2.79-2.77-.62-.53-.82-.84-.69-1.34.12-.46,1.6-1.47,2.87-2.73,1.49-1.49,1.81-2.35,1.81-2.86-.02-.29-.15-.57-.35-.78-.11-.13-.13-.3-.05-.45.07-.14.24-.14.3-.14.45,0,2.17.84,2.17,1.62,0,.65-.21,1.21-1.55,2.38Zm23.21,5.86c0,2.05-2.97,3.43-5.4,3.43-.24,0-.66,0-.66-.36,0-.24.27-.31.56-.39l.06-.02c1.94-.43,3.66-1.64,3.66-2.95.03-.88-.66-1.62-1.54-1.66-.02,0-.04,0-.06,0-.87.06-1.66.51-2.16,1.22l-.07.1c-.68.97-.92,1.3-1.55,1.3-.84,0-1.43-.9-1.43-2.2,0-.45.16-1.82.29-2.92.07-.56.12-1.04.14-1.24,0-.97.64-1.82,1.58-2.08.92-.38,1.12-.48,1.12-.76,0-.23-.36-.61-.51-.84-.06-.1-.17-.32,0-.49.12-.1.26-.12.67.08.65.3,2.02,1.27,2.02,2.04,0,.55-.46.99-1.01.99,0,0-.01,0-.02,0-.35-.03-.69-.13-1.01-.28-.21-.09-.44-.14-.66-.14-.51,0-.82.18-.88.69-.01.19,0,.38.04.57.05.5.02,1-.08,1.49-.02.15-.04.28-.05.35-.08.6-.2,1.51-.2,1.88,0,.49.13.49.18.49.32-.04.63-.14.9-.31.96-.58,2.07-.87,3.19-.84,1.59,0,2.87,1.28,2.88,2.87h0Zm20.55.38c0,.43-2.57,2.94-5.52,2.94-2.25,0-3.25-1.41-3.25-4.58.03-1.47.15-2.94.36-4.4.07-.55.2-1.81.2-2.23,0-.23-.04-.47-.12-.68-.01-.04-.04-.11-.08-.19-.11-.26-.12-.27-.12-.33.01-.23.21-.4.44-.39,0,0,0,0,.01,0,1,0,1.74,1.43,1.74,1.87-.04.25-.11.48-.22.71-.04.11-.08.19-.09.23-.31,1.79-.48,3.61-.53,5.42,0,1.71.36,2.78,2.18,2.78,1.06,0,2.12-.23,3.09-.67.09-.04.34-.17.6-.31.9-.48.92-.48,1-.48.17,0,.3.13.3.3,0,0,0,0,0,.01h0Z" fill="#64a2bb"/></svg>