<svg xmlns="http://www.w3.org/2000/svg" width="261" height="70" viewBox="0 0 261 70"><g transform="translate(-271.512 -310.893)"><g transform="translate(369.528 353.533)"><path d="M392.285,355.825c-.388,0-.8.315-1.3.993s-.542.685-1.936.685h-5.031c-.512,0-.552-.131-.552-.876a1.253,1.253,0,0,1,.087-.627,2.975,2.975,0,0,1,.188-.257c.335-.434.492-.662.492-.882,0-.979-3.185-1.3-3.218-1.3a.637.637,0,0,0-.716.656,3.062,3.062,0,0,0,.124.585,11.72,11.72,0,0,1,.113,1.651c0,.989-.059,1.053-.492,1.053h-5.387c-1.345,0-2.063-.06-3.382-.12-.1,0-.368-.02-.636-.042-.292-.022-.583-.044-.689-.044a.384.384,0,0,0-.421.39c0,.177.062.252.2.416l.579.7a.7.7,0,0,0,.5.272c.049,0,.2-.015.348-.031.115-.013.228-.026.3-.028,1.015-.087,3.043-.087,3.71-.087h.268a4.808,4.808,0,0,0,.807,1.4c.155.223.288.414.346.525a12.125,12.125,0,0,1,.859,2.145,1.16,1.16,0,0,1-.13,0h-3.18a2.411,2.411,0,0,1-1.252-.265c-.054-.025-.167-.087-.306-.162a3.484,3.484,0,0,0-1.268-.543.489.489,0,0,0-.538.478,6.066,6.066,0,0,0,.093.714c.042.259.084.516.086.632.144,2.315.144,4.762.144,5.808,0,1.124,0,2.821-.117,7.77,0,.217-.038.88-.071,1.44-.025.426-.047.8-.047.885,0,.279,0,1.128,1.157,1.128a1.638,1.638,0,0,0,1.833-1.864c0-.231-.029-.893-.058-1.576-.029-.713-.06-1.449-.06-1.72,0-1.327.018-7.107.025-9.527l0-1.07c0-.552,0-.7.523-.7h3.147c.383,0,.461.057.461.346a7.451,7.451,0,0,1-.7,2.91,6.155,6.155,0,0,1-1.466,1.894c-.916.789-.98.858-.98,1.053a.559.559,0,0,0,.6.509c.415,0,1.977-.9,3.774-2.878.069-.076.2-.251.357-.468a8.018,8.018,0,0,1,1.091-1.314c.764-.171,1.083-.242,1.083-.7,0-.23-.188-.569-.751-1.347h1.33c.609,0,.609,0,.609,1.963,0,3.24.543,3.395,3.723,3.395a6.709,6.709,0,0,0,1.911-.316,1.669,1.669,0,0,0,1.254-1.373,1.194,1.194,0,0,0-.43-.879,1.471,1.471,0,0,1-.319-.838c-.138-1.059-.563-1.174-.74-1.174-.413,0-.483.286-.672,1.039-.288,1.05-.128,1.344-1.356,1.344-.749,0-.791-.294-.791-2.051,0-1.11.009-1.11.549-1.11h4c.4,0,.477.04.537.286.064.321.1,3.858.1,5.327,0,6.143-.164,7.05-.215,7.183-.142.372-.333.4-1.25.4-.08,0-.315-.02-.561-.04-.29-.024-.594-.049-.7-.049-.506,0-.685.291-.685.539,0,.4.286.492.919.691,1.3.446,1.488.541,1.527,1.071.058.611.091.984.8.984a3.038,3.038,0,0,0,2.268-1.018c.578-.782.655-1.979.655-6.32,0-.443-.035-1.742-.073-3.078-.037-1.412-.075-2.868-.075-3.4,0-1.5.124-1.649.55-1.926.474-.3.658-.55.658-.9,0-.753-2.389-2.245-2.746-2.245-.321,0-.445.162-.966.833-.16.2-.182.226-.743.226h-4.314c.031-.024.062-.053.1-.082l.319-.279c2.212-1.952,2.221-1.954,2.631-2.076.334-.091.895-.242.895-.82,0-.4-.323-.641-.643-.816h4.371c.888,0,1.657,0,1.657-.744A5.121,5.121,0,0,0,392.285,355.825Zm-8.186,6.436c-.5.685-.676.744-1.352.744h-3.3l.015-.028a2.813,2.813,0,0,0,.412-1.434c0-1.044-1.405-2.035-2.562-2.611h8.377c.085,0,.226,0,.255.08C385.947,359.019,385.921,359.81,384.1,362.261Z" transform="translate(-369.528 -353.558)" fill="#fff"/><path d="M386.661,377.288c0-.478-.04-2.6-.055-3.386l0-.292c0-.588.075-.639.146-.69.566-.474.738-.618.738-.988,0-.973-2.233-1.686-2.333-1.686-.2,0-.392.141-.829.536-.062.055-.111.1-.144.126-.206.164-.326.193-.793.193h-3.028a3.054,3.054,0,0,1-1.15-.184l-.4-.151a2.447,2.447,0,0,0-.977-.255.476.476,0,0,0-.538.539c0,.029.013.261.028.585.034.7.089,1.822.089,2.123,0,.33-.013,1.246-.029,2.136-.013.858-.029,1.7-.029,1.984,0,.718.322,1.039,1.04,1.039a1.5,1.5,0,0,0,1.651-1.578c.04-.261.042-.277.439-.277h2.936c.433,0,.433.058.435.186.026.632.055,1.286,1.183,1.286C385.843,378.534,386.661,378.148,386.661,377.288Zm-3.189-1.684h-3.025c-.521,0-.521,0-.521-2.052,0-.971.035-.993.521-.993H383.5c.492,0,.521,0,.521,1.317C384.024,375.6,383.984,375.6,383.472,375.6Z" transform="translate(-369.528 -353.558)" fill="#fff"/><path d="M418.386,357.826h-5.709a3.63,3.63,0,0,1-1.4-.219c-.118-.04-.386-.142-.7-.259a7.969,7.969,0,0,0-1.618-.552.563.563,0,0,0-.567.6,3.952,3.952,0,0,0,.173.767c.046.166.088.314.1.377a53.886,53.886,0,0,1,.408,6.745c0,2.564,0,6.857-1.274,10.214-.071.193-.322.823-.59,1.5a14.511,14.511,0,0,0-.844,2.234c0,.494.379.51.421.51.277,0,.751-.085,2.143-2.17a20.633,20.633,0,0,0,3.1-11.615c0-.372-.022-1.451-.044-2.557-.022-1.166-.044-2.362-.044-2.8,0-1.288.039-1.316.58-1.316h18.128c1.454,0,1.893,0,1.893-.745,0-.576-2.347-2.305-2.921-2.305-.437,0-.572.189-1.33,1.232-.25.353-.255.359-1.613.359h-4.41c-.543,0-.552,0-.552-1.2a2.3,2.3,0,0,1,.108-1.023c.025-.04.085-.111.147-.189.237-.3.363-.463.363-.642,0-1.055-3.156-1.069-3.187-1.069a.634.634,0,0,0-.687.6,3.908,3.908,0,0,0,.2.815c.062.213.122.415.131.488.093.8.175,1.686.175,1.786C418.966,357.767,418.829,357.826,418.386,357.826Z" transform="translate(-369.528 -353.558)" fill="#fff"/><path d="M428.248,378.673c0-.1-.027-.718-.062-1.518-.062-1.429-.144-3.386-.144-3.927,0-.6,0-.6.08-.678.022-.022.066-.062.124-.113.549-.478.795-.738.795-1,0-.689-2.143-1.863-2.6-1.863-.224,0-.459.181-1.013.689-.073.068-.133.124-.148.135a1.207,1.207,0,0,1-.694.146h-2.4c-.532,0-.552-.137-.552-.727,0-2.061.009-3.463.064-3.647.06-.153.151-.229.488-.229h5.423c.973,0,1.893,0,1.893-.862,0-.72-2.309-2.333-2.923-2.333-.5,0-.618.179-1.414,1.34-.312.424-.312.424-1.529.424h-1.481c-.5,0-.521-.175-.521-.607a3.638,3.638,0,0,1,.164-1.608c.025-.039.087-.11.155-.195.311-.378.448-.565.448-.757,0-.918-3.1-1.275-3.129-1.275a.636.636,0,0,0-.656.656,7.371,7.371,0,0,0,.151.847,26.2,26.2,0,0,1,.23,3.978c0,.273-.013,1.068-.027,1.884-.015.86-.031,1.744-.031,2.061,0,.973-.04,1.05-.551,1.05h-1.131a2.328,2.328,0,0,1-1.2-.312c-1.576-.833-1.888-.982-2.3-.982a.517.517,0,0,0-.568.479c0,.15.053.6.178,1.458l.006.168c.033.621.08,1.558.08,2.788,0,.4-.033,1.552-.071,2.719-.035,1.217-.075,2.454-.075,2.9,0,.316,0,1.156,1.156,1.156a1.9,1.9,0,0,0,1.968-1.7c.056-.217.136-.306.5-.306h7.835c.4,0,.481.138.5.463.055.667.1,1.244,1.15,1.244A1.672,1.672,0,0,0,428.248,378.673Zm-3.559-1.185h-7.738c-.534,0-.609-.064-.609-1.053,0-2.371.009-4.007.022-4.144.033-.164.093-.29.528-.29h7.768c.485,0,.521.022.521.961l0,4.224C425.159,377.388,424.99,377.488,424.689,377.488Z" transform="translate(-369.528 -353.558)" fill="#fff"/></g><g transform="translate(516.467 311.405)"><path d="M532.512,317.863l-5.137-1.429v-.642l4.444-1.19-4.444-1.184v-.641l5.137-1.372v.686l-3.066.764-1.155.253,1.155.281,3.066.838v.757l-3.066.83-1.162.273,1.162.275,3.066.815Z" transform="translate(-516.467 -311.405)" fill="#fff"/><path d="M527.866,322.475h-.491v-.354c0-.4.181-.613.548-.642a1.58,1.58,0,0,1-.641-1.349c0-.758.4-1.248,1.082-1.248.613,0,1.046.367,1.161,1.269l.123.953c.021.18.108.267.282.267h.158c.39,0,.577-.26.577-.837,0-.534-.166-.8-.664-.844v-.657c.822.065,1.213.592,1.213,1.551,0,.924-.376,1.458-1.191,1.458H528.19c-.245,0-.324.079-.324.324Zm.815-1.1h.52l-.166-1.111c-.08-.519-.311-.722-.643-.722-.382,0-.6.281-.6.714A1.046,1.046,0,0,0,528.681,321.371Z" transform="translate(-516.467 -311.405)" fill="#fff"/><path d="M531.191,325.6h-.649a2.3,2.3,0,0,0,.008-.238,1.1,1.1,0,0,0-1.14-1.068h-2.035v-.664H531.1v.621h-.75a1.289,1.289,0,0,1,.851,1.212A.749.749,0,0,1,531.191,325.6Z" transform="translate(-516.467 -311.41)" fill="#fff"/><path d="M529.93,331.8h-2.555v-.664h2.547a.611.611,0,0,0,.693-.642c0-.432-.26-.909-1.219-.909h-2.021v-.664h2.547a.61.61,0,0,0,.693-.641c0-.433-.3-.91-1.256-.91h-1.984v-.663H531.1v.634l-.548-.028a1.237,1.237,0,0,1,.641,1.133,1.015,1.015,0,0,1-.649,1.031,1.26,1.26,0,0,1,.649,1.183C531.191,331.393,530.795,331.8,529.93,331.8Z" transform="translate(-516.467 -311.411)" fill="#fff"/><path d="M531.1,338.9h-3.723v-.621h.527a1.416,1.416,0,0,1-.62-1.248,1.146,1.146,0,0,1,1.233-1.263H531.1v.664h-2.453c-.512,0-.787.238-.787.744a1.022,1.022,0,0,0,1.169,1.06H531.1Z" transform="translate(-516.467 -311.414)" fill="#fff"/><path d="M529.323,343.878c-1.154,0-2.027-.62-2.027-1.63a1.36,1.36,0,0,1,.534-1.1H525.9v-.663H531.1v.577h-.6a1.341,1.341,0,0,1,.678,1.219A1.646,1.646,0,0,1,529.323,343.878Zm0-.663c.851,0,1.284-.39,1.284-1.031,0-.621-.447-1.076-1.327-1.076s-1.414.455-1.414,1.076C527.866,342.825,528.457,343.215,529.323,343.215Z" transform="translate(-516.467 -311.416)" fill="#fff"/><path d="M529.078,350.864v-2.792c-.837.022-1.248.454-1.248,1.126a1,1,0,0,0,.743,1.031l-.072.606a1.635,1.635,0,0,1-1.212-1.659,1.757,1.757,0,0,1,1.962-1.768,1.727,1.727,0,0,1,1.933,1.754,1.653,1.653,0,0,1-1.861,1.7Zm.476-2.784v2.164c.707-.087,1.089-.47,1.089-1.075A1.053,1.053,0,0,0,529.554,348.08Z" transform="translate(-516.467 -311.419)" fill="#fff"/><path d="M531.1,355.282l-3.723-1.363v-.657l3.723-1.428v.714l-2.15.743-1,.311,1,.3,2.15.706Z" transform="translate(-516.467 -311.42)" fill="#fff"/><path d="M529.078,359.709v-2.791c-.837.021-1.248.454-1.248,1.125a1.006,1.006,0,0,0,.743,1.032l-.072.6a1.634,1.634,0,0,1-1.212-1.659,1.756,1.756,0,0,1,1.962-1.767,1.726,1.726,0,0,1,1.933,1.753,1.652,1.652,0,0,1-1.861,1.7Zm.476-2.784v2.164c.707-.086,1.089-.469,1.089-1.075A1.054,1.054,0,0,0,529.554,356.925Z" transform="translate(-516.467 -311.422)" fill="#fff"/><path d="M531.191,363.046h-.649a2.307,2.307,0,0,0,.008-.238,1.1,1.1,0,0,0-1.14-1.068h-2.035v-.663H531.1v.62h-.75a1.288,1.288,0,0,1,.851,1.212A.754.754,0,0,1,531.191,363.046Z" transform="translate(-516.467 -311.423)" fill="#fff"/><path d="M531.1,367.294l-4.451-1.732a.954.954,0,0,1-.743-1.025v-.411h.555v.346c0,.34.108.469.5.621l.455.173,3.686-1.5v.721l-2.568.966-.447.08,3.015,1.075Z" transform="translate(-516.467 -311.425)" fill="#fff"/><path d="M532.512,371.661h-5.137v-.576h.592a1.362,1.362,0,0,1-.671-1.2c0-1.011.844-1.624,2-1.624a1.677,1.677,0,0,1,1.883,1.609,1.368,1.368,0,0,1-.526,1.126h1.861Zm-3.232-.627c.88,0,1.327-.447,1.327-1.068,0-.642-.461-1.039-1.313-1.039s-1.428.382-1.428,1.025C527.866,370.572,528.4,371.034,529.28,371.034Z" transform="translate(-516.467 -311.43)" fill="#fff"/><path d="M527.866,376.637h-.491v-.354c0-.4.181-.613.548-.642a1.579,1.579,0,0,1-.641-1.349c0-.757.4-1.248,1.082-1.248.613,0,1.046.368,1.161,1.27l.123.952c.021.18.108.267.282.267h.158c.39,0,.577-.26.577-.837,0-.534-.166-.8-.664-.844V373.2c.822.065,1.213.592,1.213,1.551,0,.924-.376,1.458-1.191,1.458H528.19c-.245,0-.324.079-.324.324Zm.815-1.1h.52l-.166-1.111c-.08-.519-.311-.721-.643-.721-.382,0-.6.281-.6.714A1.046,1.046,0,0,0,528.681,375.533Z" transform="translate(-516.467 -311.43)" fill="#fff"/><path d="M531.1,380.918l-4.451-1.731a.954.954,0,0,1-.743-1.025v-.411h.555v.346c0,.339.108.469.5.62l.455.174,3.686-1.5v.721l-2.568.966-.447.08,3.015,1.074Z" transform="translate(-516.467 -311.43)" fill="#fff"/><path d="M520.672,312.668h-.418l.029.851h-.512l.029-.851h-3.24V312h3.24l-.029-.6h.512l-.021.6h.317c.779,0,1.118.34,1.118,1.118v.4h-.556v-.382C521.141,312.783,521.026,312.668,520.672,312.668Z" transform="translate(-516.467 -311.405)" fill="#fff"/><path d="M520.377,316.677h-.649c.007-.079.007-.151.007-.238a1.1,1.1,0,0,0-1.14-1.068H516.56v-.664h3.723v.621h-.75a1.289,1.289,0,0,1,.851,1.212A.859.859,0,0,1,520.377,316.677Z" transform="translate(-516.467 -311.405)" fill="#fff"/><path d="M518.422,317.577a1.78,1.78,0,0,1,1.955,1.81,1.752,1.752,0,0,1-1.926,1.775,1.821,1.821,0,0,1-1.984-1.8A1.778,1.778,0,0,1,518.422,317.577Zm.029,2.921c.844,0,1.37-.411,1.37-1.132s-.555-1.126-1.4-1.126-1.4.426-1.4,1.126C517.022,320.087,517.606,320.5,518.451,320.5Z" transform="translate(-516.467 -311.405)" fill="#fff"/><path d="M519.115,327.622H516.56v-.664h2.547a.61.61,0,0,0,.693-.641c0-.433-.26-.91-1.219-.91H516.56v-.664h2.547a.61.61,0,0,0,.693-.641c0-.433-.3-.91-1.256-.91H516.56v-.664h3.723v.636l-.548-.029a1.238,1.238,0,0,1,.642,1.133,1.016,1.016,0,0,1-.649,1.031,1.262,1.262,0,0,1,.649,1.184C520.377,327.211,519.98,327.622,519.115,327.622Z" transform="translate(-516.467 -311.409)" fill="#fff"/><path d="M520.976,330.093q.778,0,.778.714v.073h-.36v-.073a.3.3,0,0,0-.34-.339h-.367l.036.419H520v-.794Zm0,1.277q.778,0,.778.714v.072h-.36v-.072a.3.3,0,0,0-.34-.339h-.367l.036.419H520v-.794Z" transform="translate(-516.467 -311.412)" fill="#fff"/><path d="M518.444,333.257a1.78,1.78,0,0,1,1.954,1.811,1.752,1.752,0,0,1-1.926,1.775,1.821,1.821,0,0,1-1.984-1.8A1.78,1.78,0,0,1,518.444,333.257Zm.028,2.922c.844,0,1.371-.411,1.371-1.132s-.556-1.126-1.4-1.126-1.4.426-1.4,1.126C517.044,335.768,517.628,336.179,518.472,336.179Z" transform="translate(-516.467 -311.413)" fill="#fff"/><path d="M520.694,339.184h-.418l.028.852h-.511l.028-.852h-3.239v-.663h3.239l-.028-.6h.511l-.021.6h.317c.78,0,1.118.339,1.118,1.118v.4h-.555v-.383C521.163,339.3,521.048,339.184,520.694,339.184Z" transform="translate(-516.467 -311.415)" fill="#fff"/><path d="M520.694,342.2h-.418l.028.851h-.511l.028-.851h-3.239v-.664h3.239l-.028-.6h.511l-.021.6h.317c.78,0,1.118.34,1.118,1.119v.4h-.555v-.382C521.163,342.312,521.048,342.2,520.694,342.2Z" transform="translate(-516.467 -311.416)" fill="#fff"/><path d="M520.3,347.368h-3.722v-.621h.527a1.417,1.417,0,0,1-.621-1.248,1.145,1.145,0,0,1,1.233-1.262H520.3v.663h-2.453c-.512,0-.786.239-.786.744a1.022,1.022,0,0,0,1.169,1.06h2.07Z" transform="translate(-516.467 -311.417)" fill="#fff"/><path d="M521.718,348.951v.664h-5.136v-.664Z" transform="translate(-516.467 -311.419)" fill="#fff"/><path d="M521.718,351.2v.663h-5.136V351.2Z" transform="translate(-516.467 -311.419)" fill="#fff"/><path d="M518.444,353.233a1.78,1.78,0,0,1,1.954,1.811,1.752,1.752,0,0,1-1.926,1.775,1.821,1.821,0,0,1-1.984-1.8A1.78,1.78,0,0,1,518.444,353.233Zm.028,2.922c.844,0,1.371-.411,1.371-1.132s-.556-1.126-1.4-1.126-1.4.426-1.4,1.126C517.044,355.744,517.628,356.155,518.472,356.155Z" transform="translate(-516.467 -311.421)" fill="#fff"/><path d="M520.326,357.92v.071a.3.3,0,0,0,.339.34h.368l-.036-.419h.721v.794h-.973q-.78,0-.78-.715v-.071Zm0,1.276v.073a.3.3,0,0,0,.339.338h.368l-.036-.418h.721v.794h-.973c-.52,0-.78-.239-.78-.714V359.2Z" transform="translate(-516.467 -311.422)" fill="#fff"/></g><g transform="translate(368.546 310.893)"><path d="M476.447,332.515c.442,2.495,2.494,4.26,5.63,4.844a18.841,18.841,0,0,0,3.356.272,25.95,25.95,0,0,0,9.24-1.571,1.489,1.489,0,0,0,.837-1.887,1.3,1.3,0,0,0-1.872-.85,23.471,23.471,0,0,1-11.026,1.16c-1.342-.25-3-.883-3.285-2.479a4.357,4.357,0,0,1,2.307-4.155c3.023-1.8,7.023-2.3,9.137-2.474a1.37,1.37,0,0,0,1.4-1.579,1.449,1.449,0,0,0-1.7-1.335,29.066,29.066,0,0,0-3.266.416,1.228,1.228,0,0,1-1.545-.955c-.89-2.7-1.032-6.741-1.133-9.557-.03-.845-.664-1.266-1.521-1.265a1.321,1.321,0,0,0-1.4,1.307,36.191,36.191,0,0,0,1.165,10.357,1.218,1.218,0,0,1-.78,1.6,14.67,14.67,0,0,0-1.846.968A7.25,7.25,0,0,0,476.447,332.515Z" transform="translate(-368.546 -310.893)" fill="#fff"/><g transform="translate(21.089 17.568)"><path d="M392.036,335.606Z" transform="translate(-389.635 -328.461)" fill="#fff"/><path d="M395.029,333.408a7.514,7.514,0,0,0-3.218-4.756,1.435,1.435,0,0,0-1.945.521,1.482,1.482,0,0,0,.331,1.967,5.1,5.1,0,0,1,1.96,3.092,1.384,1.384,0,0,0,1.846.927A1.476,1.476,0,0,0,395.029,333.408Z" transform="translate(-389.635 -328.461)" fill="#fff"/></g><path d="M412.6,337.313a11.672,11.672,0,0,0,4.185.706,12.812,12.812,0,0,0,1.31-.068,8.889,8.889,0,0,0,7.24-4.427,6.278,6.278,0,0,0-.238-6.114c-1.453-2.468-4.3-3.877-7.818-3.877-1.443,0-1.63-.962-1.025-2.01a46.9,46.9,0,0,1,3.032-4.845c.642-.83,1.568-1.7,1.841-2.134a2.061,2.061,0,0,0-.218-2.336,1.856,1.856,0,0,0-2.013-.74,16.4,16.4,0,0,1-5.351.172,1.37,1.37,0,0,0-1.585,1.441c-.074,1.1.634,1.442,1.424,1.485.444.025,1.079.057,1.534.079,1.44.072,1.348,1.07.832,1.968-1.609,2.795-3.033,6.026-7.412,9.688a1.384,1.384,0,0,0-.075,2.05,1.672,1.672,0,0,0,2.232.237,11.239,11.239,0,0,1,3.683-1.7c3.788-1.009,7.087-.224,8.4,2.006a3.358,3.358,0,0,1,.147,3.31,6.015,6.015,0,0,1-4.929,2.835,12.038,12.038,0,0,1-4.114-.45,1.457,1.457,0,0,0-1.767.831A1.35,1.35,0,0,0,412.6,337.313Z" transform="translate(-368.546 -310.893)" fill="#fff"/><path d="M449.863,337.8a9.98,9.98,0,0,0,2.625.368,8.205,8.205,0,0,0,7.391-4.538,8.693,8.693,0,0,0-.8-8.757,1.479,1.479,0,0,0-2.411,1.658,5.969,5.969,0,0,1,.59,5.793,5.492,5.492,0,0,1-6.62,2.654c-2.789-.767-3.184-3.545-2.978-5.064a9.052,9.052,0,0,1,.261-1.3c.253-.869.647-1.123,1.6-1.017a14.2,14.2,0,0,0,1.809.2c.65-.008,1.131-.487,1.209-1.319a1.37,1.37,0,0,0-1.106-1.628c-.791-.133-1.794-.31-1.2-1.93a28.531,28.531,0,0,0,1.091-3.481,35.629,35.629,0,0,0,1.043-7.151,1.31,1.31,0,0,0-1.485-1.385,1.3,1.3,0,0,0-1.454,1.2c-.063.419-.046.962-.1,1.416-.231,1.885-1.258,1.751-2.315.983a4.4,4.4,0,0,1-.5-.41,1.411,1.411,0,0,0-2.03.018,1.239,1.239,0,0,0-.184,1.9,14.67,14.67,0,0,0,3.19,2.362,1.437,1.437,0,0,1,.653,1.648,23.608,23.608,0,0,1-.852,2.362,1.427,1.427,0,0,1-1.029.929,1.61,1.61,0,0,1-1.757-1.552,1.584,1.584,0,0,0-.978-1.764,1.267,1.267,0,0,0-1.873.748,4.037,4.037,0,0,0,.494,3.657,5.891,5.891,0,0,0,2.3,1.643,1.176,1.176,0,0,1,.7,1.627,14.828,14.828,0,0,0-.384,1.852C444.331,332.711,445.744,336.664,449.863,337.8Z" transform="translate(-368.546 -310.893)" fill="#fff"/><g transform="translate(0 17.946)"><path d="M371.666,329.084a7.733,7.733,0,0,0-3.027,3.954,1.365,1.365,0,0,0,.81,1.766,1.481,1.481,0,0,0,1.912-.65,8.733,8.733,0,0,1,2.082-2.717,1.437,1.437,0,0,0,.106-2.09A1.409,1.409,0,0,0,371.666,329.084Z" transform="translate(-368.546 -328.839)" fill="#fff"/><path d="M374.6,331.3h0Z" transform="translate(-368.546 -328.839)" fill="#fff"/></g><g transform="translate(7.343 0.499)"><path d="M376.264,336.431a5.3,5.3,0,0,0,3.966,1.592,5.727,5.727,0,0,0,.981-.085,6.537,6.537,0,0,0,5.454-6.441c.164-3.776-2.425-6.248-4.85-8.062a3.5,3.5,0,0,1-1.476-2.406,2.084,2.084,0,0,1,.44-1.631,4,4,0,0,1,2.854-1.253,1.668,1.668,0,0,0,1.549-1.434,1.468,1.468,0,0,0-.968-1.747,8.446,8.446,0,0,1-4.111-3.028,1.46,1.46,0,0,0-2.049-.235,1.262,1.262,0,0,0-.418,1.807,9.544,9.544,0,0,0,1.45,1.623,1.2,1.2,0,0,1,.387.894,1.278,1.278,0,0,1-.411.935,5.473,5.473,0,0,0-.568.609,5.04,5.04,0,0,0-1.056,3.837,6.512,6.512,0,0,0,2.633,4.378c2.728,2.154,3.753,3.709,3.672,5.586a3.584,3.584,0,0,1-3.035,3.685,3.375,3.375,0,0,1-2.352-.688,1.474,1.474,0,0,0-2,.178A1.273,1.273,0,0,0,376.264,336.431Z" transform="translate(-375.889 -311.392)" fill="#fff"/><path d="M377.633,333.7Z" transform="translate(-375.889 -311.392)" fill="#fff"/></g></g><g transform="translate(450.304 355.459)"><path d="M457.085,357.015a1.412,1.412,0,0,0-1.374.467.176.176,0,0,0,.138.224.335.335,0,0,0,.163,0,1.214,1.214,0,0,1,.436-.042.325.325,0,0,1,.238.445.457.457,0,0,1-.049.1l-.021.032a.269.269,0,0,0-.06.1.192.192,0,0,0,.145.237c.038.009.1-.008.257.006a2.075,2.075,0,0,1,.377.095c.286.069.627-.236.7-.529A1.029,1.029,0,0,0,457.085,357.015Z" transform="translate(-450.304 -355.484)" fill="#fff"/><path d="M455.683,359.6a4.111,4.111,0,0,0-1.511.41c-.063.024-.226.09-.4.161s-.4.16-.5.205v-.01c0-.087,0-1.02.018-1.233a1.5,1.5,0,0,1,.032-.292.129.129,0,0,1,.042-.018l.04-.017a3.865,3.865,0,0,0,.825-.447.377.377,0,0,0,.052-.608.619.619,0,0,0-.5-.167l-.043.014a.2.2,0,0,0-.122.17c0,.04-.139.158-.188.179.011-.138.054-.36.077-.473.009-.044.016-.079.015-.079.008-.023.032-.076.061-.138a1.281,1.281,0,0,0,.154-.422,1.13,1.13,0,0,0-1.176-.826c-.182,0-.366.079-.366.256,0,.062.025.105.18.26a.841.841,0,0,1,.29.7c0,.124-.044.841-.069.988a4.817,4.817,0,0,1-1.156.257,3.046,3.046,0,0,1-.449-.049.588.588,0,0,1-.064-.016.519.519,0,0,0-.127-.025.214.214,0,0,0-.226.215,1.138,1.138,0,0,0,.866.747,1.836,1.836,0,0,0,.652-.163l.106-.035c.057-.019.32-.082.386-.093a.189.189,0,0,1,.022.093c.009.165.018,1.169.018,1.4,0,.189,0,.189-.488.429a2.02,2.02,0,0,1-.975.325c-.03,0-.108-.012-.187-.024-.1-.014-.192-.026-.224-.026a.5.5,0,0,0-.437.536c0,.418.585.777.767.777a.828.828,0,0,0,.361-.166.776.776,0,0,1,.089-.05.623.623,0,0,1,.181-.044h.04c.029.012.11.114.329.538a.668.668,0,0,0,.591.451c.519,0,.657-.828.657-1.267,0-.05-.008-.185-.016-.324s-.015-.281-.015-.336c0-.072,0-.081.543-.372,1.249-.662,1.576-.733,1.762-.733a.89.89,0,0,1,.814.954,1.112,1.112,0,0,1-.925,1.031c-.334.034-.505-.111-.505-.334a.3.3,0,0,1,.072-.2.244.244,0,0,0,.058-.151.2.2,0,0,0-.2-.2,1,1,0,0,0-.646.936c0,.572.473.956,1.177.956a2.02,2.02,0,0,0,1.928-2A1.677,1.677,0,0,0,455.683,359.6Zm-3.1,2.1a1,1,0,0,1-.13.57.661.661,0,0,1-.275-.3A1.911,1.911,0,0,1,452.586,361.7Z" transform="translate(-450.304 -355.484)" fill="#fff"/><path d="M468.216,360.279a9.142,9.142,0,0,0-.989-.033.415.415,0,0,1-.3-.1c-.809-.739-.889-1.078-.843-1.4a1.187,1.187,0,0,1,1.014-.795c.417-.027.777-.052.777-.525,0-.61-.635-.916-1.1-1.14l-.036-.019c-.65-.352-.675-.349-.774-.323a.186.186,0,0,0-.124.172,3.661,3.661,0,0,0,.329.615c.211.295.211.308.211.385,0,.2-.12.376-.411.8l-.071.1a1.777,1.777,0,0,0-.308.83,2.387,2.387,0,0,0,.271,1.1l.038.065c.058.1.221.375.269.466l-.066.03a3.755,3.755,0,0,0-.906.486c-.317.217-1.047.9-1.56.9-.029,0-.1-.012-.179-.024-.094-.013-.188-.026-.221-.026-.211,0-.337.22-.337.586a.794.794,0,0,0,.787.8c.4,0,.517-.146.966-.7.056-.072.117-.143.161-.144.089.011.2.31.575.569a1.848,1.848,0,0,0,1.108.422,1.2,1.2,0,0,0,1.267-1.276,2.551,2.551,0,0,0-.427-1.426,2.873,2.873,0,0,1,.895.209c.737.317.7.971.824,1.357s.345.786.71.786a.678.678,0,0,0,.686-.6C470.577,361.766,470.154,360.532,468.216,360.279Zm-1.555,1.334a.684.684,0,0,1-.755.735,1.435,1.435,0,0,1-.812-.4c.3-.33.887-1.075,1.228-1.1A2.085,2.085,0,0,1,466.661,361.613Z" transform="translate(-450.304 -355.484)" fill="#fff"/><path d="M479.931,358.916a4.6,4.6,0,0,0-1.582.32c-.025.009-.077.033-.14.062l-.093.044a16.026,16.026,0,0,1,1.588-1.708c.441-.363.733-.6.733-1.043a.82.82,0,0,0-.9-.717,8.941,8.941,0,0,0-1.112.3,3.844,3.844,0,0,1-.987.029c-.107-.01-.2-.018-.227-.018-.142,0-.257.088-.246.206a1.015,1.015,0,0,0,.316.575.633.633,0,0,0,.46.223c.291.01.653-.313,1.38-.414a12.753,12.753,0,0,1-2.382,3.257c-.383.415-.559.6-.559,1.028a.505.505,0,0,0,.517.577c.374,0,.473-.273.9-.906a2.559,2.559,0,0,1,2.163-1.048,1.356,1.356,0,0,1,1.294,1.351c0,1.774-2.4,2.22-2.868,2.207-.384-.01-.438.333-.186.443.675.3,4.238-.041,4.238-2.636A2.251,2.251,0,0,0,479.931,358.916Z" transform="translate(-450.304 -355.484)" fill="#fff"/><path d="M493.666,362.447a2.821,2.821,0,0,0-.788.156,7.712,7.712,0,0,1-1.484.174c-1.244,0-1.244-.59-1.244-.784,0-.6.894-1.822,3.319-2.219.407-.067.863-.417.863-.816a.529.529,0,0,0-.527-.516,4.046,4.046,0,0,0-1.28.406,14.006,14.006,0,0,0-1.323.678c-.048-.034-.128-.217-.128-1.048a8.119,8.119,0,0,1,.284-1.6,1.688,1.688,0,0,0,.1-.5c-.009-.391-.594-.9-1.226-.9-.288,0-.416.061-.416.2,0,.086.115.177.235.334a1,1,0,0,1,.3.757c0,.133-.013.505-.026.864-.012.343-.024.674-.024.787a3.374,3.374,0,0,0,.181,1.226c.016.039.074.23.079.254,0,.076-.194.258-.383.434l0,0a2.413,2.413,0,0,0-.806,1.726c0,1.139.693,1.716,2.057,1.716,1.015,0,3.038-.092,3.038-.707A.754.754,0,0,0,493.666,362.447Z" transform="translate(-450.304 -355.484)" fill="#fff"/><path d="M455.959,372.4c0-.492-1.093-1.026-1.377-1.026-.041,0-.15,0-.192.086a.261.261,0,0,0,.036.285.817.817,0,0,1,.221.5c0,.323-.2.866-1.15,1.815-.805.806-1.745,1.442-1.822,1.737-.082.316.044.516.44.852a6.852,6.852,0,0,1,1.769,1.756c.369.593.432,1.724,1.369,1.59a.744.744,0,0,0,.63-.827c-.156-1.028-2.167-2.329-2.838-2.875-.3-.241-.418-.367-.418-.473a27.421,27.421,0,0,1,2.346-1.906C455.83,373.168,455.959,372.819,455.959,372.4Z" transform="translate(-450.304 -355.484)" fill="#fff"/><path d="M467.888,375.808a3.784,3.784,0,0,0-2.027.536,1.388,1.388,0,0,1-.573.2c-.031,0-.115,0-.115-.314,0-.236.077-.811.129-1.2.006-.042.018-.125.034-.222a3.1,3.1,0,0,0,.051-.944,1.231,1.231,0,0,1-.028-.361c.038-.327.232-.439.559-.439a1.236,1.236,0,0,1,.421.091,1.866,1.866,0,0,0,.639.18.636.636,0,0,0,.656-.627c0-.491-.874-1.105-1.284-1.3-.264-.122-.35-.113-.428-.048-.1.106-.032.245,0,.312.1.143.326.386.326.531,0,.177-.126.245-.709.485a1.377,1.377,0,0,0-1,1.324c-.01.127-.045.429-.087.786-.082.7-.184,1.573-.184,1.857,0,.822.373,1.4.906,1.4.4,0,.552-.208.988-.823l.043-.062a1.811,1.811,0,0,1,1.371-.775,1.016,1.016,0,0,1,1.014,1.053c0,.827-1.094,1.6-2.326,1.871l-.041.012c-.182.049-.355.1-.355.249,0,.225.261.225.417.225,1.54,0,3.428-.875,3.428-2.177A1.835,1.835,0,0,0,467.888,375.808Z" transform="translate(-450.304 -355.484)" fill="#fff"/><path d="M482.571,377.679c-.051,0-.061,0-.632.306-.167.089-.32.172-.38.2a4.787,4.787,0,0,1-1.959.425c-1.153,0-1.385-.674-1.385-1.764a23.932,23.932,0,0,1,.335-3.446c.006-.024.029-.08.055-.147a1.556,1.556,0,0,0,.14-.449c0-.277-.471-1.186-1.106-1.186a.263.263,0,0,0-.286.246c0,.035,0,.038.072.206.021.049.041.1.049.12a1.113,1.113,0,0,1,.079.434c0,.266-.086,1.067-.13,1.415a23.013,23.013,0,0,0-.23,2.8c0,2.01.637,2.908,2.067,2.908a4.552,4.552,0,0,0,3.507-1.867A.192.192,0,0,0,482.571,377.679Z" transform="translate(-450.304 -355.484)" fill="#fff"/></g><g transform="translate(271.512 311.054)"><path d="M288.649,371.462a7.683,7.683,0,0,1-4.09-2.786,4.38,4.38,0,0,1-.527-3.571,15.752,15.752,0,0,1,1.911-3.983,31.085,31.085,0,0,0,1.551-2.826,13.881,13.881,0,0,0,1.27-7.122c-.146-3.385-1.929-5.248-5.021-5.248-1.918,0-4.508.567-4.854,5.472s-2.6,7.308-4.992,9.868a8.392,8.392,0,0,0-1.266,10.023,18.147,18.147,0,0,0,6.307,6.668c1.579.9,3.64,1.286,4.678.1C284.989,376.5,288.04,372.3,288.649,371.462Z" transform="translate(-271.512 -311.079)" fill="#fff"/><path d="M342.726,352.748c0-6.129-2.964-6.838-5.194-6.838-3.151,0-4.7,1.69-5,5.966-.063.909-.087,4.148-.054,5.784.344,17.006,5.133,19.646,6.707,20.514,1.73.954,3.134.818,4.175-.4,1.311-1.533,4.536-5.835,5.118-6.613C346.269,369.883,342.726,365.793,342.726,352.748Z" transform="translate(-271.512 -311.079)" fill="#fff"/><path d="M322.437,360.188c-.544-6.242-3.9-11.315-7.662-15.109-4.438-4.47-5.7-5.4-4.9-12.194-.856-.016-5.2-.094-6.459-.094-2.113,0-3.054.767-3.25,2.649l-.009.094a20.762,20.762,0,0,0-.08,4.392,12.455,12.455,0,0,0,4.224,8.718c5.7,5.551,7.412,8.815,7.648,12.835a8.936,8.936,0,0,1-1.933,6.649c-2.521,2.82-5.283,1.969-7.225,1.708a4.287,4.287,0,0,0-4.942,2.859c-.768,2.217-.59,4.585,1.96,6.142,4.071,2.484,11.838,2.383,16.7-1.853C321,373.059,323.053,367.251,322.437,360.188Z" transform="translate(-271.512 -311.079)" fill="#fff"/><path d="M315.9,331.073a5.055,5.055,0,0,0,5.357-5.432,6.342,6.342,0,0,0-3.627-5.425,31.984,31.984,0,0,1-4.07-2.345,5.515,5.515,0,0,1-2.248-3.482c-.41-2.12-2.12-3.335-4.691-3.335-3.466,0-5.085,1.845-5.1,5.807a7.9,7.9,0,0,0,5.86,7.937c3.47,1.04,5.1,3.265,4.612,6.275Z" transform="translate(-271.512 -311.054)" fill="#fff"/></g></g></svg>