<?xml version="1.0" encoding="UTF-8"?><svg xmlns="http://www.w3.org/2000/svg" viewBox="0 0 116.86 105.41"><path d="m18.36,101.8c-1.6,1.8-4.7,1.2-7.1-.2-5.4-3.1-8.7-8.5-9.6-10.1-2.8-4.9-2-11.1,1.9-15.2,3.6-3.9,7.1-7.6,7.6-15,.5-7.5,4.5-8.3,7.4-8.3,4.7,0,7.4,2.8,7.6,8,.3,3.7-.3,7.4-1.9,10.8-.7,1.5-1.5,2.9-2.4,4.3-1.2,1.9-2.2,3.9-2.9,6-.5,1.8-.2,3.8.8,5.4,1.5,2.3,4.1,3.5,6.2,4.2-.9,1.3-5.5,7.7-7.6,10.1Z" fill="#64a2bb"/><path d="m116.86,91.3c-.9,1.2-5.8,7.7-7.8,10-1.6,1.8-3.7,2.1-6.3.6-2.4-1.3-9.7-5.3-10.2-31.2-.1-2.5,0-7.4.1-8.8.5-6.5,2.8-9.1,7.6-9.1,3.4,0,7.9,1.1,7.9,10.4,0,19.9,5.4,26.1,8.7,28.1h0Z" fill="#64a2bb"/><path d="m68.36,100.1c-7.4,6.4-19.2,6.6-25.4,2.8-3.9-2.4-4.1-6-3-9.3,1.3-3.7,4.6-4.7,7.5-4.3,2.9.4,7.1,1.7,11-2.6,2.1-2.4,3.2-5.9,2.9-10.1-.4-6.1-3-11.1-11.6-19.5-4.8-4.7-6-8.7-6.4-13.2-.2-2.2-.2-4.5.1-6.7v-.1c.3-2.9,1.7-4,4.9-4,1.9,0,8.5.1,9.8.1-1.2,10.3.7,11.7,7.4,18.5,5.7,5.8,10.8,13.5,11.6,22.9,1.1,10.7-2,19.6-8.8,25.5h0Z" fill="#64a2bb"/><path d="m61.46,30.4c.7-4.6-1.7-8-7-9.5-5.4-1.4-9.1-6.4-8.9-12.1,0-6,2.5-8.8,7.7-8.8,3.9,0,6.5,1.8,7.1,5.1.4,2.1,1.6,4,3.4,5.3,1.7,1.4,3.5,2,6.2,3.6,3.3,1.9,5.5,4.8,5.5,8.2,0,5-3.2,8.3-8.1,8.3h-5.9v-.1Z" fill="#64a2bb"/></svg>