<svg xmlns="http://www.w3.org/2000/svg" width="24.963" height="20.304" viewBox="0 0 24.963 20.304"><path d="M25.725,22.306h.019a4.819,4.819,0,0,1-.131-1.169,5.133,5.133,0,0,1,5.125-5.125,5.069,5.069,0,0,1,3.741,1.627,9.994,9.994,0,0,0,2.7-.954c.178-.094.365-.178.542-.281a5.144,5.144,0,0,1-1.646,2.385,5.412,5.412,0,0,1-.608.421H35.5c-.009.009-.019.009-.028.019a9.933,9.933,0,0,0,2.4-.589c.178-.065.346-.122.524-.2a10.3,10.3,0,0,1-2.544,2.628c.019.224.019.44.019.664a14.578,14.578,0,0,1-22.438,12.28,10.514,10.514,0,0,0,1.225.075A10.262,10.262,0,0,0,19.5,32.883c.028-.019.065-.028.094-.047.094-.047.178-.1.271-.159a11.838,11.838,0,0,0,1.16-.767H21c.009,0,.009-.009.019-.009a5.09,5.09,0,0,1-4.779-3.554,5.324,5.324,0,0,0,.954.084,5.843,5.843,0,0,0,.991-.1l.365-.056c-.009,0-.019-.009-.028-.009a.034.034,0,0,0,.028-.009,5.129,5.129,0,0,1-4.115-5.032v-.056a5.079,5.079,0,0,0,1.8.589,4.978,4.978,0,0,0,.524.056c-.009,0-.009-.009-.019-.019h.028a5.122,5.122,0,0,1-2.282-4.265,5.054,5.054,0,0,1,.533-2.245,3.588,3.588,0,0,1,.168-.327,14.5,14.5,0,0,0,10.4,5.331.722.722,0,0,0,.14.019Z" transform="translate(-13.436 -16.011)" fill="#fff"/></svg>